<svg id="Ebene_1" data-name="Ebene 1" xmlns="http://www.w3.org/2000/svg" viewBox="0 0 170.08 53.65"><defs><style>.cls-1{fill:#1d1d1b;}.cls-2{fill:#0056a4;}</style></defs><title>briq Institute_light_RGB</title><path class="cls-1" d="M128.07,30.5H130V43.61h-1.88Z" transform="translate(-28.6 -22.23)"/><path class="cls-1" d="M133.13,34h1.71v1.52h0A3.44,3.44,0,0,1,138,33.8c2.49,0,3.59,1.55,3.59,4.12v5.69h-1.76v-5c0-2.23-.49-3.32-2-3.42-2,0-2.91,1.62-2.91,4v4.43h-1.77Z" transform="translate(-28.6 -22.23)"/><path class="cls-1" d="M143.9,41.73a4.63,4.63,0,0,0,2.2.68c.81,0,1.8-.34,1.8-1.37,0-1.75-4.15-1.6-4.15-4.29,0-2,1.49-3,3.39-3a7.34,7.34,0,0,1,2.2.38l-.16,1.54a5.25,5.25,0,0,0-1.85-.49c-.91,0-1.7.38-1.7,1.17,0,2,4.16,1.39,4.16,4.45,0,2-1.64,3-3.35,3a5.43,5.43,0,0,1-2.63-.53Z" transform="translate(-28.6 -22.23)"/><path class="cls-1" d="M157,35.46h-2.54V40.7A1.52,1.52,0,0,0,156,42.41a2.21,2.21,0,0,0,1.21-.34v1.51a5.7,5.7,0,0,1-1.51.26c-1.82,0-2.94-.87-2.94-2.78v-5.6h-2.17V34h2.17V31.81l1.76-.56V34H157Z" transform="translate(-28.6 -22.23)"/><path class="cls-1" d="M161.35,31.89h-2v-2h2ZM159.47,34h1.77v9.58h-1.77Z" transform="translate(-28.6 -22.23)"/><path class="cls-1" d="M169.57,35.46H167V40.7a1.52,1.52,0,0,0,1.49,1.71,2.17,2.17,0,0,0,1.2-.34v1.51a5.7,5.7,0,0,1-1.51.26c-1.82,0-2.94-.87-2.94-2.78v-5.6H163.1V34h2.17V31.81l1.76-.56V34h2.54Z" transform="translate(-28.6 -22.23)"/><path class="cls-1" d="M180.26,43.61h-1.7V42.09h0a3.46,3.46,0,0,1-3.14,1.75c-2.48,0-3.59-1.54-3.59-4.12V34h1.77v5c0,2.24.48,3.33,2,3.42,2,0,2.91-1.61,2.91-3.95V34h1.76Z" transform="translate(-28.6 -22.23)"/><path class="cls-1" d="M188.37,35.46h-2.54V40.7a1.52,1.52,0,0,0,1.49,1.71,2.14,2.14,0,0,0,1.2-.34v1.51a5.62,5.62,0,0,1-1.5.26c-1.82,0-3-.87-3-2.78v-5.6h-2.16V34h2.16V31.81l1.76-.56V34h2.54Z" transform="translate(-28.6 -22.23)"/><path class="cls-1" d="M197.94,43.22a7.34,7.34,0,0,1-3,.62c-3.4,0-5-2.07-5-5.19,0-2.84,1.78-4.85,4.49-4.85,3.19,0,4.23,2.33,4.23,5.42h-6.85A3.14,3.14,0,0,0,195,42.41a5.61,5.61,0,0,0,2.95-1ZM196.8,37.9a2.43,2.43,0,0,0-2.39-2.67,2.66,2.66,0,0,0-2.58,2.67Z" transform="translate(-28.6 -22.23)"/><path class="cls-1" d="M52.12,56.7H54.9c2.14,0,3.61.69,3.61,2.58a2.36,2.36,0,0,1-2.12,2.44v0a2.4,2.4,0,0,1,2.38,2.48c0,2.2-1.82,2.73-3.91,2.73H52.12Zm1.47,4.38h.81c1.43,0,2.64-.13,2.64-1.65,0-1.22-1-1.53-1.9-1.53H53.59Zm0,4.67H54.7c1.32,0,2.51-.27,2.51-1.66,0-1.58-1.39-1.8-2.66-1.8h-1Z" transform="translate(-28.6 -22.23)"/><path class="cls-1" d="M66.82,66.65a5.74,5.74,0,0,1-2.37.49c-2.66,0-3.88-1.62-3.88-4.06a3.49,3.49,0,0,1,3.52-3.8c2.5,0,3.31,1.83,3.31,4.24H62A2.45,2.45,0,0,0,64.51,66a4.44,4.44,0,0,0,2.31-.75Zm-.9-4.16a1.89,1.89,0,0,0-1.86-2.09,2.08,2.08,0,0,0-2,2.09Z" transform="translate(-28.6 -22.23)"/><path class="cls-1" d="M69.25,55.93h1.39v4.6h0a2.77,2.77,0,0,1,2.42-1.25c1.94,0,2.81,1.21,2.81,3.23V67H74.5V63.08c0-1.75-.38-2.61-1.58-2.68-1.58,0-2.28,1.27-2.28,3.09V67H69.25Z" transform="translate(-28.6 -22.23)"/><path class="cls-1" d="M78.6,60a4.78,4.78,0,0,1,2.47-.71c2.15,0,3,1.06,3,3.11v3.1A11.64,11.64,0,0,0,84.14,67H82.85V66h0a2.77,2.77,0,0,1-2.33,1.15c-1.61,0-2.75-.71-2.75-2.34,0-1.88,2.06-2.47,3.49-2.47.54,0,.93,0,1.47,0,0-1.3-.47-2-1.85-2a3.55,3.55,0,0,0-2.18.77Zm4.1,3.4-.88,0c-.75,0-2.6.11-2.6,1.44A1.32,1.32,0,0,0,80.61,66a1.89,1.89,0,0,0,2.09-2Z" transform="translate(-28.6 -22.23)"/><path class="cls-1" d="M89.75,67H88.1l-2.69-7.5h1.52l2,6.12h0l2.08-6.12h1.38Z" transform="translate(-28.6 -22.23)"/><path class="cls-1" d="M95.43,57.78H93.87V56.22h1.56ZM94,59.46h1.38V67H94Z" transform="translate(-28.6 -22.23)"/><path class="cls-1" d="M101.2,59.28A3.7,3.7,0,0,1,105,63.21a3.82,3.82,0,1,1-7.64,0A3.71,3.71,0,0,1,101.2,59.28Zm0,6.74c1.62,0,2.34-1.47,2.34-2.81a2.38,2.38,0,1,0-4.69,0C98.85,64.55,99.57,66,101.2,66Z" transform="translate(-28.6 -22.23)"/><path class="cls-1" d="M106.87,59.46h1.29v1.16h0a2.28,2.28,0,0,1,2-1.34,3.84,3.84,0,0,1,.91.11v1.23a2.11,2.11,0,0,0-.77-.13c-1.23,0-2,1.18-2,3.06V67h-1.38Z" transform="translate(-28.6 -22.23)"/><path class="cls-1" d="M125,61.42a6.78,6.78,0,0,1-1.17,3.51l1.79,2h-1.84L123,66a3.57,3.57,0,0,1-3,1.18c-2,0-3.3-1.15-3.3-2.87a3.11,3.11,0,0,1,2.29-3A3.62,3.62,0,0,1,118,58.93a2.37,2.37,0,0,1,2.68-2.41,2.28,2.28,0,0,1,2.54,2.32c0,1.31-1.16,2.19-2.25,2.68L123,63.9a4.83,4.83,0,0,0,.63-2.48ZM120.3,66a2.55,2.55,0,0,0,1.9-1l-2.47-2.89c-.78.53-1.44,1-1.44,2A1.9,1.9,0,0,0,120.3,66Zm0-5.32c.61-.3,1.54-.93,1.54-1.8a1.1,1.1,0,0,0-1.22-1.26A1.2,1.2,0,0,0,119.34,59,2.72,2.72,0,0,0,120.26,60.7Z" transform="translate(-28.6 -22.23)"/><path class="cls-1" d="M131.53,56.7H133V67h-1.47Z" transform="translate(-28.6 -22.23)"/><path class="cls-1" d="M135.49,59.46h1.33v1.19h0a2.7,2.7,0,0,1,2.45-1.37c1.94,0,2.81,1.21,2.81,3.23V67h-1.38V63.08c0-1.75-.38-2.61-1.59-2.68-1.57,0-2.28,1.27-2.28,3.09V67h-1.38Z" transform="translate(-28.6 -22.23)"/><path class="cls-1" d="M150.23,66.65a5.74,5.74,0,0,1-2.37.49c-2.66,0-3.88-1.62-3.88-4.06a3.49,3.49,0,0,1,3.51-3.8c2.51,0,3.31,1.83,3.31,4.24h-5.35a2.45,2.45,0,0,0,2.47,2.5,4.44,4.44,0,0,0,2.31-.75Zm-.9-4.16a1.89,1.89,0,0,0-1.86-2.09,2.08,2.08,0,0,0-2,2.09Z" transform="translate(-28.6 -22.23)"/><path class="cls-1" d="M159.29,70.05h-1.38V66h0a2.87,2.87,0,0,1-2.5,1.17c-2.26,0-3.22-2-3.22-4.06s1.06-3.8,3.24-3.8a3,3,0,0,1,2.54,1.25h0V59.46h1.32Zm-3.59-4c1.56,0,2.21-1.54,2.21-2.79s-.72-2.83-2.22-2.83-2.09,1.41-2.06,2.78C153.6,64.36,154.22,66,155.7,66Z" transform="translate(-28.6 -22.23)"/><path class="cls-1" d="M168.29,67H167V65.77h0a2.7,2.7,0,0,1-2.46,1.37c-1.94,0-2.81-1.21-2.81-3.22V59.46H163v3.88c0,1.75.39,2.61,1.59,2.68,1.58,0,2.28-1.26,2.28-3.09V59.46h1.39Z" transform="translate(-28.6 -22.23)"/><path class="cls-1" d="M171,60a4.78,4.78,0,0,1,2.47-.71c2.15,0,3,1.06,3,3.11v3.1a11.64,11.64,0,0,0,.06,1.47h-1.29V66h0a2.79,2.79,0,0,1-2.33,1.15c-1.61,0-2.75-.71-2.75-2.34,0-1.88,2.06-2.47,3.49-2.47.55,0,.93,0,1.47,0,0-1.3-.47-2-1.85-2a3.55,3.55,0,0,0-2.18.77Zm4.1,3.4-.88,0c-.75,0-2.6.11-2.6,1.44A1.32,1.32,0,0,0,173,66a1.89,1.89,0,0,0,2.09-2Z" transform="translate(-28.6 -22.23)"/><path class="cls-1" d="M179,55.93h1.38V67H179Z" transform="translate(-28.6 -22.23)"/><path class="cls-1" d="M184.56,57.78H183V56.22h1.55Zm-1.47,1.68h1.38V67h-1.38Z" transform="translate(-28.6 -22.23)"/><path class="cls-1" d="M191,60.58h-2v4.1A1.19,1.19,0,0,0,190.17,66a1.62,1.62,0,0,0,.94-.27v1.18a4.3,4.3,0,0,1-1.18.21,2,2,0,0,1-2.3-2.18V60.58h-1.7V59.46h1.7V57.72l1.38-.44v2.18h2Z" transform="translate(-28.6 -22.23)"/><path class="cls-1" d="M192.17,69a2.09,2.09,0,0,0,.65.12c1.24,0,1.65-1.71,1.65-1.85a4,4,0,0,0-.27-.8l-2.54-7h1.51l2,6.21h0l2.06-6.21h1.39l-2.76,7.66c-.51,1.45-1.06,3.11-2.89,3.11a4.09,4.09,0,0,1-.94-.11Z" transform="translate(-28.6 -22.23)"/><rect class="cls-1" y="52.65" width="170.08" height="1"/><path class="cls-1" d="M28.6,63.12a4.43,4.43,0,0,1,.28-1.61,3.68,3.68,0,0,1,2-2.11,4.42,4.42,0,0,1,3.2,0,3.68,3.68,0,0,1,1.24.84,3.84,3.84,0,0,1,.79,1.27,4.65,4.65,0,0,1,.28,1.61,4.2,4.2,0,0,1-.29,1.56,4,4,0,0,1-.8,1.28,3.62,3.62,0,0,1-1.23.87,4.23,4.23,0,0,1-3.18,0A3.82,3.82,0,0,1,29.69,66a3.87,3.87,0,0,1-.81-1.28A4.2,4.2,0,0,1,28.6,63.12Zm1.5,0a3.62,3.62,0,0,0,.15,1,2.88,2.88,0,0,0,.43.92,2.3,2.3,0,0,0,.75.67,2.06,2.06,0,0,0,1.08.26,2,2,0,0,0,1.07-.26,2.3,2.3,0,0,0,.75-.67,3.13,3.13,0,0,0,.44-.92,4,4,0,0,0,.14-1,3.51,3.51,0,0,0-.17-1.06,3.23,3.23,0,0,0-.46-.93,2.34,2.34,0,0,0-.76-.64,2.09,2.09,0,0,0-1-.24,2.07,2.07,0,0,0-1,.24,2.34,2.34,0,0,0-.76.64,3.25,3.25,0,0,0-.47.93A3.51,3.51,0,0,0,30.1,63.12Z" transform="translate(-28.6 -22.23)"/><path class="cls-1" d="M38.31,59.28h1.37V60.5h0a2.28,2.28,0,0,1,1-1,3.15,3.15,0,0,1,1.51-.37,2.59,2.59,0,0,1,2.18.88,3.81,3.81,0,0,1,.7,2.42V67H43.69V63a4.38,4.38,0,0,0-.35-2,1.42,1.42,0,0,0-1.28-.72,2.13,2.13,0,0,0-1,.23,2,2,0,0,0-.73.65,2.68,2.68,0,0,0-.43,1,5.72,5.72,0,0,0-.13,1.28V67H38.31Z" transform="translate(-28.6 -22.23)"/><rect class="cls-2" x="51.34" y="8.17" width="4.36" height="13.12"/><path class="cls-2" d="M66.21,30.51a4.32,4.32,0,0,0-1.74-.42c-1.87,0-3.09,1.26-4,2.67l.09-2.37H56.15V43.51h4.36V36.93c.8-1.56,1.75-3,3.19-3a1.4,1.4,0,0,1,1,.38l.08.07h.81l.24-.56a8.07,8.07,0,0,0,.82-2.48A.76.76,0,0,0,66.21,30.51Z" transform="translate(-28.6 -22.23)"/><path class="cls-2" d="M37.54,30.09a13.09,13.09,0,0,0-4.64,1V22.4H28.6V42.76c0,.57.36.63.63.68h.06a20.93,20.93,0,0,0,4.45.43c5.95,0,9.36-2.81,9.36-7.72C43.1,32.52,40.87,30.09,37.54,30.09Zm-2.24,11a8.38,8.38,0,0,1-2.47-.36l-.16,0v-7l.15,0a8.41,8.41,0,0,1,2.84-.53c2.17,0,3.23,1.23,3.23,3.76C38.89,39.72,37.71,41.1,35.3,41.1Z" transform="translate(-28.6 -22.23)"/><path class="cls-2" d="M82.13,22.23a2.41,2.41,0,1,0,2.39,2.42A2.41,2.41,0,0,0,82.13,22.23Z" transform="translate(-28.6 -22.23)"/><path class="cls-2" d="M113,30.65l-.1,0a20.57,20.57,0,0,0-5-.54c-5.36,0-8.82,3.06-8.82,7.8,0,3.64,2.15,5.9,5.61,5.9a14.56,14.56,0,0,0,4.62-1V50.7a.45.45,0,0,0,.52.5h3.26a.45.45,0,0,0,.52-.5V31.25C113.62,30.8,113.19,30.7,113,30.65Zm-3.44,9.56-.14.06a7.39,7.39,0,0,1-2.62.5c-1.5,0-3.28-.68-3.28-3.93,0-2.72,1.17-4,3.68-4a7.79,7.79,0,0,1,2.21.33l.15.05Z" transform="translate(-28.6 -22.23)"/></svg>
