<svg xmlns="http://www.w3.org/2000/svg" viewBox="0 0 212 70">
  <path fill="#fff" fill-rule="evenodd" d="M162.992 12.546v2.49h2.483v-2.49h-2.483zm-39.005.75v16.39h2.344v-16.39h-2.34zm32.934.94l-2.2.704v2.773h-2.69v1.784h2.7v6.997c0 2.394 1.41 3.473 3.68 3.473.7 0 1.38-.186 1.88-.326v-1.87c-.33.21-.82.43-1.5.43-1.01 0-1.85-.75-1.85-2.14V19.5h3.17v-1.785h-3.16v-3.477zm15.64 0l-2.2.704v2.773h-2.69v1.784h2.7v6.997c0 2.394 1.41 3.473 3.68 3.473.7 0 1.38-.186 1.88-.326v-1.87c-.33.21-.82.43-1.5.43-1.01 0-1.85-.75-1.85-2.14V19.5h3.16v-1.785h-3.16v-3.477zm23.44 0l-2.2.704v2.773h-2.69v1.784h2.69v6.997c0 2.394 1.41 3.473 3.68 3.473.71 0 1.39-.186 1.88-.326v-1.87c-.32.21-.82.43-1.5.43-1 0-1.85-.75-1.85-2.14V19.5h3.17v-1.785H196v-3.477zm-59.61 3.194c-1.66 0-3.25.823-3.91 2.183h-.04v-1.9h-2.13v11.974h2.2v-5.54c0-2.912 1.13-4.932 3.63-4.932 1.92.117 2.54 1.478 2.54 4.272v6.2h2.2v-7.115c0-3.217-1.38-5.142-4.47-5.142zm11.37 0c-2.36 0-4.21 1.198-4.21 3.686 0 3.36 5.18 3.17 5.18 5.352 0 1.294-1.24 1.716-2.24 1.716-.63 0-1.87-.28-2.74-.845l-.11 1.97c1.01.54 2.16.65 3.28.65 2.13 0 4.18-1.18 4.18-3.73 0-3.83-5.18-3.13-5.18-5.57 0-.99.98-1.46 2.11-1.46.51 0 1.82.3 2.31.61l.19-1.93c-.87-.26-1.71-.47-2.74-.47zm58.97 0c-3.37 0-5.59 2.51-5.59 6.057 0 3.898 1.95 6.48 6.19 6.48 1.97 0 2.93-.467 3.77-.774v-2.206c-.53.445-2.22 1.198-3.68 1.198-2.08 0-3.93-1.62-3.93-3.992H212c0-3.853-1.29-6.763-5.275-6.763zm-43.59.283v11.973h2.21V17.713h-2.2zm15.35 0v7.114c0 3.215 1.38 5.14 4.48 5.14 1.66 0 3.26-.82 3.92-2.183h.04v1.902h2.13V17.713h-2.2v5.54c0 2.912-1.12 4.932-3.63 4.932-1.92-.116-2.53-1.48-2.53-4.273v-6.2h-2.2zm28.2 1.502c1.9 0 2.98 1.502 2.98 3.333h-6.19c.17-1.55 1.06-3.333 3.22-3.333zM50.68 45.08v13.783h1.72v-4.336c0-2.28.88-3.86 2.842-3.86 1.502.09 1.978 1.155 1.978 3.344v4.86h1.723V53.3c0-2.52-1.08-4.03-3.5-4.03-1.3 0-2.385.57-3.008 1.564H52.4V45.08h-1.725zm136.8 0v13.783h1.72V45.08h-1.72zm-106.115.366v1.947h1.945v-1.947h-1.945zm111.103 0v1.947h1.94v-1.947h-1.94zm-77.74.368c-1.83 0-3.333.956-3.333 3.014 0 1.23.638 2.095 1.317 2.923-1.724.7-2.86 1.8-2.86 3.75 0 2.15 1.592 3.59 4.122 3.59 1.63 0 2.752-.42 3.67-1.47l1.04 1.25h2.294l-2.238-2.53c.73-1.12 1.3-2.31 1.46-4.39h-1.72c-.1 1.47-.3 2.32-.79 3.11l-2.6-2.97c1.35-.61 2.8-1.71 2.8-3.34 0-2.02-1.51-2.9-3.17-2.9zm-85.4.22v12.83h3.41c2.602 0 4.876-.663 4.876-3.42 0-1.8-1.224-2.94-2.97-3.087v-.04c1.618-.4 2.64-1.284 2.64-3.05 0-2.37-1.832-3.233-4.49-3.233H29.33zm98.975 0v12.83h1.84v-12.83h-1.84zm71.65.736l-1.72.55v2.17h-2.11v1.396h2.11v5.477c0 1.874 1.1 2.72 2.88 2.72.55 0 1.08-.147 1.46-.26v-1.468c-.25.165-.63.333-1.17.333-.79 0-1.44-.59-1.44-1.675v-5.127h2.47V49.49h-2.47v-2.72zm-85.29.44c.89 0 1.52.405 1.52 1.58 0 1.085-1.15 1.877-1.92 2.243-.55-.605-1.14-1.305-1.14-2.168 0-1.104.7-1.654 1.54-1.654zm-83.49.33H33.1c1.063 0 2.364.39 2.364 1.912 0 1.894-1.5 2.06-3.28 2.06h-1.01v-3.97zm-26.28 1.5c-.74 0-1.405.127-2 .378-.594.25-1.11.6-1.54 1.045-.43.445-.762.977-.993 1.59-.24.614-.36 1.287-.36 2.013 0 .692.12 1.34.36 1.95.236.608.57 1.14 1.003 1.598.435.458.947.818 1.54 1.082.596.265 1.257.395 1.983.395.712 0 1.37-.13 1.97-.39.6-.26 1.114-.62 1.54-1.08.425-.46.757-.99.994-1.6.24-.6.357-1.25.357-1.95 0-.72-.116-1.4-.348-2.01-.24-.61-.56-1.14-.99-1.59-.43-.44-.94-.79-1.54-1.04-.6-.25-1.26-.37-1.99-.37zm12.11.002c-.674 0-1.3.153-1.876.46-.575.308-.995.737-1.26 1.287h-.036v-1.53h-1.71v9.6h1.77v-4.44c0-.58.06-1.11.17-1.6.12-.49.29-.91.53-1.25.24-.35.54-.62.91-.81.37-.2.81-.29 1.31-.29.78.05 1.31.35 1.6.9.29.55.43 1.39.43 2.52v4.96h1.76v-5.7c0-1.29-.29-2.3-.86-3.03-.57-.73-1.48-1.1-2.72-1.1zm27.247.226c-2.64 0-4.384 1.966-4.384 4.743 0 3.05 1.52 5.08 4.84 5.08 1.54 0 2.29-.36 2.95-.6v-1.73c-.428.35-1.748.94-2.88.94-1.638 0-3.08-1.27-3.08-3.12h6.67c0-3.01-1.008-5.29-4.12-5.29zm21.164 0c-1.19 0-2.216.37-3.08.884l.095 1.47c.7-.59 1.74-.956 2.71-.956 1.73 0 2.32.827 2.32 2.444-.68-.037-1.16-.037-1.84-.037-1.78 0-4.35.736-4.35 3.088 0 2.04 1.41 2.93 3.43 2.93 1.58 0 2.49-.86 2.9-1.43h.03v1.22h1.61c-.04-.27-.07-.77-.07-1.83v-3.88c0-2.55-1.08-3.88-3.76-3.88zm25.095 0c-2.86 0-4.77 2.06-4.77 4.907 0 2.683 1.95 4.907 4.77 4.907 2.81 0 4.75-2.224 4.75-4.907 0-2.846-1.91-4.907-4.75-4.907zm11.15 0c-.98 0-1.98.698-2.43 1.674h-.04V49.49h-1.62v9.373h1.72V54.6c0-2.353 1.01-3.823 2.55-3.823.29 0 .64.037.95.165v-1.545c-.37-.074-.63-.13-1.14-.13zm36.36 0c-1.3 0-2.55.643-3.06 1.71h-.04V49.49h-1.67v9.373h1.72v-4.336c0-2.28.88-3.86 2.84-3.86 1.5.09 1.98 1.155 1.98 3.344v4.86h1.72V53.3c0-2.52-1.09-4.028-3.5-4.028zm10.2 0c-2.64 0-4.38 1.966-4.38 4.743 0 3.05 1.52 5.08 4.84 5.08 1.53 0 2.28-.36 2.94-.6v-1.73c-.43.35-1.74.94-2.88.94-1.63 0-3.08-1.27-3.08-3.12h6.67c0-3.01-1.01-5.29-4.13-5.29zm9.85 0c-2.71 0-4.04 2.225-4.04 4.743 0 2.56 1.19 5.08 4.01 5.08 1.38 0 2.58-.57 3.12-1.45h.03v5.09h1.72V49.49h-1.65v1.342h-.04c-.46-.72-1.52-1.564-3.17-1.564zm22.52 0c-1.2 0-2.22.37-3.08.884l.09 1.47c.69-.59 1.74-.956 2.71-.956 1.72 0 2.31.827 2.31 2.444-.68-.037-1.16-.037-1.84-.037-1.78 0-4.35.736-4.35 3.088 0 2.04 1.41 2.93 3.42 2.93 1.58 0 2.49-.86 2.9-1.43h.03v1.22h1.61c-.04-.27-.07-.77-.07-1.83v-3.88c0-2.55-1.08-3.88-3.76-3.88zm-109.76.222l3.35 9.373h2.05l3.36-9.373h-1.73l-2.59 7.645h-.04L72.7 49.49h-1.88zm10.65 0v9.373h1.72V49.49h-1.73zm84.37 0v5.568c0 2.518 1.08 4.024 3.5 4.024 1.3 0 2.55-.642 3.06-1.71h.04v1.49h1.67V49.49h-1.73v4.336c0 2.28-.88 3.862-2.84 3.862-1.51-.093-1.99-1.16-1.99-3.346V49.49h-1.72zm26.73 0v9.373h1.72V49.49h-1.72zm10.67 0l3.17 8.748c.11.31.33.79.33.992 0 .183-.51 2.316-2.05 2.316-.3 0-.59-.073-.81-.148l-.12 1.414c.31.056.62.13 1.17.13 2.27 0 2.95-2.075 3.59-3.878L212 49.49h-1.74l-2.57 7.753h-.032l-2.515-7.753h-1.89zm-198.37.98c.46 0 .88.1 1.26.303.37.2.68.47.94.81.25.338.44.723.58 1.156.14.43.2.87.2 1.32 0 .43-.06.85-.18 1.28-.12.43-.31.81-.55 1.16-.25.34-.56.62-.93.83-.38.21-.82.32-1.34.32-.53 0-.98-.11-1.35-.32-.38-.22-.69-.49-.93-.84-.25-.34-.43-.73-.55-1.16-.12-.43-.18-.85-.18-1.28 0-.45.07-.9.2-1.33.14-.44.336-.82.593-1.16.255-.34.566-.61.94-.81.366-.2.79-.3 1.265-.3zm39.32.196c1.48 0 2.32 1.177 2.32 2.607H41.7c.13-1.21.824-2.607 2.51-2.607zm46.29 0c1.83 0 2.91 1.727 2.91 3.51 0 1.672-.9 3.512-2.92 3.512-2.03 0-2.93-1.84-2.93-3.513 0-1.782 1.08-3.51 2.93-3.51zm57.67 0c1.48 0 2.32 1.177 2.32 2.607h-4.84c.12-1.21.82-2.607 2.51-2.607zm10.25 0c1.87 0 2.76 1.782 2.76 3.53 0 1.56-.81 3.492-2.76 3.492-1.85 0-2.62-2.078-2.58-3.55-.04-1.707.69-3.472 2.56-3.472zm-44.83 2.17l3.08 3.62c-.41.46-1.18 1.23-2.37 1.23-1.32 0-2.51-.9-2.51-2.314 0-1.27.82-1.876 1.79-2.537zm-82.44.183h1.19c1.58 0 3.32.27 3.32 2.25 0 1.73-1.49 2.07-3.14 2.07h-1.38v-4.33zm35.18 1.34c.36 0 .73.03 1.1.03v.83c0 1.39-.9 2.46-2.61 2.46-.79 0-1.75-.53-1.75-1.53 0-1.66 2.31-1.8 3.25-1.8zm115.17 0c.36 0 .73.03 1.1.03v.83c0 1.39-.9 2.46-2.6 2.46-.79 0-1.74-.53-1.74-1.53 0-1.66 2.31-1.8 3.24-1.8zM0 68.75V70h211.995v-1.25H0zM66.73 2.96c-1.66 0-3.013 1.358-3.013 3.024 0 1.65 1.352 2.99 3.014 2.99 1.65 0 2.98-1.34 2.98-2.99 0-1.666-1.33-3.025-2.97-3.025zM0 3.177v25.448c0 .707.455.786.79.843l.068.016c1.68.36 3.495.536 5.548.536 7.42 0 11.675-3.518 11.675-9.65 0-4.544-2.78-7.59-6.93-7.59-2.13 0-4.18.636-5.79 1.254V3.178H0zm44.71 9.603c-2.327 0-3.842 1.584-5.03 3.34l.106-2.952h-5.442v16.39h5.43V21.34c1.003-1.96 2.186-3.758 3.986-3.758.56 0 .922.135 1.29.48l.1.09h1.015l.3-.7c.43-.983 1.016-2.328 1.016-3.108 0-.526-.08-.75-.6-1.032-.57-.304-1.5-.53-2.17-.53zm54.148 0c-6.68 0-10.996 3.83-10.996 9.755 0 4.55 2.678 7.377 7.002 7.377 1.94 0 3.834-.555 5.755-1.21v9.845c0 .615.47.615.64.615h4.06c.17 0 .65 0 .65-.615V14.24c0-.56-.54-.687-.8-.75l-.13-.033c-1.86-.457-3.89-.676-6.2-.676zm-34.86.384v16.394h5.433V13.164H64zm33.948 3.08c.894 0 1.846.146 2.753.418l.19.06v8.717l-.18.06c-1.04.4-2.17.62-3.27.62-1.87 0-4.09-.85-4.09-4.91 0-3.4 1.45-4.98 4.58-4.98zm-89.138.32c2.702 0 4.015 1.536 4.015 4.696 0 3.56-1.463 5.29-4.474 5.29-1.07 0-2.1-.152-3.08-.45l-.2-.06v-8.75l.18-.066c1.21-.438 2.4-.66 3.54-.66z"/>
</svg>
