<svg id="Ebene_1" data-name="Ebene 1" xmlns="http://www.w3.org/2000/svg" xmlns:xlink="http://www.w3.org/1999/xlink" viewBox="0 0 296.86 331.27"><defs><clipPath id="clip-path"><rect x="-226.61" y="-188.84" width="708.94" height="708.94" style="fill:none"/></clipPath></defs><g style="clip-path:url(#clip-path)"><path d="M121.12,177.05,182.5,70.73a122.82,122.82,0,0,0-61.38-16.44Z" style="fill:#7a8d88"/><path d="M121.12,177.05Q75.54,239.77,30,302.5a155.12,155.12,0,0,0,74.94,28.77q8.1-77.11,16.21-154.22" style="fill:#ef8545"/><path d="M121.12,177.05l-104-27.86a107.65,107.65,0,0,0,0,55.72l104-27.86" style="fill:#f2b15d"/><path d="M121.12,177.05l94.69-5a94.77,94.77,0,0,0-15.17-46.69l-79.52,51.65" style="fill:#c3d9c3"/><path d="M121.12,177.05l19.53,50.89a54.51,54.51,0,0,0,22.83-16.58l-42.36-34.31" style="fill:#6d4a4d"/><path d="M121.12,177.05Q102.29,88.52,83.48,0A180.93,180.93,0,0,0,0,42.54L121.12,177.05" style="fill:#2a3b49"/></g><path d="M197.5,218.63v1.65a13.91,13.91,0,0,1-.29,2.85,6.37,6.37,0,0,1-1.05,2.4,5.32,5.32,0,0,1-2,1.66,7.78,7.78,0,0,1-3.32.62s0,0,0,0a7.81,7.81,0,0,1-3.38-.63,5.13,5.13,0,0,1-2.06-1.71,6.59,6.59,0,0,1-1-2.5,15.28,15.28,0,0,1-.28-3V207.06a15.34,15.34,0,0,1,.28-3,6.75,6.75,0,0,1,1-2.49,5.19,5.19,0,0,1,2.06-1.7,7.68,7.68,0,0,1,3.34-.63l0,0a7.75,7.75,0,0,1,3.36.63,5.24,5.24,0,0,1,2.06,1.69,6.36,6.36,0,0,1,1,2.42,14.83,14.83,0,0,1,.28,2.86v1.59h-4.36v-1.57a9.9,9.9,0,0,0-.08-1.23,3.75,3.75,0,0,0-.33-1.09,2.18,2.18,0,0,0-.72-.79,2.24,2.24,0,0,0-1.23-.3,2.35,2.35,0,0,0-1.28.31,2.11,2.11,0,0,0-.72.82,3.35,3.35,0,0,0-.33,1.16,12.25,12.25,0,0,0-.07,1.38V220c0,.45,0,.9.06,1.34a3.47,3.47,0,0,0,.31,1.17,2,2,0,0,0,.72.82,2.28,2.28,0,0,0,1.29.32,2.45,2.45,0,0,0,1.22-.28,1.9,1.9,0,0,0,.72-.74,3.21,3.21,0,0,0,.35-1.07,8.63,8.63,0,0,0,.09-1.27v-1.63Z" style="fill:#1a171b"/><path d="M207,199.24s0,0,0,0a7.75,7.75,0,0,1,3.36.63,5.09,5.09,0,0,1,2.05,1.7,6.58,6.58,0,0,1,1,2.5,15.45,15.45,0,0,1,.28,3V220a15.41,15.41,0,0,1-.28,3,6.37,6.37,0,0,1-1,2.5,5.11,5.11,0,0,1-2.06,1.7,7.84,7.84,0,0,1-3.34.62l0,0v0a7.75,7.75,0,0,1-3.36-.63,5.2,5.2,0,0,1-2.06-1.71,6.3,6.3,0,0,1-1-2.5,15.27,15.27,0,0,1-.29-3V207.06a15.32,15.32,0,0,1,.29-3,6.31,6.31,0,0,1,1-2.49,5.37,5.37,0,0,1,2.07-1.7,7.71,7.71,0,0,1,3.34-.63Zm0,24.38h.08a2.18,2.18,0,0,0,1.22-.33,2,2,0,0,0,.71-.81,3.66,3.66,0,0,0,.32-1.16,12,12,0,0,0,.07-1.36V207.08c0-.46,0-.9-.06-1.34a3.47,3.47,0,0,0-.31-1.17,2.07,2.07,0,0,0-.72-.83,2.28,2.28,0,0,0-1.29-.31l-.09,0a2.24,2.24,0,0,0-1.23.33,2,2,0,0,0-.69.82,3.58,3.58,0,0,0-.32,1.16c0,.44-.07.89-.07,1.36V220c0,.45,0,.9.06,1.34a3.47,3.47,0,0,0,.32,1.17,2,2,0,0,0,.71.82A2.28,2.28,0,0,0,207,223.62Z" style="fill:#1a171b"/><path d="M230.89,199.58l-4.82,27.88h-5.86l-4.81-27.88h4.37l3.37,23.1,3.37-23.1Z" style="fill:#1a171b"/><path d="M233.18,227.46V199.6h4.34v27.86Z" style="fill:#1a171b"/><path d="M248.46,199.6a7.89,7.89,0,0,1,3.3.63,5.2,5.2,0,0,1,2,1.67,6.48,6.48,0,0,1,1,2.46,14.55,14.55,0,0,1,.3,3V219.7a14.52,14.52,0,0,1-.3,3,6.34,6.34,0,0,1-1,2.46,5.23,5.23,0,0,1-2,1.67,7.85,7.85,0,0,1-3.34.61h-6.57V199.6Zm0,23.67a1.93,1.93,0,0,0,1.8-1,5.71,5.71,0,0,0,.49-2.6V207.39a8.11,8.11,0,0,0-.11-1.46,3.51,3.51,0,0,0-.37-1.12,1.89,1.89,0,0,0-.71-.72,2.38,2.38,0,0,0-1.1-.28h-2.34v19.46Z" style="fill:#1a171b"/><path d="M257.6,212.45h8.26v3.76H257.6Z" style="fill:#1a171b"/><path d="M274.11,207.43h-4.32V204.5c3.49,0,4.73-.75,5.67-3.3h2.78v26.26h-4.13Z" style="fill:#1a171b"/><path d="M283,221.23v-.48h3.9v.75c0,1.87.83,2.59,2.14,2.59s2.29-.72,2.29-3.23v-5h-.08a3.79,3.79,0,0,1-3.75,2.29c-3,0-4.58-2.14-4.58-6v-4.69c0-4.21,2.22-6.61,6.27-6.61s6.27,2.4,6.27,6.61V221c0,4.43-2,6.83-6.31,6.83C285.1,227.84,283,225.44,283,221.23Zm8.33-9.45v-4.65c0-1.73-.72-2.55-2.14-2.55s-2.14.82-2.14,2.55v4.65c0,1.76.71,2.59,2.14,2.59S291.33,213.54,291.33,211.78Z" style="fill:#1a171b"/><path d="M184.15,256.22V234.86h3.33v21.36Z" style="fill:#1a171b"/><path d="M193.79,240.59l.33,15.63H190.8V234.86h4.31l2.81,13,2.82-13H205v21.36h-3.35L202,240.8l-2.67,12.76h-2.88Z" style="fill:#1a171b"/><path d="M218.39,243.51a7.94,7.94,0,0,1-.36,2.58,4,4,0,0,1-1.05,1.65,3.89,3.89,0,0,1-1.66.87,8.65,8.65,0,0,1-2.19.26h-1.51v7.35h-3.33V234.86h4.91a7.86,7.86,0,0,1,2.13.27,3.82,3.82,0,0,1,2.69,2.49,7,7,0,0,1,.37,2.47Zm-3.34-3.42a2.34,2.34,0,0,0-.41-1.49,1.74,1.74,0,0,0-1.43-.51h-1.59v7.57h1.46a2,2,0,0,0,1.53-.49,2.5,2.5,0,0,0,.44-1.66Z" style="fill:#1a171b"/><path d="M222.46,234.85H227l3.65,21.37h-3.37l-.55-3.77h-4l-.53,3.77h-3.36Zm.69,14.55h3.1l-1.54-10.81Z" style="fill:#1a171b"/><path d="M242.61,249.46v1.26a10.27,10.27,0,0,1-.22,2.18,4.86,4.86,0,0,1-.8,1.84A4.07,4.07,0,0,1,240,256a5.92,5.92,0,0,1-2.55.48v0a6,6,0,0,1-2.59-.49,3.91,3.91,0,0,1-1.57-1.31,4.89,4.89,0,0,1-.79-1.91,11.46,11.46,0,0,1-.22-2.31v-9.91a11.32,11.32,0,0,1,.22-2.31,5,5,0,0,1,.79-1.91,4,4,0,0,1,1.57-1.31,5.94,5.94,0,0,1,2.56-.48l0,0A6,6,0,0,1,240,235a4,4,0,0,1,1.58,1.29,4.87,4.87,0,0,1,.8,1.86,11.14,11.14,0,0,1,.21,2.19v1.22h-3.34v-1.2a7.19,7.19,0,0,0-.06-.94,2.75,2.75,0,0,0-.25-.84,1.51,1.51,0,0,0-.55-.6,1.69,1.69,0,0,0-.95-.24,1.75,1.75,0,0,0-1,.24,1.68,1.68,0,0,0-.55.63,2.43,2.43,0,0,0-.25.89,9,9,0,0,0-.06,1.05v9.89c0,.35,0,.69,0,1a2.49,2.49,0,0,0,.24.89,1.49,1.49,0,0,0,.55.64,1.73,1.73,0,0,0,1,.23,1.83,1.83,0,0,0,.93-.21,1.48,1.48,0,0,0,.55-.56,2.39,2.39,0,0,0,.27-.83,6.07,6.07,0,0,0,.07-1v-1.24Z" style="fill:#1a171b"/><path d="M250.62,238.09v18.13h-3.34V238.09h-3.5v-3.23h10.34v3.23Z" style="fill:#1a171b"/><path d="M262.36,256.22V234.86h3.33V253h5.45v3.18Z" style="fill:#1a171b"/><path d="M275.06,234.85h4.49l3.65,21.37h-3.37l-.55-3.77h-4l-.53,3.77H271.4Zm.68,14.55h3.11l-1.55-10.81Z" style="fill:#1a171b"/><path d="M295.69,250.73a8.78,8.78,0,0,1-.32,2.52,4.09,4.09,0,0,1-1,1.7,3.77,3.77,0,0,1-1.62,1,7.75,7.75,0,0,1-2.29.3h-5.15V234.86h5.08a6.82,6.82,0,0,1,2.24.33,4,4,0,0,1,1.57,1,3.91,3.91,0,0,1,.92,1.52,6.5,6.5,0,0,1,.3,2.05V241a6.32,6.32,0,0,1-.46,2.66,2.36,2.36,0,0,1-1.52,1.29,2.69,2.69,0,0,1,1.62,1.26,4.73,4.73,0,0,1,.59,2.47ZM292.12,240a3.12,3.12,0,0,0-.1-.84,1.92,1.92,0,0,0-.31-.66,1.37,1.37,0,0,0-.55-.42,2,2,0,0,0-.82-.15h-1.66v5.62h1.42a3,3,0,0,0,1-.13,1.38,1.38,0,0,0,.64-.42,1.54,1.54,0,0,0,.35-.7,4.35,4.35,0,0,0,.08-1Zm.24,8.66a2.64,2.64,0,0,0-.12-.81,2.08,2.08,0,0,0-.35-.66,1.53,1.53,0,0,0-.59-.44,2,2,0,0,0-.84-.16h-1.78V253h1.79a3.32,3.32,0,0,0,.82-.09,1.36,1.36,0,0,0,.6-.33,1.57,1.57,0,0,0,.36-.68,3.8,3.8,0,0,0,.11-1.1Z" style="fill:#1a171b"/><g style="clip-path:url(#clip-path)"><rect x="-243.35" y="-212.01" width="755.29" height="755.29" style="fill:none;stroke:#1a171b;stroke-miterlimit:10;stroke-width:1.25px"/></g></svg>