<?xml version="1.0" encoding="utf-8"?>
<!-- Generator: Adobe Illustrator 16.0.0, SVG Export Plug-In . SVG Version: 6.00 Build 0)  -->
<!DOCTYPE svg PUBLIC "-//W3C//DTD SVG 1.1//EN" "http://www.w3.org/Graphics/SVG/1.1/DTD/svg11.dtd">
<svg version="1.1" xmlns="http://www.w3.org/2000/svg" xmlns:xlink="http://www.w3.org/1999/xlink" x="0px" y="0px"
	 width="340.156px" height="340.157px" viewBox="0 0 340.156 340.157" enable-background="new 0 0 340.156 340.157"
	 xml:space="preserve">
<g id="Hilfslinien" display="none">
</g>
<g id="Farbkreis">
	<path fill="#7A8D88" d="M144.529,179.207c16.362-28.34,32.725-56.68,49.086-85.02c-14.924-8.617-31.853-13.152-49.086-13.152
		C144.529,113.758,144.529,146.482,144.529,179.207z"/>
	<path fill="#EF8545" d="M144.529,179.207c-24.296,33.439-48.592,66.881-72.889,100.322c17.61,12.795,38.278,20.729,59.927,23.004
		C135.889,261.424,140.209,220.314,144.529,179.207z"/>
	<path fill="#F2B15D" d="M144.529,179.207c-27.715-7.428-55.43-14.854-83.146-22.279c-3.911,14.596-3.911,29.963,0,44.557
		C89.1,194.059,116.814,186.633,144.529,179.207z"/>
	<path fill="#C3D9C3" d="M144.529,179.207c25.242-1.324,50.484-2.646,75.726-3.969c-0.697-13.293-4.881-26.168-12.13-37.332
		C186.927,151.674,165.729,165.439,144.529,179.207z"/>
	<path fill="#6D4A4D" d="M144.529,179.207c5.208,13.566,10.417,27.133,15.624,40.699c7.145-2.742,13.441-7.316,18.258-13.264
		C167.117,197.498,155.823,188.352,144.529,179.207z"/>
	<path fill="#2A3B49" d="M144.529,179.207c-10.031-47.195-20.063-94.391-30.094-141.584c-24.854,5.281-47.878,17.014-66.76,34.016
		C79.961,107.494,112.245,143.35,144.529,179.207z"/>
</g>
<g id="Text">
	<g>
		<g>
			<rect x="193.615" y="196.543" fill="none" width="109.165" height="74.031"/>
			<path fill="#1A171B" d="M207.611,215.115v1.538c0,0.923-0.092,1.81-0.273,2.657c-0.183,0.85-0.508,1.596-0.975,2.239
				s-1.105,1.159-1.914,1.546c-0.809,0.388-1.84,0.582-3.093,0.582c-0.012,0-0.017,0.005-0.017,0.017
				c-1.288,0-2.34-0.196-3.154-0.59c-0.814-0.393-1.451-0.923-1.914-1.589c-0.461-0.667-0.779-1.444-0.957-2.333
				c-0.176-0.889-0.264-1.823-0.264-2.803v-12.065c0-0.991,0.088-1.928,0.264-2.812c0.178-0.882,0.496-1.657,0.957-2.324
				c0.463-0.666,1.1-1.196,1.914-1.589c0.814-0.394,1.855-0.59,3.119-0.59l0.018-0.018c1.275,0,2.321,0.197,3.137,0.59
				c0.813,0.394,1.455,0.918,1.922,1.572c0.467,0.656,0.789,1.41,0.965,2.265c0.178,0.854,0.266,1.743,0.266,2.666v1.487h-4.067
				v-1.471c0-0.387-0.026-0.769-0.077-1.145s-0.154-0.715-0.307-1.017c-0.154-0.302-0.377-0.547-0.668-0.735
				c-0.289-0.188-0.674-0.281-1.152-0.281c-0.502,0-0.898,0.097-1.188,0.29c-0.291,0.194-0.517,0.447-0.676,0.761
				c-0.16,0.313-0.262,0.675-0.308,1.085s-0.068,0.837-0.068,1.282v12.031c0,0.422,0.02,0.837,0.06,1.247s0.137,0.774,0.291,1.094
				s0.375,0.575,0.666,0.769c0.291,0.194,0.692,0.291,1.205,0.291c0.467,0,0.846-0.086,1.137-0.256
				c0.291-0.172,0.516-0.402,0.675-0.692c0.159-0.291,0.268-0.624,0.325-1c0.057-0.376,0.085-0.769,0.085-1.179v-1.521H207.611z"/>
			<path fill="#1A171B" d="M216.572,197.018c0-0.012,0.006-0.018,0.018-0.018c1.275,0,2.321,0.196,3.136,0.59
				c0.814,0.393,1.453,0.923,1.914,1.589c0.462,0.667,0.78,1.444,0.957,2.333s0.265,1.823,0.265,2.803v12.065
				c0,0.991-0.088,1.931-0.265,2.819s-0.499,1.667-0.966,2.333c-0.467,0.667-1.107,1.194-1.922,1.581s-1.854,0.581-3.119,0.581
				l-0.018-0.017v0.017c-1.275,0-2.321-0.196-3.136-0.59c-0.814-0.393-1.456-0.923-1.923-1.589
				c-0.467-0.667-0.789-1.444-0.965-2.333c-0.178-0.889-0.266-1.823-0.266-2.803v-12.065c0-0.991,0.088-1.928,0.266-2.812
				c0.176-0.882,0.501-1.657,0.974-2.324c0.473-0.666,1.116-1.196,1.932-1.589c0.813-0.394,1.854-0.59,3.118-0.59V197.018z
				 M216.572,219.764c0.012,0,0.023,0.003,0.035,0.009c0.011,0.006,0.021,0.009,0.033,0.009c0.479-0.012,0.86-0.114,1.146-0.309
				c0.284-0.193,0.504-0.446,0.658-0.76c0.153-0.313,0.253-0.676,0.299-1.086s0.068-0.831,0.068-1.264v-12.031
				c0-0.422-0.021-0.838-0.06-1.248c-0.041-0.41-0.137-0.774-0.291-1.094c-0.153-0.318-0.376-0.575-0.666-0.77
				c-0.291-0.193-0.692-0.29-1.205-0.29c-0.034,0-0.063-0.005-0.086-0.017c-0.479,0.012-0.859,0.113-1.145,0.307
				c-0.285,0.194-0.502,0.447-0.649,0.761c-0.148,0.313-0.245,0.675-0.29,1.085c-0.047,0.41-0.068,0.832-0.068,1.266v12.031
				c0,0.422,0.02,0.837,0.06,1.247s0.137,0.774,0.29,1.094c0.154,0.319,0.376,0.575,0.667,0.769
				C215.658,219.667,216.061,219.764,216.572,219.764z"/>
			<path fill="#1A171B" d="M238.881,197.342l-4.494,26.011h-5.469l-4.494-26.011h4.084l3.145,21.551l3.145-21.551H238.881z"/>
			<path fill="#1A171B" d="M241.075,223.353v-25.993h4.05v25.993H241.075z"/>
			<path fill="#1A171B" d="M255.386,197.359c1.241,0.012,2.267,0.207,3.076,0.589c0.809,0.382,1.444,0.9,1.905,1.556
				s0.783,1.422,0.966,2.299s0.273,1.816,0.273,2.819v11.484c0,1.003-0.091,1.942-0.273,2.819c-0.183,0.878-0.507,1.645-0.974,2.299
				c-0.468,0.656-1.105,1.174-1.914,1.556c-0.81,0.382-1.846,0.572-3.111,0.572h-6.135v-25.993H255.386z M255.438,219.439
				c0.809-0.023,1.367-0.33,1.674-0.924c0.309-0.592,0.462-1.4,0.462-2.426v-11.468c0-0.501-0.034-0.954-0.103-1.358
				s-0.186-0.752-0.35-1.043c-0.166-0.29-0.385-0.516-0.658-0.675s-0.615-0.245-1.025-0.257h-2.188v18.15H255.438z"/>
			<path fill="#1A171B" d="M264.008,208.553h8.14v3.699h-8.14V208.553z"/>
			<path fill="#1A171B" d="M280.345,203.595h-4.255v-2.886c1.159,0,2.09-0.099,2.793-0.297c0.703-0.197,1.264-0.523,1.684-0.98
				c0.42-0.455,0.789-1.115,1.11-1.979h2.738v25.899h-4.07V203.595z"/>
			<path fill="#1A171B" d="M290.725,222.039c-1.035-1.122-1.553-2.731-1.553-4.828v-0.481h3.848v0.74
				c0,1.702,0.703,2.553,2.109,2.553c0.764,0,1.332-0.233,1.701-0.703c0.37-0.468,0.555-1.295,0.555-2.479v-4.957h-0.073
				c-0.716,1.504-1.949,2.257-3.7,2.257c-1.48,0-2.603-0.505-3.367-1.517s-1.146-2.479-1.146-4.403v-4.625
				c0-2.072,0.529-3.675,1.591-4.81c1.06-1.135,2.59-1.703,4.588-1.703s3.526,0.568,4.588,1.703c1.061,1.135,1.591,2.737,1.591,4.81
				v13.394c0,4.49-2.072,6.734-6.216,6.734C293.266,223.723,291.762,223.162,290.725,222.039z M297.385,207.887v-4.588
				c0-1.678-0.703-2.516-2.108-2.516c-1.406,0-2.108,0.838-2.108,2.516v4.588c0,1.701,0.702,2.553,2.108,2.553
				C296.682,210.439,297.385,209.588,297.385,207.887z"/>
			<path fill="#1A171B" d="M195.17,249.353v-20.052h3.125v20.052H195.17z"/>
			<path fill="#1A171B" d="M204.215,234.68l0.316,14.673h-3.125v-20.052h4.047l2.637,12.182l2.65-12.182h4.034v20.052h-3.138
				l0.316-14.476l-2.505,11.971h-2.702L204.215,234.68z"/>
			<path fill="#1A171B" d="M227.313,237.422c0,0.967-0.115,1.772-0.344,2.419c-0.229,0.646-0.556,1.162-0.981,1.549
				c-0.427,0.387-0.945,0.659-1.556,0.817c-0.611,0.158-1.299,0.237-2.063,0.237h-1.411v6.908h-3.124v-20.052h4.601
				c0.738,0,1.406,0.083,2.004,0.25s1.109,0.441,1.536,0.824c0.427,0.382,0.756,0.885,0.989,1.51c0.232,0.623,0.35,1.396,0.35,2.32
				V237.422z M224.174,234.205c0-0.615-0.127-1.082-0.382-1.398s-0.703-0.475-1.345-0.475h-1.49v7.106h1.371
				c0.678,0,1.154-0.153,1.431-0.462c0.277-0.307,0.415-0.826,0.415-1.555V234.205z"/>
			<path fill="#1A171B" d="M231.109,229.287h4.219l3.428,20.065h-3.164l-0.515-3.546h-3.744l-0.501,3.546h-3.15L231.109,229.287z
				 M231.755,242.945h2.913l-1.449-10.151L231.755,242.945z"/>
			<path fill="#1A171B" d="M250.027,242.998v1.187c0,0.712-0.07,1.396-0.211,2.05c-0.141,0.655-0.391,1.23-0.752,1.728
				c-0.359,0.497-0.852,0.894-1.477,1.192c-0.623,0.299-1.419,0.449-2.386,0.449c-0.009,0-0.013,0.004-0.013,0.013
				c-0.994,0-1.805-0.151-2.434-0.455c-0.628-0.303-1.119-0.712-1.477-1.226c-0.355-0.515-0.602-1.114-0.738-1.8
				c-0.136-0.686-0.203-1.406-0.203-2.162v-9.308c0-0.765,0.067-1.487,0.203-2.169c0.137-0.681,0.383-1.278,0.738-1.793
				c0.357-0.514,0.849-0.923,1.477-1.226c0.629-0.304,1.432-0.455,2.406-0.455l0.014-0.014c0.984,0,1.791,0.152,2.42,0.455
				c0.627,0.304,1.122,0.708,1.482,1.213c0.36,0.506,0.608,1.088,0.744,1.747c0.137,0.659,0.205,1.345,0.205,2.057v1.147h-3.138
				v-1.135c0-0.299-0.021-0.593-0.06-0.883s-0.119-0.551-0.236-0.784c-0.119-0.233-0.291-0.422-0.516-0.567
				c-0.223-0.145-0.52-0.217-0.889-0.217c-0.387,0-0.693,0.074-0.916,0.224c-0.225,0.149-0.398,0.345-0.521,0.587
				s-0.202,0.521-0.237,0.837s-0.053,0.646-0.053,0.989v9.281c0,0.324,0.015,0.646,0.046,0.962s0.105,0.598,0.225,0.844
				s0.289,0.444,0.514,0.593c0.225,0.15,0.534,0.225,0.93,0.225c0.36,0,0.652-0.066,0.877-0.197
				c0.225-0.133,0.397-0.311,0.521-0.534c0.123-0.225,0.206-0.481,0.251-0.771c0.043-0.29,0.065-0.593,0.065-0.909v-1.174H250.027z"
				/>
			<path fill="#1A171B" d="M257.542,232.332v17.021h-3.138v-17.021h-3.283v-3.031h9.703v3.031H257.542z"/>
			<path fill="#1A171B" d="M270.388,249.353v-20.052h3.124v17.059h5.115v2.993H270.388z"/>
			<path fill="#1A171B" d="M282.306,229.287h4.219l3.428,20.065h-3.164l-0.515-3.546h-3.744l-0.5,3.546h-3.151L282.306,229.287z
				 M282.951,242.945h2.914l-1.45-10.151L282.951,242.945z"/>
			<path fill="#1A171B" d="M301.672,244.197c0,0.924-0.099,1.71-0.296,2.36c-0.198,0.65-0.499,1.183-0.903,1.595
				c-0.404,0.414-0.91,0.715-1.516,0.903c-0.607,0.189-1.323,0.284-2.149,0.284h-4.839v-20.039h4.773
				c0.809,0,1.509,0.104,2.103,0.31c0.593,0.206,1.083,0.505,1.47,0.896s0.674,0.868,0.863,1.431s0.283,1.203,0.283,1.924v1.174
				c0,1.046-0.145,1.877-0.435,2.492s-0.765,1.02-1.424,1.213c0.642,0.176,1.147,0.568,1.517,1.18s0.553,1.387,0.553,2.326V244.197z
				 M298.324,234.112c0-0.29-0.031-0.554-0.093-0.791s-0.158-0.441-0.29-0.613c-0.132-0.171-0.303-0.303-0.514-0.396
				c-0.211-0.092-0.471-0.139-0.778-0.139h-1.556v5.273h1.332c0.359,0,0.663-0.041,0.909-0.125c0.246-0.083,0.446-0.213,0.6-0.389
				s0.262-0.396,0.323-0.659s0.088-0.58,0.079-0.949L298.324,234.112z M298.548,242.246c0-0.271-0.038-0.527-0.112-0.764
				c-0.074-0.238-0.185-0.444-0.329-0.62c-0.146-0.176-0.33-0.313-0.554-0.415c-0.225-0.102-0.486-0.152-0.785-0.152h-1.674v6.025
				h1.688c0.29,0,0.545-0.028,0.765-0.086c0.22-0.057,0.406-0.162,0.561-0.316c0.153-0.153,0.268-0.364,0.343-0.633
				c0.074-0.268,0.107-0.613,0.099-1.035V242.246z"/>
		</g>
	</g>
</g>
<g id="Grafisch">
</g>
<g id="Farbfelder">
	<g id="Auswahl">
	</g>
</g>
<g id="Auswahl_3.0">
</g>
<g id="Final">
	<rect x="-126.772" y="-131.922" fill="none" stroke="#ED0009" stroke-miterlimit="10" width="604" height="604"/>
</g>
</svg>
