<svg xmlns="http://www.w3.org/2000/svg" viewBox="0 0 396 198">
  <path fill="#fff" fill-rule="evenodd" d="M364.768 167.766l.268-3.498c-1.72-.55-3.747-.84-6.08-.856-7.423.076-11.206 3.763-11.344 11.054.02 3.495 1.086 6.08 3.2 7.76 2.03 1.72 4.748 2.577 8.144 2.577 2.256-.036 4.487-.393 6.7-1.063V172.6h-8.36v3.254h4.39v5.395c-.692.19-1.6.29-2.73.29-2.208-.02-3.93-.73-5.156-2.14-1.24-1.35-1.86-3.1-1.86-5.24 0-2.18.65-3.96 1.953-5.37 1.28-1.4 3.132-2.12 5.542-2.14 1.815 0 3.594.37 5.333 1.1zm-37.753 16.68h3.976V168.98h.06l7.92 15.466h5.07v-20.678h-3.97v15.465H340l-7.884-15.465h-5.097v20.678zm-21.334-7.47c.09 5.3 2.9 7.91 8.45 7.827 5.56.082 8.37-2.526 8.45-7.826v-13.21h-4.15v11.936c0 1.784-.31 3.19-.94 4.213-.65 1.087-1.77 1.627-3.35 1.627-1.53 0-2.64-.54-3.31-1.627-.67-1.024-1-2.43-.97-4.213v-11.935h-4.16v13.21zm-12.56 7.47h4.15v-17.418h5.93v-3.26h-16v3.26h5.92v17.418zm-18.57 0h4.15v-9.065h6.99v-3.25h-6.99v-5.09h7.35v-3.26h-11.5v20.68zm-8.59 0h4.15V163.77h-4.14v20.676zm-12.35 0h4.15v-17.418h5.93v-3.26h-16v3.26h5.93v17.418zm-9.12-16.888l.39-3.408c-1.52-.494-3.17-.738-4.95-.738-1.87 0-3.52.464-4.94 1.394-1.49.987-2.24 2.63-2.28 4.916 0 .833.14 1.552.41 2.166.28.614.62 1.135 1.04 1.57.45.418.95.77 1.49 1.068.51.312 1.05.59 1.62.824 1.18.433 2.21.89 3.12 1.364.41.237.76.535 1.04.892.24.355.36.78.36 1.273-.02.9-.43 1.57-1.21 2.01-.8.44-1.61.65-2.46.65-1.66-.02-3.22-.44-4.68-1.27l-.38 3.73c.99.23 1.86.42 2.61.56.73.15 1.63.23 2.7.23 2.17 0 4-.48 5.48-1.45 1.48-.97 2.24-2.57 2.28-4.8 0-.89-.12-1.65-.36-2.29-.27-.61-.61-1.14-1.03-1.57-.41-.46-.89-.84-1.44-1.16-.54-.3-1.09-.56-1.67-.78-.57-.24-1.11-.46-1.63-.68-.53-.2-1.02-.41-1.47-.65-.42-.25-.76-.51-1.04-.8-.27-.3-.41-.67-.41-1.1 0-.58.11-1.05.33-1.43.22-.4.48-.69.8-.89.34-.22.7-.37 1.07-.45.36-.08.72-.12 1.07-.12 1.48.02 2.88.32 4.21.89zm-23.03 1.78h-4v-4.384l-2.78.887v3.5h-3.4v2.25h3.4v8.83c0 1.53.42 2.64 1.25 3.34.83.7 1.97 1.06 3.41 1.06.46 0 .88-.05 1.29-.13.41-.09.77-.18 1.09-.28v-2.37c-.22.14-.48.27-.78.38-.31.11-.68.17-1.11.17-.63 0-1.18-.22-1.64-.68-.46-.46-.7-1.13-.7-2.01v-8.27h4v-2.25zm-20.83 14.636c.64.34 1.31.563 2.02.668.72.106 1.43.166 2.14.166.67 0 1.32-.095 1.95-.283.64-.193 1.2-.475 1.7-.863.49-.38.89-.87 1.18-1.467.29-.588.44-1.294.44-2.103 0-.806-.16-1.47-.49-1.984-.32-.512-.73-.944-1.21-1.287-.48-.35-1-.64-1.57-.89-.56-.25-1.09-.49-1.57-.74-.48-.24-.89-.53-1.21-.85-.33-.32-.49-.74-.49-1.25 0-.63.27-1.1.8-1.39.53-.29 1.15-.44 1.87-.44.16 0 .37.02.63.06.27.05.55.1.83.19.29.08.57.16.83.25.27.09.48.19.64.29l.24-2.43c-.55-.16-1.1-.29-1.66-.41-.55-.11-1.15-.18-1.8-.18-.74 0-1.45.1-2.1.29-.65.19-1.22.48-1.69.86s-.85.87-1.13 1.45c-.27.58-.41 1.27-.41 2.06 0 .72.16 1.31.49 1.78.33.47.73.89 1.22 1.24.49.36 1.01.67 1.58.92.56.26 1.09.52 1.57.79.49.27.89.57 1.22.88.33.32.5.7.5 1.16 0 .42-.09.76-.26 1.05-.18.28-.4.5-.68.67-.28.17-.58.28-.92.36-.34.07-.66.1-.97.1-.2 0-.45-.01-.73-.05-.29-.04-.59-.11-.91-.19-.31-.09-.63-.21-.95-.35-.31-.13-.61-.29-.89-.47l-.14 2.49zm-17.27-4.015c.38.95.91 1.8 1.59 2.51.69.72 1.5 1.29 2.44 1.7.94.41 1.98.62 3.13.62 1.13 0 2.17-.22 3.11-.63.95-.42 1.76-.98 2.43-1.71.67-.72 1.2-1.56 1.58-2.52.37-.96.56-1.98.56-3.07 0-1.15-.19-2.2-.55-3.17-.36-.97-.88-1.81-1.55-2.51-.67-.7-1.48-1.25-2.43-1.65-.95-.4-2-.6-3.14-.6-1.16 0-2.22.2-3.16.59-.94.4-1.75.95-2.43 1.65-.68.7-1.2 1.53-1.57 2.5-.36.97-.54 2.02-.54 3.16 0 1.09.19 2.11.56 3.07zm2.73-5.16c.22-.68.53-1.29.93-1.82.41-.54.9-.97 1.49-1.28.58-.32 1.25-.48 2-.48.73 0 1.39.15 1.98.47.6.31 1.09.73 1.49 1.27.4.53.7 1.13.92 1.82.22.68.33 1.37.33 2.08 0 .67-.09 1.34-.28 2.01-.19.67-.47 1.28-.85 1.82s-.87.98-1.46 1.32c-.59.33-1.29.5-2.1.5-.83 0-1.54-.17-2.13-.5-.59-.34-1.08-.78-1.46-1.32-.39-.55-.67-1.15-.86-1.83-.19-.67-.28-1.34-.28-2.02 0-.71.11-1.41.33-2.09zm-15.7-8.44h2.52c.46 0 .95.06 1.48.19.54.13 1.03.33 1.48.6.46.28.84.64 1.14 1.09.31.46.46 1.01.46 1.66 0 .69-.13 1.27-.38 1.73-.26.46-.59.83-1 1.11-.41.28-.85.48-1.35.61-.49.13-.96.19-1.42.19h-2.93v-7.21zm-2.97 18.08h2.96v-8.27h2.91c.93 0 1.83-.11 2.71-.33.87-.22 1.65-.58 2.33-1.07.68-.5 1.23-1.14 1.65-1.93.42-.79.62-1.76.62-2.9 0-1.19-.2-2.17-.62-2.97-.41-.79-.97-1.43-1.67-1.9s-1.52-.82-2.46-1.02c-.93-.21-1.94-.31-3.01-.31h-5.42v20.67zm-13.21-3.41c-.18.14-.43.3-.76.48-.32.17-.7.33-1.12.48-.42.15-.88.27-1.36.38-.48.11-.95.16-1.4.16-.65 0-1.28-.12-1.88-.37-.6-.24-1.13-.59-1.6-1.04-.46-.44-.82-.96-1.09-1.58-.27-.61-.4-1.29-.4-2.04h10.78c0-1.21-.11-2.34-.34-3.38-.23-1.05-.6-1.95-1.11-2.71-.52-.76-1.2-1.36-2.05-1.79-.85-.44-1.9-.66-3.17-.66-1.06 0-2.03.19-2.9.56-.87.37-1.61.9-2.24 1.58-.62.68-1.1 1.48-1.43 2.41-.33.93-.5 1.95-.5 3.07 0 1.23.16 2.34.48 3.35.31 1 .8 1.87 1.44 2.58.65.7 1.46 1.26 2.43 1.66.98.39 2.14.59 3.49.59.61 0 1.16-.04 1.64-.11.49-.07.91-.16 1.28-.26.366-.09.698-.2.99-.31.3-.11.586-.22.86-.31V181zm-9.63-5.6c.06-.49.17-.99.34-1.48s.41-.94.74-1.35c.32-.4.73-.73 1.22-.99.48-.26 1.07-.39 1.76-.39.6 0 1.13.11 1.6.32.48.21.87.52 1.19.9.32.38.56.84.73 1.35.17.51.25 1.05.25 1.62h-7.82zm-20.06 9h2.79v-6.99c0-.91.09-1.75.27-2.52.18-.77.46-1.43.83-1.98.38-.54.85-.97 1.44-1.27.58-.31 1.27-.46 2.06-.46 1.22.08 2.06.55 2.52 1.42.46.87.68 2.2.68 3.96v7.82h2.79v-8.98c0-2.03-.45-3.62-1.36-4.77-.91-1.14-2.34-1.72-4.3-1.72-1.06 0-2.01.22-2.84.66-.83.43-1.5 1.05-2.01 1.86h-.06v-9.28h-2.79v22.22zm-3.32-14.87c-.4-.16-.91-.3-1.55-.42s-1.25-.18-1.82-.18c-1.16 0-2.21.19-3.15.59-.94.39-1.75.94-2.43 1.64-.68.7-1.2 1.53-1.57 2.5-.36.97-.54 2.02-.54 3.16 0 1.09.19 2.11.57 3.07.38.95.9 1.8 1.59 2.51.69.73 1.49 1.29 2.43 1.71.94.41 1.99.62 3.13.62.52 0 1.08-.04 1.71-.11.62-.07 1.21-.25 1.79-.52l-.21-2.49c-.43.28-.93.49-1.47.63-.54.14-1.05.22-1.53.22-.89 0-1.65-.17-2.3-.5-.64-.34-1.16-.78-1.57-1.32-.41-.55-.7-1.15-.89-1.83-.18-.67-.28-1.34-.28-2.02 0-.71.11-1.41.33-2.09.22-.69.54-1.29.95-1.82.42-.54.92-.97 1.53-1.28.61-.32 1.29-.48 2.06-.48.46 0 .94.05 1.46.16.51.11 1.04.27 1.57.49l.24-2.32zm-22.64 14.4c.64.34 1.31.56 2.02.67.71.11 1.42.17 2.13.17.67 0 1.32-.1 1.95-.29.63-.2 1.2-.48 1.69-.87.49-.38.89-.87 1.19-1.47.29-.59.44-1.3.44-2.11 0-.81-.17-1.47-.49-1.98-.33-.51-.73-.95-1.22-1.29-.48-.35-1.01-.64-1.57-.89s-1.09-.5-1.57-.74-.89-.53-1.21-.86c-.32-.32-.49-.75-.49-1.26 0-.64.27-1.1.8-1.4.54-.3 1.16-.44 1.87-.44.16 0 .37.01.64.05s.54.1.83.18c.29.08.56.16.83.24.27.09.48.19.64.29l.24-2.43c-.55-.16-1.11-.3-1.66-.41-.56-.12-1.16-.18-1.81-.18-.75 0-1.45.09-2.1.28-.65.19-1.21.47-1.69.86-.47.38-.85.87-1.12 1.45-.28.58-.42 1.27-.42 2.06 0 .71.17 1.3.49 1.77.33.47.73.89 1.22 1.24.48.36 1.01.67 1.57.92.56.26 1.09.52 1.57.78s.89.56 1.21.87c.33.32.49.7.49 1.15 0 .41-.09.76-.26 1.04-.18.27-.41.5-.68.66-.28.17-.59.28-.92.36-.34.06-.66.09-.98.09-.19 0-.43-.01-.72-.05s-.59-.1-.9-.19c-.31-.09-.62-.21-.94-.34-.31-.14-.61-.3-.89-.48l-.14 2.49zm-2.22-14.64h-4v-4.39l-2.79.89v3.5h-3.41v2.25h3.41v8.82c0 1.53.42 2.63 1.25 3.33.83.7 1.96 1.06 3.4 1.06.46 0 .89-.05 1.3-.14.4-.09.77-.19 1.08-.29V182c-.22.14-.48.265-.79.374-.3.11-.67.163-1.11.163-.63 0-1.18-.227-1.64-.68-.46-.46-.7-1.13-.7-2.016v-8.27h4v-2.25zm-12.77 0h-2.79v6.99c0 .93-.09 1.77-.27 2.53-.18.76-.46 1.41-.83 1.95-.38.55-.86.97-1.44 1.28-.58.31-1.27.46-2.06.46-1.22-.08-2.07-.55-2.52-1.42-.45-.87-.68-2.2-.68-3.97v-7.82H70.2v8.97c0 2.04.45 3.63 1.36 4.77.903 1.14 2.34 1.72 4.293 1.72 1.07 0 2.056-.25 2.96-.73.91-.48 1.574-1.17 1.988-2.03h.06v2.39h2.7V169.3zM65.3 181.04c-.177.13-.43.3-.754.48-.327.17-.705.33-1.126.48-.43.15-.88.27-1.37.38-.485.11-.953.165-1.407.165-.65 0-1.28-.12-1.88-.37-.603-.247-1.137-.59-1.6-1.04-.464-.44-.83-.967-1.097-1.58-.27-.615-.404-1.296-.404-2.045h10.78c0-1.2-.113-2.33-.34-3.38-.224-1.04-.6-1.95-1.11-2.71-.513-.76-1.196-1.36-2.046-1.79-.844-.43-1.906-.65-3.166-.65-1.07 0-2.038.2-2.903.57-.87.38-1.62.9-2.242 1.59-.622.68-1.098 1.49-1.433 2.42-.34.93-.51 1.95-.51 3.08 0 1.23.16 2.345.47 3.35.31 1.01.79 1.87 1.43 2.58.64.71 1.45 1.268 2.43 1.665.97.39 2.13.59 3.48.59.61 0 1.16-.04 1.64-.106.48-.07.91-.16 1.27-.26.37-.09.7-.2.99-.31.3-.11.58-.22.86-.32v-2.79zm-9.63-5.6c.057-.49.172-.99.34-1.48.17-.5.416-.95.74-1.35.326-.41.73-.74 1.216-1 .484-.26 1.07-.39 1.765-.39.59 0 1.13.11 1.6.33.48.22.87.52 1.19.9.32.39.56.84.73 1.35.17.51.25 1.05.25 1.63h-7.82zm-23.26 9h6.105c1.698 0 3.23-.22 4.59-.668 1.365-.444 2.52-1.106 3.466-1.988.95-.88 1.69-1.977 2.2-3.285.51-1.32.77-2.84.77-4.58 0-1.6-.28-3.03-.86-4.28-.57-1.26-1.35-2.32-2.35-3.19-1-.87-2.16-1.54-3.49-2-1.33-.47-2.77-.7-4.31-.7H32.4v20.67zm2.963-18.08h3.465c1.07 0 2.06.18 2.98.53.918.35 1.72.85 2.4 1.51.675.67 1.21 1.47 1.594 2.42.386.94.577 2.02.577 3.23 0 2.67-.68 4.64-2.04 5.9-1.37 1.27-3.32 1.9-5.87 1.9h-3.11v-15.47z"/>
  <path fill="#fff" fill-rule="evenodd" d="M0 198h396V0H0v198zm2-2h392V2H2v194z"/>
  <path fill="#fff" fill-rule="evenodd" d="M113.118 32.516l-2.646 7.652h-.02l-2.574-7.652h-1.242l3.26 9.29-.235.81c-.36 1.19-.68 2-1.65 2-.41 0-.63-.072-.84-.144l-.11.972c.38.09.81.144 1.23.144 1.28 0 1.93-1.26 2.36-2.52l3.67-10.552h-1.18zm-11.483 8.427c-2.018 0-2.72-2.16-2.72-3.836 0-1.674.65-3.835 2.72-3.835 2.16 0 2.717 2.053 2.717 3.835 0 1.783-.557 3.836-2.717 3.836zm.18-8.643c-1.8 0-2.7 1.314-2.863 1.764h-.036v-5.87H97.78V41.7h1.136v-1.46h.036c.612 1.17 1.548 1.675 2.863 1.675 2.52 0 3.78-2.09 3.78-4.808 0-2.79-1.08-4.807-3.78-4.807zM86.3 40.943c-2.162 0-2.72-2.053-2.72-3.836 0-1.782.558-3.835 2.72-3.835 2.015 0 2.717 2.16 2.717 3.835 0 1.675-.702 3.836-2.718 3.836zm2.717-6.88h-.036c-.16-.45-1.06-1.763-2.86-1.763-2.7 0-3.78 2.017-3.78 4.807 0 2.72 1.26 4.808 3.78 4.808 1.32 0 2.25-.504 2.87-1.675h.04v1.46h1.14V28.194h-1.14v5.87zm-14.58 2.396c0-1.52 1.025-3.19 2.7-3.19 1.692 0 2.34 1.58 2.34 3.18h-5.042zm2.627-4.16c-2.322 0-3.87 2-3.87 4.8 0 2.75 1.134 4.81 4.177 4.81.85 0 1.88-.18 2.67-.51v-1.15c-.54.34-1.74.68-2.57.68-1.98 0-3.02-1.57-3.02-3.51h6.29v-.58c0-2.47-1.06-4.56-3.65-4.56zm-6.084 8.64c-.917 0-1.223-.69-1.223-1.52v-5.94h2.09v-.97h-2.09V29.9l-1.134.396v2.216h-1.8v.972h1.8v5.366c0 1.675.072 3.06 2.088 3.06.56 0 1.12-.142 1.39-.25l-.07-.936c-.32.125-.61.216-1.04.216zm-6.93-3.32c0 .99-.052 3.31-2.717 3.31-1.045 0-1.91-.45-1.91-1.66.002-2.02 2.34-2.22 4.304-2.22h.324v.56zm1.137-1.91c0-2.4-.956-3.42-3.224-3.42-.81 0-1.998.29-2.7.63v1.1c.846-.54 1.746-.76 2.7-.76 1.53 0 2.09.79 2.09 2.36l-.002.46h-.21c-2.38 0-5.65.14-5.65 3.22 0 .82.42 2.59 3.03 2.59 1.14 0 2.42-.6 2.92-1.7h.04v1.48h1.12c-.09-.63-.09-1.19-.09-1.93V35.7zm-10.3 5.98h1.135l.002-9.19H54.89v9.19zm.002-11.64h1.13v-1.51h-1.13v1.51zm-2.9 10.88c-.92 0-1.23-.69-1.23-1.52v-5.94h2.09v-.97h-2.09v-2.6l-1.14.39v2.21h-1.8v.97h1.8v5.36c0 1.67.07 3.06 2.09 3.06.55 0 1.11-.15 1.38-.25l-.08-.94c-.32.12-.61.21-1.04.21zm-7.09.75h1.13V32.5H44.9v9.19zm0-11.64h1.13v-1.51H44.9v1.51zm-5.98 2.24c-1.91 0-2.6 1.02-2.97 1.85h-.04V32.5h-1.1c.07.74.07 1.46.07 2.16v7.03h1.13v-5.08c0-1.53.64-3.35 2.71-3.35 1.56 0 2.18 1.12 2.18 2.847v5.59h1.13v-5.87c0-2.02-.86-3.53-3.13-3.53zm-8.07 9.4h1.24V29.13h-1.24V41.7z"/>
</svg>
