<svg id="Ebene_1" data-name="Ebene 1" xmlns="http://www.w3.org/2000/svg" viewBox="0 0 283.46 30.39"><defs><style>.cls-1{fill:#181715;}.cls-2{fill:#0053a0;}</style></defs><title>dps-footer</title><rect class="cls-1" y="29.13" width="283.46" height="1.26"/><path class="cls-2" d="M208.29,17.37l.33-2.9a13.61,13.61,0,0,0-4.21-.62A7.52,7.52,0,0,0,200.2,15a4.76,4.76,0,0,0-1.94,4.18,4.43,4.43,0,0,0,.35,1.85,4.89,4.89,0,0,0,.88,1.33,6.27,6.27,0,0,0,1.27.91,8.93,8.93,0,0,0,1.38.7,23.87,23.87,0,0,1,2.64,1.16,3.12,3.12,0,0,1,.89.76,2,2,0,0,1-.73,2.79,4.2,4.2,0,0,1-2.09.56,8.15,8.15,0,0,1-4-1.08l-.33,3.17c.84.2,1.58.36,2.23.48a11.32,11.32,0,0,0,2.29.2,8.38,8.38,0,0,0,4.66-1.23,4.64,4.64,0,0,0,1.94-4.09,5.61,5.61,0,0,0-.3-1.94,4.69,4.69,0,0,0-.89-1.33,4.92,4.92,0,0,0-1.23-1,10.07,10.07,0,0,0-1.41-.66l-1.39-.58a11.17,11.17,0,0,1-1.25-.55,4,4,0,0,1-.89-.68,1.35,1.35,0,0,1-.35-.94,2.36,2.36,0,0,1,.28-1.21,2.05,2.05,0,0,1,.67-.75,3,3,0,0,1,.91-.38,4.09,4.09,0,0,1,.91-.1,9.25,9.25,0,0,1,3.58.75m7.76,14.37h3.53V16.92h5V14.15H211v2.77h5Zm10.51,0h3.53V14.15h-3.53Zm7.31,0h3.53V24h5.95V21.26H237.4V16.92h6.25V14.15h-9.78Zm15.8,0h3.53V16.92h5V14.15h-13.6v2.77h5Zm10.69-6.36q.11,6.77,7.18,6.66,7.09.1,7.19-6.66V14.15h-3.54V24.3a6.76,6.76,0,0,1-.8,3.58,3.59,3.59,0,0,1-5.67,0,6.31,6.31,0,0,1-.83-3.58V14.15h-3.53Zm18.14,6.36h3.38V18.58h.05l6.73,13.16H293V14.15h-3.38V27.3h0l-6.7-13.15H278.5Zm32.12-14.19.22-3a17.53,17.53,0,0,0-5.17-.72q-9.46.09-9.65,9.4,0,4.45,2.72,6.6A10.39,10.39,0,0,0,305.67,32a20.67,20.67,0,0,0,5.7-.9V21.66h-7.11v2.77H308V29a8.58,8.58,0,0,1-2.32.25,5.53,5.53,0,0,1-4.38-1.82A6.28,6.28,0,0,1,299.71,23a6.46,6.46,0,0,1,1.66-4.57,6.1,6.1,0,0,1,4.71-1.81,11.67,11.67,0,0,1,4.54.93" transform="translate(-27.91 -12.84)"/><path class="cls-1" d="M30.43,16.36h2.94a7,7,0,0,1,2.54.45,5.83,5.83,0,0,1,2,1.28,6,6,0,0,1,1.36,2.06,7.16,7.16,0,0,1,.49,2.74c0,2.27-.58,3.95-1.74,5a7,7,0,0,1-5,1.61H30.43ZM27.91,31.74H33.1a12.44,12.44,0,0,0,3.9-.57,7.66,7.66,0,0,0,3-1.69,7.42,7.42,0,0,0,1.87-2.79,10.61,10.61,0,0,0,.65-3.89,8.65,8.65,0,0,0-.73-3.65,7.75,7.75,0,0,0-2-2.71,9.07,9.07,0,0,0-3-1.7,11,11,0,0,0-3.67-.59H27.91Zm19.78-7.66A6.37,6.37,0,0,1,48,22.82a3.69,3.69,0,0,1,.63-1.15,3.39,3.39,0,0,1,1-.84,3.21,3.21,0,0,1,1.51-.33,3.11,3.11,0,0,1,1.35.28,2.67,2.67,0,0,1,1,.76,3.49,3.49,0,0,1,.62,1.16,4.43,4.43,0,0,1,.21,1.38Zm8.19,4.76a4.23,4.23,0,0,1-.64.41,6.15,6.15,0,0,1-1,.41,8.84,8.84,0,0,1-1.16.33,5.59,5.59,0,0,1-1.19.14,4.15,4.15,0,0,1-1.6-.32A4.15,4.15,0,0,1,48,27.58a4.43,4.43,0,0,1-.34-1.74h9.17A13.77,13.77,0,0,0,56.58,23a6.55,6.55,0,0,0-.95-2.3,4.6,4.6,0,0,0-1.74-1.53,5.86,5.86,0,0,0-2.69-.56,6.29,6.29,0,0,0-2.47.48,5.53,5.53,0,0,0-1.91,1.35,6.15,6.15,0,0,0-1.22,2.06,7.52,7.52,0,0,0-.43,2.61,9.71,9.71,0,0,0,.4,2.85,6,6,0,0,0,1.22,2.2,5.64,5.64,0,0,0,2.08,1.41,8,8,0,0,0,3,.5,11.51,11.51,0,0,0,1.4-.08c.41-.07.77-.14,1.08-.22a8.75,8.75,0,0,0,.85-.26l.73-.27Zm15.53-9.95H69v5.95A9.51,9.51,0,0,1,68.81,27a4.92,4.92,0,0,1-.7,1.66,3.31,3.31,0,0,1-1.23,1.09,3.7,3.7,0,0,1-1.75.39A2.37,2.37,0,0,1,63,28.91a7.47,7.47,0,0,1-.58-3.37V18.89H60v7.63a6.37,6.37,0,0,0,1.16,4.06A4.36,4.36,0,0,0,64.85,32a5.17,5.17,0,0,0,2.52-.62,3.66,3.66,0,0,0,1.69-1.72h0v2h2.3Zm10.86,0h-3.4V15.16l-2.37.75v3H73.6V20.8h2.9v7.51a3.51,3.51,0,0,0,1.06,2.84,4.38,4.38,0,0,0,2.89.89,5.47,5.47,0,0,0,1.1-.11c.35-.08.65-.16.92-.24v-2a3,3,0,0,1-.67.32,2.86,2.86,0,0,1-.94.14,1.93,1.93,0,0,1-1.4-.58,2.28,2.28,0,0,1-.59-1.71v-7h3.4Zm1.89,12.45a5.19,5.19,0,0,0,1.72.56,12.16,12.16,0,0,0,1.81.14,5.8,5.8,0,0,0,1.66-.24,4.26,4.26,0,0,0,1.44-.73,3.57,3.57,0,0,0,1-1.25A4,4,0,0,0,92.18,28a3.05,3.05,0,0,0-.42-1.68,3.87,3.87,0,0,0-1-1.1,7.35,7.35,0,0,0-1.34-.76c-.48-.21-.92-.42-1.34-.63a3.8,3.8,0,0,1-1-.73,1.42,1.42,0,0,1-.41-1.07,1.24,1.24,0,0,1,.68-1.18,3.21,3.21,0,0,1,1.58-.38,4.61,4.61,0,0,1,.55.05,6.79,6.79,0,0,1,.7.15l.71.22a2.29,2.29,0,0,1,.54.24l.2-2.07c-.47-.14-.94-.25-1.41-.35a7.36,7.36,0,0,0-1.54-.16,6.79,6.79,0,0,0-1.79.24,4.13,4.13,0,0,0-1.43.74,3.26,3.26,0,0,0-1,1.23,4,4,0,0,0-.36,1.75,2.56,2.56,0,0,0,.42,1.51,4.32,4.32,0,0,0,1,1.06,7.11,7.11,0,0,0,1.34.78c.48.22.92.45,1.34.67a5.35,5.35,0,0,1,1,.74,1.32,1.32,0,0,1,.42,1,1.63,1.63,0,0,1-.23.89,1.75,1.75,0,0,1-.58.57,2.63,2.63,0,0,1-.78.3,4.14,4.14,0,0,1-.84.09,5.29,5.29,0,0,1-.61-.05c-.24,0-.5-.09-.77-.16a6.64,6.64,0,0,1-.81-.3,5,5,0,0,1-.76-.4Zm19.25-12.25a6.48,6.48,0,0,0-1.32-.35,8.68,8.68,0,0,0-1.55-.16,6.78,6.78,0,0,0-2.68.51,6.21,6.21,0,0,0-2.07,1.4,6.13,6.13,0,0,0-1.34,2.13A7.56,7.56,0,0,0,94,25.31a7,7,0,0,0,.48,2.61,6.49,6.49,0,0,0,1.35,2.14,6.15,6.15,0,0,0,2.06,1.45,6.58,6.58,0,0,0,2.66.53c.44,0,.92,0,1.45-.08a4.76,4.76,0,0,0,1.52-.45l-.17-2.11a4.87,4.87,0,0,1-1.25.54,5.17,5.17,0,0,1-1.3.19,4.13,4.13,0,0,1-2-.43,3.74,3.74,0,0,1-1.33-1.12A4.67,4.67,0,0,1,96.75,27a6.43,6.43,0,0,1-.24-1.72,5.6,5.6,0,0,1,.28-1.77,4.85,4.85,0,0,1,.8-1.55,4,4,0,0,1,1.3-1.09,3.7,3.7,0,0,1,1.75-.4,6.2,6.2,0,0,1,1.24.14,7.27,7.27,0,0,1,1.33.42Zm2.83,12.65h2.37V25.79a9.57,9.57,0,0,1,.22-2.14,4.93,4.93,0,0,1,.71-1.68,3.34,3.34,0,0,1,1.22-1.08,3.75,3.75,0,0,1,1.76-.39,2.4,2.4,0,0,1,2.14,1.21,7.67,7.67,0,0,1,.58,3.37v6.66h2.36V24.1a6.36,6.36,0,0,0-1.15-4.05,4.4,4.4,0,0,0-3.66-1.47,5.14,5.14,0,0,0-2.42.56,4.49,4.49,0,0,0-1.71,1.59h0V12.84h-2.37Zm17.06-7.66a6.37,6.37,0,0,1,.29-1.26,3.69,3.69,0,0,1,.63-1.15,3.32,3.32,0,0,1,1-.84,3.07,3.07,0,0,1,1.49-.33,3.12,3.12,0,0,1,1.36.28,2.75,2.75,0,0,1,1,.76,3.49,3.49,0,0,1,.62,1.16,4.43,4.43,0,0,1,.22,1.38Zm8.19,4.76a4.23,4.23,0,0,1-.64.41,6.15,6.15,0,0,1-1,.41,9.3,9.3,0,0,1-1.16.33,5.59,5.59,0,0,1-1.19.14,4.24,4.24,0,0,1-1.61-.32,4.36,4.36,0,0,1-1.36-.88,4.19,4.19,0,0,1-1.27-3.09h9.17a13.11,13.11,0,0,0-.29-2.87,6.36,6.36,0,0,0-.94-2.3,4.6,4.6,0,0,0-1.74-1.53,5.87,5.87,0,0,0-2.7-.56,6.36,6.36,0,0,0-2.47.48,5.49,5.49,0,0,0-1.9,1.35,6,6,0,0,0-1.22,2.06,7.52,7.52,0,0,0-.43,2.61,9.39,9.39,0,0,0,.4,2.85,6,6,0,0,0,1.22,2.2,5.68,5.68,0,0,0,2.07,1.41,8,8,0,0,0,3,.5,11.59,11.59,0,0,0,1.39-.08c.41-.07.78-.14,1.09-.22s.59-.17.84-.26l.73-.27Zm11.24,2.9h2.52v-7h2.47a9.37,9.37,0,0,0,2.31-.28,5.93,5.93,0,0,0,2-.9,4.69,4.69,0,0,0,1.4-1.65,5.26,5.26,0,0,0,.53-2.46,5.41,5.41,0,0,0-.53-2.52A4.38,4.38,0,0,0,152,15.28a6.2,6.2,0,0,0-2.1-.87,12.2,12.2,0,0,0-2.56-.26h-4.61Zm2.52-15.38h2.15a5.48,5.48,0,0,1,1.26.17,4.19,4.19,0,0,1,1.25.52,3.1,3.1,0,0,1,1,.93,2.48,2.48,0,0,1,.38,1.41,3,3,0,0,1-.32,1.48,2.75,2.75,0,0,1-.85.94,3.48,3.48,0,0,1-1.14.52,4.74,4.74,0,0,1-1.21.16h-2.5Zm13.36,7.18A5,5,0,0,1,159.4,22a3.91,3.91,0,0,1,1.27-1.09,3.77,3.77,0,0,1,3.38,0A3.59,3.59,0,0,1,165.31,22a5.27,5.27,0,0,1,.79,1.55,5.89,5.89,0,0,1,.27,1.77,6.43,6.43,0,0,1-.24,1.72,5,5,0,0,1-.73,1.55,3.74,3.74,0,0,1-1.25,1.12,3.48,3.48,0,0,1-1.78.43,3.6,3.6,0,0,1-1.82-.43,3.84,3.84,0,0,1-1.25-1.12,5,5,0,0,1-.73-1.55,6.43,6.43,0,0,1-.24-1.72,5.6,5.6,0,0,1,.28-1.77m-2.32,4.38a6.49,6.49,0,0,0,1.35,2.14,6.19,6.19,0,0,0,2.07,1.45,6.89,6.89,0,0,0,5.3,0,6,6,0,0,0,2.07-1.45,6.81,6.81,0,0,0,1.34-2.14,7.24,7.24,0,0,0,.47-2.61,7.56,7.56,0,0,0-.46-2.69,6,6,0,0,0-1.33-2.13,6.07,6.07,0,0,0-2.06-1.4,7.3,7.3,0,0,0-5.36,0,6.21,6.21,0,0,0-2.07,1.4,6,6,0,0,0-1.33,2.13,7.56,7.56,0,0,0-.47,2.69,7,7,0,0,0,.48,2.61M171,31.34a5.06,5.06,0,0,0,1.71.56,12.26,12.26,0,0,0,1.81.14,5.75,5.75,0,0,0,1.66-.24,4.4,4.4,0,0,0,1.45-.73,3.44,3.44,0,0,0,1-1.25A4,4,0,0,0,179,28a3.05,3.05,0,0,0-.42-1.68,3.74,3.74,0,0,0-1-1.1,6.74,6.74,0,0,0-1.34-.76c-.47-.21-.92-.42-1.33-.63a3.65,3.65,0,0,1-1-.73,1.42,1.42,0,0,1-.42-1.07,1.26,1.26,0,0,1,.68-1.18,3.22,3.22,0,0,1,1.59-.38,4.66,4.66,0,0,1,.54.05,7,7,0,0,1,.71.15c.24.07.48.14.7.22a2,2,0,0,1,.54.24l.2-2.07c-.47-.14-.93-.25-1.41-.35a7.33,7.33,0,0,0-1.53-.16,6.79,6.79,0,0,0-1.79.24,4.09,4.09,0,0,0-1.44.74,3.47,3.47,0,0,0-1,1.23,4.14,4.14,0,0,0-.35,1.75,2.64,2.64,0,0,0,.41,1.51,4.36,4.36,0,0,0,1,1.06,7.11,7.11,0,0,0,1.34.78c.47.22.92.45,1.33.67a5.06,5.06,0,0,1,1,.74,1.32,1.32,0,0,1,.42,1,1.63,1.63,0,0,1-.23.89,1.67,1.67,0,0,1-.58.57,2.44,2.44,0,0,1-.78.3,4,4,0,0,1-.83.09,5.45,5.45,0,0,1-.62-.05c-.24,0-.5-.09-.77-.16a6.5,6.5,0,0,1-.8-.3,5,5,0,0,1-.76-.4ZM188.7,18.89h-3.4V15.16l-2.37.75v3H180V20.8h2.9v7.51A3.54,3.54,0,0,0,184,31.15a4.37,4.37,0,0,0,2.9.89,5.44,5.44,0,0,0,1.09-.11c.35-.08.66-.16.92-.24v-2a2.9,2.9,0,0,1-.66.32,2.93,2.93,0,0,1-1,.14,1.93,1.93,0,0,1-1.4-.58,2.32,2.32,0,0,1-.59-1.71v-7h3.4Z" transform="translate(-27.91 -12.84)"/></svg>
