<svg id="Ebene_1" data-name="Ebene 1" xmlns="http://www.w3.org/2000/svg" xmlns:xlink="http://www.w3.org/1999/xlink" viewBox="0 0 215.25 331.27"><defs><style>.cls-1,.cls-9{fill:none;}.cls-2{clip-path:url(#clip-path);}.cls-3{fill:#7a8d88;}.cls-4{fill:#ef8545;}.cls-5{fill:#f2b15d;}.cls-6{fill:#c3d9c3;}.cls-7{fill:#6d4a4d;}.cls-8{fill:#2a3b49;}.cls-9{stroke:#1a171b;stroke-miterlimit:10;stroke-width:1.25px;}</style><clipPath id="clip-path"><rect class="cls-1" x="-226.61" y="-188.84" width="708.94" height="708.94"/></clipPath></defs><g class="cls-2"><path class="cls-3" d="M121.12,177.05,182.5,70.73a122.82,122.82,0,0,0-61.38-16.44Z"/><path class="cls-4" d="M121.12,177.05Q75.54,239.77,30,302.5a155.12,155.12,0,0,0,74.94,28.77q8.1-77.11,16.21-154.22"/><path class="cls-5" d="M121.12,177.05l-104-27.86a107.65,107.65,0,0,0,0,55.72l104-27.86"/><path class="cls-6" d="M121.12,177.05l94.69-5a94.77,94.77,0,0,0-15.17-46.69l-79.52,51.65"/><path class="cls-7" d="M121.12,177.05l19.53,50.89a54.51,54.51,0,0,0,22.83-16.58l-42.36-34.31"/><path class="cls-8" d="M121.12,177.05Q102.29,88.52,83.48,0A180.93,180.93,0,0,0,0,42.54L121.12,177.05"/></g><g class="cls-2"><rect class="cls-9" x="-243.35" y="-212.01" width="755.29" height="755.29"/></g></svg>