<svg xmlns="http://www.w3.org/2000/svg" width="330" height="330" xmlns:xlink="http://www.w3.org/1999/xlink" viewBox="0 0 330 330">
  <defs>
    <path id="a" d="M0 287h286.66V.34H0z"/>
  </defs>
  <g fill="none" fill-rule="evenodd">
    <path stroke="#0053a0" stroke-width="6.916" d="M165 326.542c89.214 0 161.542-72.326 161.542-161.542C326.542 75.78 254.214 3.458 165 3.458 75.784 3.458 3.458 75.78 3.458 165c0 89.216 72.326 161.542 161.542 161.542z"/>
    <path fill="#b7bac3" d="M43.09 80.022l28.097 19.476-2.513 3.627-28.097-19.48m33.803 6.48L68.57 57.02l-.11-.115L56.05 69.02l-2.586-2.652 16.513-16.113 1.878 1.925 5.812 32.96.104.104 13.69-13.36 2.59 2.652-17.86 17.44"/>
    <g transform="translate(-.207 -.6) scale(1.15264)">
      <path fill="#b7bac3" d="M94.098 43.525l-6.4-6.353c-1.453-1.44-2.63-2.82-3.788-4.16l-.08.038c.39 1.772.76 3.604 1.05 5.473l1.218 8.978 8-3.97zm-7.378 7.008l1.394 9.725-3.547 1.763-4.175-31.04 4.138-2.05 22.263 22.06-3.665 1.82-6.99-6.94-9.418 4.68zm46.695-20.785c.845.188 1.903.236 3.178.187 4.618-.175 7.346-2.525 7.19-6.615-.147-3.913-2.99-5.698-7.21-5.538-1.673.063-2.942.243-3.595.444l.437 11.522zM129.047 15.6c1.835-.376 4.243-.732 7.32-.85 3.783-.143 6.587.63 8.406 2.147 1.68 1.346 2.73 3.463 2.83 6.1.102 2.684-.61 4.826-2.045 6.42-1.942 2.233-5.198 3.457-8.936 3.6-1.144.043-2.2.038-3.088-.147l.45 11.873-3.825.146-1.12-29.29zm34.35 14.63l3.805.926c3.976.97 7.03-.596 7.834-3.887.907-3.72-1.39-6-5.313-7.01-1.796-.44-3.12-.58-3.76-.56l-2.566 10.51zm-.517-14.036c1.975.075 4.72.518 7.286 1.145 3.976.97 6.363 2.32 7.763 4.38 1.14 1.64 1.47 3.8.92 6.02-.93 3.8-3.94 5.74-7.23 6.03l-.03.12c2.03 1.31 2.86 3.69 2.81 6.84-.04 4.25-.04 7.19.29 8.45l-3.85-.94c-.28-.93-.31-3.57-.25-7.36.11-4.18-1.06-6.06-4.41-7.01l-3.51-.86-3.05 12.48-3.72-.91 6.94-28.43zm36.136 11.204l-12.548 26.875-3.47-1.62 12.55-26.873m-.475 29.716l27.707-9.09.08-.105-11.943-9.15 1.954-2.55 15.9 12.18-1.42 1.86-27.58 9.07-.08.11 13.16 10.09-1.95 2.55-17.19-13.18m42.09 20.84l-7.23-8.98-8.33 6.71 8.06 10.01-2.5 2.02-10.46-12.99 23.1-18.6 10.05 12.47-2.5 2.02-7.64-9.49-7.3 5.88 7.23 8.98M43.8 187.3l-16.012 7.12-.92-2.065 16.013-7.122m-12.64 14.904l15.14-8.827 1.25 2.133-4.83 9.32c-1.12 2.157-2.2 3.963-3.33 5.585l.05.033c1.92-1.36 3.73-2.47 6.09-3.85l6.34-3.69 1.08 1.85-15.14 8.83-1.15-1.97 4.88-9.28c1.07-2.04 2.21-4.05 3.41-5.77l-.06-.05c-1.84 1.22-3.63 2.33-6.15 3.8l-6.47 3.76-1.07-1.84zm28.8 12.193l1.52 1.68-11.62 10.44 5.01 5.57-1.41 1.27-6.52-7.254m20.86 10.654l1.98-4.944c.45-1.123.93-2.082 1.39-3.022l-.04-.033c-.87.62-1.78 1.25-2.73 1.84l-4.6 2.74 4.01 3.44zm-5.51-2.39l-4.96 3-1.78-1.52 15.92-9.443 2.07 1.776-6.85 17.203-1.84-1.572 2.17-5.406-4.72-4.04zm16.94 7.644l1.75 1.08c2.04 1.255 3.89.928 4.77-.512 1.08-1.747.17-3.25-1.77-4.452-.88-.544-1.43-.792-1.78-.917l-2.96 4.805zm-4.4 7.154c.34.298.88.66 1.56 1.084 1.99 1.23 4.27 1.63 5.61-.54 1.26-2.037.02-3.957-2.08-5.25l-1.59-.983-3.5 5.69zm6.24-14.448c.95.34 2.36 1.025 3.71 1.86 1.92 1.184 2.96 2.28 3.42 3.605.42 1.056.34 2.228-.38 3.4-.88 1.44-2.61 2.116-4.54 1.72l-.03.048c1.2 1.226 2.14 3.423.77 5.636-.79 1.28-1.9 1.94-3.1 2.21-1.62.31-3.58-.28-6.01-1.78-1.32-.82-2.29-1.54-2.88-2.02l9.04-14.68zm10.41 16.177c-1.48 3.44-.94 7.32 2.33 8.73 3.3 1.417 6.47-.814 8.04-4.468 1.38-3.2 1.14-7.27-2.32-8.76-3.44-1.48-6.53.96-8.05 4.49m12.61 5.11c-2.38 5.54-7.01 7.03-11.12 5.26-4.25-1.83-5.82-6.41-3.72-11.29 2.2-5.12 6.82-7.09 11.12-5.24 4.4 1.89 5.79 6.48 3.73 11.26m7.11 1.88l2.25.56c2.34.59 4.15-.33 4.64-2.27.55-2.2-.8-3.56-3.11-4.16-1.06-.27-1.84-.36-2.22-.35l-1.55 6.2zm-.25-8.3c1.17.05 2.79.32 4.3.7 2.35.59 3.75 1.4 4.57 2.62.67.97.86 2.25.53 3.56-.56 2.24-2.35 3.38-4.29 3.53l-.02.07c1.2.78 1.68 2.19 1.64 4.06-.04 2.51-.05 4.25.14 4.99l-2.27-.57c-.16-.55-.17-2.11-.12-4.35.08-2.48-.6-3.59-2.58-4.16l-2.06-.52-1.84 7.37-2.19-.55 4.2-16.78zm30.46 14.08l-6.8-.31-.28 6.31 7.59.33-.08 1.89-9.84-.44.78-17.51 9.46.42-.08 1.89-7.19-.32-.24 5.53 6.81.3m18.44 8.63c-.8.48-2.42 1.03-4.55 1.21-4.92.41-8.88-2.4-9.35-8.12-.45-5.47 2.95-9.48 8.37-9.93 2.18-.18 3.59.17 4.21.43l-.39 1.88c-.89-.35-2.14-.56-3.59-.44-4.09.34-6.59 3.18-6.22 7.77.36 4.27 3.04 6.82 7.29 6.47 1.38-.12 2.75-.52 3.62-1.03l.62 1.75zm4.22-8.64c.87 3.64 3.62 6.44 7.08 5.61 3.49-.83 4.7-4.51 3.78-8.39-.8-3.39-3.41-6.51-7.08-5.64-3.64.86-4.66 4.66-3.77 8.41m13.16-3.42c1.39 5.87-1.44 9.82-5.79 10.86-4.5 1.07-8.49-1.67-9.72-6.83-1.28-5.41 1.24-9.75 5.79-10.84 4.66-1.11 8.51 1.74 9.72 6.8m8.38 6.73l-6.73-16.18 2.28-.95 8.59 6.03c1.99 1.39 3.63 2.71 5.09 4.05l.04-.05c-1.09-2.08-1.96-4.03-3.01-6.55l-2.81-6.77 1.97-.82 6.73 16.18-2.11.88-8.55-6.07c-1.88-1.33-3.73-2.73-5.27-4.15l-.06.05c.97 1.99 1.82 3.91 2.94 6.6l2.88 6.91-1.97.82zm15-16.03c2.01 3.16 5.51 4.91 8.52 3.01 3.03-1.92 2.98-5.8.86-9.16-1.86-2.95-5.35-5.05-8.53-3.03-3.16 2-2.9 5.93-.84 9.18m11.34-7.51c3.22 5.09 1.84 9.76-1.94 12.15-3.91 2.47-8.58 1.18-11.41-3.3-2.98-4.71-2-9.63 1.96-12.13 4.05-2.56 8.62-1.12 11.4 3.28m15.8-11.75c-1.77-1.69-3.9-3.73-5.38-5.33l-.06.05c.97 1.9 1.94 3.99 2.96 6.36l3.58 8.31-1.25 1.18-7.78-4.13c-2.29-1.23-4.36-2.39-6.14-3.57l-.03.04c1.46 1.62 3.38 3.85 5.06 5.87l4.81 5.79-1.57 1.48-11.2-13.55 2.1-1.98 7.99 4.12c2.01 1.07 3.76 2.06 5.33 3.08l.06-.06c-.89-1.59-1.75-3.42-2.7-5.56l-3.54-8.31 2.1-1.98 12.81 12.01-1.61 1.51-5.6-5.3zm.61-15.41l13.59 11.07-1.43 1.75L226.19 214m25.28-5.99c-.114.92-.69 2.54-1.876 4.31-2.75 4.11-7.4 5.47-12.19 2.288-4.567-3.04-5.59-8.2-2.58-12.72 1.21-1.816 2.37-2.703 2.96-3.03l1.23 1.48c-.82.484-1.76 1.33-2.57 2.54-2.28 3.414-1.61 7.14 2.22 9.7 3.57 2.38 7.233 1.85 9.6-1.696.763-1.143 1.31-2.47 1.44-3.47l1.75.61zm.25-4.993c1.01-.64 2.125-1.74 2.81-3.14 1.02-2.08.514-3.83-1.075-4.607-1.47-.72-2.72-.29-4.58 1.44-2.17 2.12-4.28 3.06-6.5 1.977-2.45-1.2-3.27-4.12-1.78-7.18.79-1.61 1.74-2.595 2.48-3.1l1.38 1.37c-.53.38-1.51 1.2-2.21 2.623-1.05 2.15-.17 3.595.91 4.12 1.47.72 2.66.12 4.57-1.644 2.33-2.16 4.27-2.89 6.59-1.75 2.43 1.19 3.65 4.01 1.83 7.73-.75 1.52-2 2.96-2.97 3.53l-1.46-1.35z"/>
      <mask id="b" fill="white">
        <use width="100%" height="100%" xlink:href="#a"/>
      </mask>
      <path fill="#0053a0" d="M58.29 130.08h4.98v-22.746h-4.98m26.162 0v3.038H97.17l-13.535 17.696v2.013h19.572l.55-3.03H90.18l13.47-17.73v-1.97m29.233 4.67l3.17 8.6h-6.65l3.48-8.59zm-.818-4.67l-10.88 22.75h4.366l2.73-6.78h8.8l2.53 6.79h5.49l-9.34-22.74h-3.68zM58.29 164.18h170.08v-1H58.29" mask="url(#b)"/>
    </g>
    <path fill="#0053a0" d="M72.662 166.617c3.386 0 5.657 2.447 5.657 5.832 0 3.19-2.32 5.83-5.66 5.83-3.37 0-5.68-2.65-5.68-5.84 0-3.39 2.27-5.84 5.68-5.84m0 10c2.4 0 3.47-2.19 3.47-4.18 0-2.12-1.29-4.17-3.48-4.17-2.22 0-3.51 2.05-3.51 4.17 0 1.99 1.06 4.17 3.49 4.17m9.74-8.09h-2.61v-1.66h2.61v-1.03c0-2.71.69-4.48 3.73-4.48.52 0 .95.07 1.37.13l-.1 1.65c-.25-.1-.64-.13-.98-.13-1.78 0-2 1.13-2 2.64v1.19h2.96v1.66H84.4v9.5h-2.05v-9.49zm13.4-5.77h2.18v13.33h6.37V178H95.8m11.273-10.35c1.025-.61 2.25-1.05 3.67-1.05 3.187 0 4.476 1.58 4.476 4.61v4.61c0 1.28.04 1.87.09 2.19h-1.93v-1.44h-.05c-.48.68-1.57 1.708-3.45 1.708-2.41 0-4.09-1.05-4.09-3.47 0-2.79 3.05-3.666 5.17-3.666.8 0 1.37 0 2.18.045 0-1.923-.71-2.903-2.76-2.903-1.15 0-2.41.436-3.24 1.14l-.11-1.74zm6.093 5.05c-.44 0-.878-.046-1.314-.046-1.117 0-3.872.17-3.872 2.144 0 1.186 1.13 1.81 2.073 1.81 2.03 0 3.1-1.27 3.1-2.93v-.98zm5.523-11.077h2.05v6.775h.04c.63-1.03 1.75-1.79 3.69-1.79 3.24 0 4.8 2.65 4.8 5.635 0 3.065-1.42 6.04-4.79 6.04-1.99 0-3.25-1.004-3.8-1.834h-.04v1.58h-1.96v-16.39zm5.35 6.64c-2.23 0-3.3 2.12-3.3 4.193 0 1.87.96 4.15 3.27 4.15 2.2 0 3.12-2.466 3.08-4.207.04-2.01-.83-4.13-3.06-4.13zm12.93-1.66c3.38 0 5.65 2.452 5.65 5.83 0 3.192-2.32 5.843-5.66 5.843-3.37 0-5.67-2.64-5.67-5.83 0-3.38 2.27-5.83 5.68-5.83m0 10c2.41 0 3.48-2.18 3.48-4.173 0-2.11-1.28-4.17-3.47-4.17-2.2 0-3.5 2.065-3.5 4.17 0 1.998 1.07 4.177 3.49 4.177m8.41-9.74h1.91v1.73h.04c.54-1.153 1.72-1.983 2.9-1.983.61 0 .92.07 1.35.16v1.846c-.37-.15-.79-.194-1.14-.194-1.84 0-3.03 1.75-3.03 4.54v5.07h-2.05v-11.14zm14.87-4.102h8.54v1.928h-6.35v4.46h5.78v1.923h-5.79v5.04h6.36v1.92h-8.55m18.91-9.26c-.79-.32-1.57-.48-2.23-.48-2.3 0-3.58 2.05-3.58 4.17 0 1.98 1.07 4.17 3.71 4.17.7 0 1.58-.22 2.21-.64l.16 1.83c-.86.39-1.83.46-2.58.46-3.37 0-5.69-2.65-5.69-5.84 0-3.39 2.28-5.83 5.68-5.83.83 0 1.9.2 2.49.43l-.18 1.71zm7.56-2.14c3.39 0 5.66 2.45 5.66 5.83 0 3.19-2.32 5.84-5.66 5.84-3.37 0-5.68-2.65-5.68-5.83 0-3.39 2.28-5.84 5.68-5.84m0 10c2.41 0 3.48-2.19 3.48-4.17 0-2.12-1.29-4.18-3.47-4.18-2.2 0-3.49 2.05-3.49 4.17 0 1.98 1.07 4.17 3.5 4.17m8.4-9.75h1.99v1.77h.04c.61-1.27 2.09-2.03 3.64-2.03 2.88 0 4.17 1.79 4.17 4.78v6.62h-2v-5.76c0-2.6-.57-3.86-2.36-3.98-2.34 0-3.38 1.88-3.38 4.59v5.16h-2.05V166.9zm18.28-.27c3.39 0 5.66 2.45 5.66 5.84 0 3.18-2.32 5.83-5.66 5.83-3.37 0-5.67-2.65-5.67-5.84 0-3.39 2.27-5.83 5.68-5.83m0 10.01c2.41 0 3.48-2.19 3.48-4.17 0-2.12-1.29-4.17-3.47-4.17-2.2 0-3.49 2.05-3.49 4.17 0 1.98 1.07 4.17 3.49 4.17m8.39-9.75h1.92v1.61h.04c.79-1.29 1.9-1.89 3.54-1.89 1.29 0 2.58.66 3.17 2.16.76-1.59 2.44-2.17 3.45-2.17 2.85 0 3.87 1.83 3.87 4.25V178h-2.05v-6.65c0-1.37-.327-3.1-1.987-3.1-2.097 0-2.926 2.05-2.926 4.124V178h-2.06v-6.65c0-1.383-.32-3.1-2-3.1-2.084 0-2.914 2.05-2.914 4.12V178h-2.05v-11.15zm19.57-2.49h2.32v-2.32h-2.32v2.32zm.13 13.63h2.05V166.9h-2.05v11.144zm12.88-9.26c-.79-.33-1.57-.49-2.23-.49-2.29 0-3.57 2.05-3.57 4.17 0 1.98 1.07 4.17 3.72 4.17.69 0 1.57-.22 2.2-.63l.15 1.83c-.85.39-1.83.46-2.58.46-3.35 0-5.67-2.64-5.67-5.84 0-3.38 2.27-5.83 5.68-5.83.83 0 1.9.2 2.49.44l-.18 1.7zm1.78 7.07c.81.53 1.97.79 2.56.79.93 0 2.1-.39 2.1-1.59 0-2.03-4.83-1.86-4.83-4.98 0-2.32 1.73-3.43 3.93-3.43.95 0 1.74.19 2.56.44l-.18 1.79c-.46-.28-1.68-.56-2.17-.56-1.04 0-1.96.44-1.96 1.35 0 2.27 4.84 1.61 4.84 5.17 0 2.39-1.9 3.48-3.89 3.48-1.05 0-2.12-.11-3.05-.61l.11-1.84zm-74.58-26.82h2.17V133.9h-2.17m5.83 4.077h1.97v1.75h.03c.61-1.26 2.08-2.02 3.62-2.02 2.85 0 4.13 1.78 4.13 4.74v6.56h-2.04v-5.72c0-2.58-.56-3.84-2.33-3.94-2.31 0-3.35 1.86-3.35 4.54V149h-2.04v-11.04zm12.41 8.88c.8.51 1.95.77 2.54.77.93 0 2.07-.39 2.07-1.58 0-2.017-4.78-1.844-4.78-4.945 0-2.295 1.7-3.4 3.89-3.4.95 0 1.73.2 2.53.44l-.18 1.775c-.45-.28-1.67-.56-2.14-.56-1.04 0-1.95.43-1.95 1.34 0 2.25 4.79 1.6 4.79 5.13 0 2.36-1.89 3.44-3.86 3.44-1.04 0-2.1-.104-3.03-.602l.1-1.82zm15.12-7.24h-2.93v6.04c0 1.28.78 1.97 1.7 1.97.624 0 1.08-.19 1.38-.39V149c-.45.13-1.08.303-1.73.303-2.1 0-3.4-.995-3.4-3.204v-6.46h-2.49V138h2.5v-2.555l2.03-.645v3.204H215v1.648zm2.68-4.113h2.3v-2.295h-2.3v2.3zm.13 13.51h2.04v-11.05h-2.04v11.046zm11.63-9.4h-2.92v6.04c0 1.28.78 1.97 1.71 1.97.62 0 1.08-.2 1.38-.39V149c-.45.137-1.09.31-1.73.31-2.11 0-3.4-.99-3.4-3.204v-6.456H222v-1.647h2.49v-2.56l2.025-.644v3.2h2.93v1.64zm12.32 9.4h-1.96v-1.75h-.05c-.61 1.26-2.084 2.02-3.62 2.02-2.86 0-4.14-1.77-4.14-4.735V138H234v5.72c0 2.58.56 3.832 2.336 3.94 2.31 0 3.36-1.87 3.36-4.557V138h2.04v11.054zm9.35-9.392h-2.92v6.04c0 1.28.78 1.97 1.71 1.97.63 0 1.09-.195 1.39-.39V149c-.46.14-1.09.31-1.74.31-2.1 0-3.4-.99-3.4-3.205v-6.452h-2.49v-1.65h2.49v-2.558l2.04-.647v3.2h2.93v1.647zm11.03 8.945c-.78.29-1.67.718-3.49.718-3.92 0-5.72-2.39-5.72-5.97 0-3.276 2.06-5.59 5.17-5.59 3.683 0 4.872 2.683 4.872 6.233h-7.88c0 2.19 1.714 3.69 3.64 3.69 1.34 0 2.9-.7 3.4-1.11v2.04zm-1.32-6.12c0-1.68-1-3.063-2.75-3.063-2 0-2.82 1.65-2.97 3.08h5.71zm-193.9 61.93H68v-7.763h-1.1m2.99 2.09h1.016v.9H71c.31-.645 1.07-1.04 1.854-1.04 1.47 0 2.127.91 2.127 2.43v3.37h-1.04v-2.94c0-1.33-.29-1.97-1.2-2.03-1.19 0-1.72.952-1.72 2.34v2.612h-1.04v-5.68zm6.87-1.27H78v-1.19h-1.17v1.18zm.07 6.94h1.05v-5.68h-1v5.67zm5.975-4.83h-1.5v3.1c0 .66.4 1.01.88 1.01.312 0 .55-.1.702-.2v.883c-.24.07-.56.15-.89.15-1.08 0-1.75-.52-1.75-1.65v-3.32H79v-.85h1.28v-1.31l1.035-.337v1.65h1.5v.842zm1.38-2.12h1.18v-1.19H84.2v1.18zm.07 6.94h1.04v-5.67h-1v5.67zm3.223-5.28c.52-.31 1.143-.54 1.87-.54 1.616 0 2.273.79 2.273 2.34v2.35c0 .64.02.94.05 1.1h-.98v-.734h-.02c-.24.334-.8.864-1.75.864-1.22 0-2.08-.54-2.08-1.77 0-1.42 1.56-1.867 2.64-1.867.41 0 .71 0 1.12.02 0-.98-.36-1.47-1.4-1.47-.59 0-1.22.22-1.64.573l-.06-.9zm3.1 2.57c-.23 0-.45-.027-.67-.027-.57 0-1.97.08-1.97 1.083 0 .6.57.92 1.05.92 1.036 0 1.58-.64 1.58-1.496v-.5zm5.83-2.137H94.9v3.1c0 .66.403 1.015.88 1.015.32 0 .555-.102.713-.21v.89c-.235.07-.558.17-.89.17-1.08 0-1.745-.52-1.745-1.65v-3.32H92.6v-.85h1.28v-1.31l1.04-.336v1.65h1.51v.84zm5.66 4.59c-.4.136-.86.37-1.79.37-2.02 0-2.94-1.237-2.94-3.08 0-1.684 1.05-2.87 2.65-2.87 1.89 0 2.5 1.37 2.5 3.203h-4c0 1.12.877 1.89 1.868 1.89.695 0 1.49-.356 1.74-.56v1.04zm-.68-3.15c0-.88-.51-1.58-1.41-1.58-1.03 0-1.45.84-1.53 1.58h2.94zm6.534 2.58h-.024c-.275.416-.92.935-1.93.935-1.716 0-2.44-1.533-2.44-3.08 0-1.52.81-2.87 2.46-2.87.992 0 1.556.38 1.88.91h.022V196h1.05v8.33H108v-.796zm-1.714.08c1.18 0 1.67-1.174 1.67-2.12 0-1.06-.544-2.13-1.68-2.13s-1.58 1.06-1.555 2.1c-.02.89.44 2.145 1.57 2.145zm7.596-7.63h1.045v3.448h.03c.32-.53.89-.91 1.88-.91 1.65 0 2.45 1.35 2.45 2.87 0 1.56-.72 3.07-2.43 3.07-1 0-1.65-.52-1.94-.937h-.03v.8h-1V196zm2.724 3.38c-1.14 0-1.69 1.077-1.69 2.137 0 .942.49 2.12 1.67 2.12 1.12 0 1.59-1.27 1.57-2.158.027-1.03-.42-2.1-1.55-2.1zm3.65 6.5c.13.05.31.08.49.08.93 0 1.24-1.29 1.24-1.4 0-.126-.13-.414-.2-.6l-1.925-5.3h1.2l1.52 4.69h.02l1.56-4.69h1.055l-2.1 5.786c-.395 1.096-.81 2.35-2.18 2.35-.336 0-.53-.044-.716-.08l.06-.85zm9.11-9.3h2.29c2.304 0 4.14 1.42 4.14 3.82 0 2.59-1.58 3.94-4.143 3.94h-2.29v-7.77zm1.11 6.79h1.17c1.91 0 2.97-.93 2.97-2.93 0-1.82-1.234-2.88-2.84-2.88h-1.3v5.8zm11.237.74c-.394.14-.85.37-1.783.37-2.01 0-2.94-1.233-2.94-3.08 0-1.68 1.06-2.87 2.66-2.87 1.89 0 2.5 1.37 2.5 3.205h-4.05c0 1.12.89 1.89 1.87 1.89.69 0 1.5-.354 1.75-.56v1.04zm-.67-3.145c0-.872-.517-1.58-1.417-1.58-1.02 0-1.444.846-1.523 1.58H141zm7.53 3.38h-1.01v-.9h-.024c-.31.648-1.06 1.04-1.85 1.04-1.47 0-2.12-.92-2.12-2.442v-3.36h1.05v2.93c0 1.32.29 1.97 1.21 2.02 1.19 0 1.73-.954 1.73-2.34v-2.626h1.05v5.67zm4.8-4.83h-1.5v3.115c0 .657.4 1.014.87 1.014.322 0 .555-.1.71-.21v.89c-.23.07-.55.16-.883.16-1.08 0-1.75-.52-1.75-1.65v-3.32h-1.28v-.85h1.28v-1.31l1.05-.33v1.65h1.51v.84zm.89 3.71c.41.27 1 .41 1.3.41.48 0 1.07-.204 1.07-.815 0-1.03-2.46-.946-2.46-2.54 0-1.17.89-1.74 2.01-1.74.49 0 .9.11 1.3.22l-.09.91c-.23-.15-.85-.29-1.09-.29-.53 0-1 .22-1 .7 0 1.156 2.453.82 2.453 2.63 0 1.21-.97 1.766-1.97 1.766-.53 0-1.072-.06-1.556-.31l.057-.94zm8.356-3.602c-.4-.18-.8-.26-1.13-.26-1.17 0-1.82 1.04-1.82 2.12 0 1.018.55 2.12 1.89 2.12.36 0 .81-.11 1.13-.32l.08.935c-.43.19-.93.23-1.3.23-1.72 0-2.9-1.35-2.9-2.978 0-1.73 1.16-2.974 2.9-2.974.43 0 .97.09 1.27.214l-.08.865zm1.34-3.63h1.1v3.48h.03c.38-.6 1.04-.95 1.82-.95 1.47 0 2.13.91 2.13 2.43v3.37h-1.05v-2.94c0-1.328-.28-1.97-1.2-2.03-1.18 0-1.71.955-1.71 2.33v2.61h-1.05v-8.345zm11.15 8.1c-.4.14-.85.37-1.79.37-2.01 0-2.94-1.24-2.94-3.08 0-1.686 1.06-2.87 2.66-2.87 1.9 0 2.51 1.37 2.51 3.2h-4.05c0 1.12.88 1.89 1.87 1.89.69 0 1.49-.354 1.75-.573v1.04zm-.67-3.15c0-.877-.51-1.58-1.41-1.58-1.02 0-1.45.84-1.53 1.58h2.93zm5.64-4.39h2.04c1.6 0 2.92.55 2.92 2.33 0 1.714-1.34 2.33-2.75 2.33h-1.09v3.1h-1.11v-7.77zm1.11 3.68h1.11c.69 0 1.56-.35 1.56-1.37 0-.98-1.02-1.34-1.71-1.34h-.95v2.693zm7.56-1.73c1.73 0 2.88 1.242 2.88 2.96 0 1.623-1.17 2.97-2.87 2.97-1.72 0-2.89-1.347-2.89-2.973 0-1.72 1.16-2.96 2.9-2.96m0 5.09c1.22 0 1.77-1.11 1.77-2.13 0-1.08-.66-2.13-1.76-2.13-1.12 0-1.78 1.05-1.78 2.12 0 1.02.56 2.14 1.79 2.14m3.87-.41c.42.27 1 .406 1.3.406.48 0 1.07-.208 1.07-.82 0-1.025-2.46-.94-2.46-2.535 0-1.173.89-1.74 2.01-1.74.5 0 .89.1 1.3.22l-.09.91c-.23-.15-.85-.29-1.09-.29-.53 0-.99.22-.99.69 0 1.15 2.45.82 2.45 2.63 0 1.21-.96 1.76-1.97 1.76-.53 0-1.08-.06-1.55-.31l.06-.93zm7.77-3.72h-1.51v3.11c0 .656.4 1.01.89 1.01.33 0 .56-.1.72-.2v.884c-.23.07-.56.16-.89.16-1.07 0-1.74-.52-1.74-1.65v-3.31h-1.28v-.84h1.28v-1.31l1.03-.34v1.65h1.51v.84zm4.45-2.94h4.2v.98h-3v2.26h2.89v.98H206v3.535h-1.105m8.046-5.81c1.73 0 2.89 1.248 2.89 2.966 0 1.628-1.17 2.97-2.88 2.97s-2.88-1.35-2.88-2.97c0-1.72 1.15-2.96 2.88-2.96m0 5.1c1.23 0 1.78-1.12 1.78-2.13 0-1.074-.65-2.12-1.76-2.12-1.13 0-1.77 1.046-1.77 2.12 0 1.01.54 2.13 1.78 2.13m9.31.7h-1.01v-.9h-.01c-.31.647-1.07 1.027-1.85 1.027-1.47 0-2.13-.923-2.13-2.445v-3.36h1.05v2.94c0 1.32.29 1.97 1.2 2.025 1.19 0 1.73-.956 1.73-2.34v-2.61h1.05v5.67zm1.79-5.67h1.02v.9h.02c.31-.65 1.08-1.04 1.87-1.04 1.47 0 2.14.91 2.14 2.43v3.38h-1.07v-2.94c0-1.324-.29-1.97-1.2-2.03-1.19 0-1.73.96-1.73 2.34v2.63h-1.04v-5.67zm10.83 4.86h-.02c-.27.43-.92.935-1.93.935-1.72 0-2.43-1.535-2.43-3.08 0-1.52.81-2.87 2.46-2.87.99 0 1.56.39 1.88.91h.02v-3.45h1.04v8.347h-1.01v-.81zm-1.72.09c1.19 0 1.67-1.16 1.67-2.11 0-1.05-.54-2.13-1.68-2.13s-1.58 1.076-1.55 2.1c-.01.89.45 2.15 1.57 2.15zm4.77-4.56c.53-.31 1.14-.53 1.87-.53 1.62 0 2.28.8 2.28 2.34v2.34c0 .65.02.95.05 1.113h-.98v-.73h-.02c-.24.35-.8.87-1.76.87-1.22 0-2.07-.54-2.07-1.77 0-1.42 1.57-1.86 2.64-1.86.42 0 .71 0 1.12.02 0-.98-.35-1.47-1.4-1.47-.59 0-1.22.22-1.65.58l-.06-.9zm3.1 2.57c-.22 0-.44-.02-.67-.02-.56 0-1.97.09-1.97 1.08 0 .6.58.92 1.06.92 1.04 0 1.58-.64 1.58-1.485v-.496zm5.85-2.12h-1.57v3.113c0 .66.41 1.02.88 1.02.33 0 .56-.1.71-.21v.89c-.23.07-.55.16-.88.16-1.08 0-1.75-.52-1.75-1.65v-3.31H243v-.84h1.272v-1.31l1.05-.33v1.65h1.51v.84zm1.38-2.12h1.18v-1.176h-1.17v1.188zm.07 6.94h1.04v-5.67h-1.04v5.67zm5.48-5.81c1.72 0 2.88 1.245 2.88 2.974 0 1.626-1.18 2.975-2.88 2.975-1.72 0-2.89-1.35-2.89-2.98 0-1.72 1.16-2.96 2.9-2.96m0 5.09c1.22 0 1.76-1.11 1.76-2.12 0-1.087-.66-2.136-1.77-2.136-1.12 0-1.77 1.05-1.77 2.12 0 1.02.55 2.13 1.786 2.13m4.29-4.97h1.01v.9h.025c.32-.65 1.07-1.04 1.87-1.04 1.46 0 2.12.91 2.12 2.43v3.37h-1.05v-2.94c0-1.32-.29-1.97-1.2-2.03-1.19 0-1.73.96-1.73 2.34v2.63h-1.04v-5.67z"/>
  </g>
</svg>
