<svg xmlns="http://www.w3.org/2000/svg" viewBox="0 0 212 70">
  <path fill="#fff" fill-rule="evenodd" d="M.002 1.532V29.97h6.204V1.53H.002zm32.608 0V5.33h15.853L31.59 27.453v2.515h24.398l.684-3.794H39.75l16.79-22.17V1.53H32.61zm59.347 0L78.395 29.97h5.443l3.397-8.485h10.968l3.145 8.484h6.847L96.55 1.53h-4.593zm1.02 5.843l3.952 10.743h-8.3l4.34-10.743zM0 68.748V70h212v-1.252H0zm48.537-15.712c.472 0 .947.05 1.42.05v1.067c0 1.8-1.16 3.173-3.357 3.173-1.016 0-2.244-.683-2.244-1.963 0-2.136 2.976-2.327 4.18-2.327zm13.18-4.76c2.41 0 3.354 2.298 3.307 4.478.047 1.895-.946 4.572-3.33 4.572-2.506 0-3.545-2.485-3.545-4.5 0-2.252 1.15-4.55 3.56-4.55zm96.645 0c2.362 0 3.756 2.227 3.756 4.524 0 2.157-1.158 4.526-3.756 4.526-2.623 0-3.782-2.37-3.782-4.526 0-2.297 1.395-4.524 3.782-4.524zm-28.862 0c2.365 0 3.757 2.227 3.757 4.524 0 2.157-1.155 4.526-3.757 4.526-2.62 0-3.78-2.37-3.78-4.526 0-2.297 1.393-4.524 3.78-4.524zm-53.8 0c2.36 0 3.753 2.227 3.753 4.524 0 2.157-1.156 4.526-3.754 4.526-2.63 0-3.78-2.37-3.78-4.526 0-2.297 1.39-4.524 3.78-4.524zm-69.556 0c2.363 0 3.755 2.227 3.755 4.524 0 2.157-1.16 4.526-3.76 4.526-2.63 0-3.78-2.37-3.78-4.526 0-2.297 1.39-4.524 3.78-4.524zm182.588-1.518v12.086h2.22V46.758h-2.22zm19.936-.284c-2.386 0-4.252 1.208-4.252 3.72 0 3.388 5.222 3.2 5.222 5.403 0 1.304-1.257 1.73-2.27 1.73-.638 0-1.89-.285-2.766-.854l-.116 1.994c1.013.544 2.17.663 3.307.663 2.152 0 4.207-1.184 4.207-3.767 0-3.863-5.225-3.153-5.225-5.62 0-.993.997-1.466 2.127-1.466.522 0 1.844.307 2.343.615l.186-1.943c-.87-.26-1.72-.48-2.76-.48zm-8.504 0c-3.686 0-6.142 2.655-6.142 6.326 0 3.46 2.504 6.33 6.142 6.33.805 0 1.867-.073 2.79-.5l-.168-1.988c-.686.45-1.63.684-2.385.684-2.85 0-4.01-2.37-4.01-4.526 0-2.297 1.4-4.524 3.88-4.524.71 0 1.56.165 2.41.52l.19-1.847c-.64-.26-1.79-.48-2.69-.48zm-41.802 0c-3.686 0-6.142 2.655-6.142 6.326 0 3.46 2.502 6.33 6.142 6.33 3.615 0 6.12-2.87 6.12-6.33 0-3.67-2.456-6.326-6.12-6.326zm-28.862 0c-3.685 0-6.144 2.655-6.144 6.326 0 3.46 2.506 6.33 6.144 6.33 3.614 0 6.12-2.87 6.12-6.33 0-3.67-2.455-6.326-6.12-6.326zm-10.676 0c-3.684 0-6.143 2.655-6.143 6.326 0 3.46 2.51 6.33 6.15 6.33.81 0 1.87-.073 2.79-.5l-.16-1.988c-.68.45-1.63.684-2.38.684-2.85 0-4.01-2.37-4.01-4.526 0-2.297 1.396-4.524 3.876-4.524.71 0 1.56.165 2.41.52l.19-1.847c-.64-.26-1.797-.48-2.693-.48zm-43.125 0c-3.69 0-6.15 2.655-6.15 6.326 0 3.46 2.5 6.33 6.14 6.33 3.61 0 6.11-2.87 6.11-6.33 0-3.67-2.46-6.326-6.12-6.326zm-28.37 0c-1.54 0-2.86.475-3.97 1.138l.12 1.895c.89-.757 2.24-1.23 3.49-1.23 2.22 0 2.98 1.065 2.98 3.15-.88-.046-1.49-.046-2.37-.046-2.29 0-5.6.95-5.6 3.99 0 2.63 1.82 3.77 4.42 3.77 2.03 0 3.21-1.11 3.73-1.84h.05v1.56h2.08c-.05-.35-.1-.99-.1-2.37v-5c0-3.29-1.4-5-4.85-5zm-41.19 0C2.46 46.474 0 49.13 0 52.8c0 3.46 2.505 6.33 6.144 6.33 3.615 0 6.12-2.87 6.12-6.33 0-3.67-2.46-6.326-6.12-6.326zm167.24 0c-1.77 0-2.98.642-3.83 2.04h-.05V46.76h-2.08v12.086h2.22v-6.09c0-2.25.89-4.477 3.16-4.477 1.8 0 2.15 1.87 2.15 3.36v7.2h2.22v-6.09c0-2.25.89-4.48 3.16-4.48 1.79 0 2.15 1.87 2.15 3.36v7.2h2.22v-7.75c0-2.63-1.11-4.62-4.18-4.62-1.09 0-2.91.62-3.73 2.34-.64-1.63-2.04-2.35-3.43-2.35zm-28.65 0c-1.68 0-3.29.83-3.95 2.205h-.05v-1.93h-2.15v12.09h2.22v-5.59c0-2.94 1.13-4.98 3.66-4.98 1.94.12 2.55 1.49 2.55 4.31v6.25h2.22v-7.18c0-3.25-1.4-5.19-4.51-5.19zm-54.68 0c-1.28 0-2.56.9-3.15 2.158h-.05v-1.874h-2.08v12.086H87v-5.498c0-3.033 1.3-4.928 3.284-4.928.38 0 .83.047 1.23.214V46.64c-.47-.095-.804-.167-1.463-.167zm10.81-4.17v16.54h9.23V56.76h-6.88v-5.45h6.26v-2.083h-6.26V44.39h6.87v-2.087h-9.236zm-69.7 0v16.54h9.26V56.76h-6.9V42.305h-2.36zm157.41-.76v2.513h2.5v-2.512h-2.5zm-132.667-.47v17.77h2.124V57.14h.05c.59.9 1.96 1.993 4.11 1.993 3.64 0 5.174-3.222 5.174-6.542 0-3.24-1.7-6.11-5.2-6.11-2.103 0-3.31.83-3.993 1.95h-.045v-7.35h-2.22zm-35.21-.288c-3.28 0-4.035 1.922-4.035 4.86v1.112h-2.83v1.802h2.832v10.284h2.22V48.56h3.19v-1.802h-3.19v-1.303c0-1.635.235-2.866 2.15-2.866.376 0 .803.04 1.06.14l.095-1.8c-.45-.07-.92-.15-1.49-.15zm185.97-21.62c1.9 0 2.975 1.504 2.975 3.336h-6.183c.166-1.55 1.06-3.335 3.21-3.335zm-28.19-1.503v7.118c0 3.22 1.38 5.15 4.475 5.15 1.664 0 3.256-.82 3.912-2.18h.045v1.91h2.125V17.67h-2.2v5.54c0 2.914-1.13 4.933-3.635 4.933-1.92-.116-2.53-1.48-2.53-4.273v-6.205h-2.2zm-15.35 0v11.98h2.205v-11.98h-2.204zm43.587-.283c-3.37 0-5.597 2.513-5.597 6.062 0 3.9 1.942 6.483 6.182 6.483 1.97 0 2.924-.47 3.77-.774v-2.2c-.535.45-2.225 1.2-3.677 1.2-2.083 0-3.935-1.62-3.935-3.99H212c0-3.85-1.288-6.76-5.27-6.76zm-58.96 0c-2.365 0-4.216 1.2-4.216 3.688 0 3.36 5.18 3.173 5.18 5.357 0 1.292-1.24 1.714-2.25 1.714-.63 0-1.87-.28-2.74-.85l-.114 1.97c1.01.54 2.16.66 3.28.66 2.13 0 4.17-1.18 4.17-3.74 0-3.83-5.18-3.13-5.18-5.57 0-.99.988-1.46 2.115-1.46.52 0 1.83.3 2.32.61l.19-1.93c-.868-.26-1.71-.47-2.74-.47zm-11.37 0c-1.663 0-3.253.824-3.91 2.184h-.05v-1.9h-2.13v11.98h2.2V24.1c0-2.914 1.127-4.933 3.63-4.933 1.92.116 2.53 1.478 2.53 4.275v6.202h2.204v-7.118c0-3.22-1.38-5.146-4.474-5.146zm59.6-3.193l-2.2.702v2.77h-2.69v1.78h2.694v7c0 2.39 1.41 3.47 3.68 3.47.705 0 1.38-.19 1.874-.33v-1.87c-.324.21-.82.42-1.497.42-1.003 0-1.85-.75-1.85-2.14v-6.55h3.165v-1.78h-3.165v-3.48zm-23.435 0l-2.2.702v2.77h-2.698v1.78h2.7v7c0 2.39 1.4 3.47 3.673 3.47.7 0 1.38-.19 1.87-.33v-1.87c-.324.21-.82.42-1.496.42-1 0-1.85-.75-1.85-2.14v-6.55h3.16v-1.78h-3.16v-3.48zm-15.63 0l-2.204.702v2.77h-2.69v1.78h2.69v7c0 2.39 1.41 3.47 3.68 3.47.7 0 1.38-.19 1.87-.33v-1.87c-.323.21-.814.42-1.494.42-1.005 0-1.847-.75-1.847-2.14v-6.55h3.16v-1.78h-3.16v-3.48zM124 13.245v16.4h2.34v-16.4H124zm38.998-.75v2.49h2.484v-2.49H163z"/>
</svg>
