<svg id="Ebene_1" data-name="Ebene 1" xmlns="http://www.w3.org/2000/svg" viewBox="0 0 170.08 56.85"><defs><style>.cls-1{fill:#0053a0;}</style></defs><title>iza-footer</title><rect class="cls-1" width="4.98" height="22.75"/><polygon class="cls-1" points="26.16 0 26.16 3.04 38.88 3.04 25.34 20.73 25.34 22.75 44.92 22.75 45.47 19.71 31.89 19.71 45.36 1.98 45.36 0 26.16 0"/><path class="cls-1" d="M103.19,25l3.17,8.59H99.71Zm-.82-4.68L91.49,43.09h4.37l2.72-6.79h8.8l2.53,6.79h5.49l-9.34-22.75Z" transform="translate(-28.6 -20.34)"/><rect y="55.84" width="170.08" height="1"/><path d="M33.53,58.08a4.78,4.78,0,0,1,4.91,5.06,4.92,4.92,0,1,1-9.84,0A4.78,4.78,0,0,1,33.53,58.08Zm0,8.68c2.08,0,3-1.89,3-3.62s-1.12-3.62-3-3.62-3,1.78-3,3.62S31.42,66.76,33.53,66.76Z" transform="translate(-28.6 -20.34)"/><path d="M42,59.75H39.7V58.31H42v-.89c0-2.35.6-3.89,3.24-3.89a6.93,6.93,0,0,1,1.19.12l-.07,1.44a2.72,2.72,0,0,0-.86-.11c-1.53,0-1.72,1-1.72,2.29v1h2.56v1.44H43.76V68H42Z" transform="translate(-28.6 -20.34)"/><path d="M53.61,54.75h1.9V66.31H61V68H53.61Z" transform="translate(-28.6 -20.34)"/><path d="M63.39,59a6.15,6.15,0,0,1,3.18-.91c2.77,0,3.89,1.37,3.89,4v4a18.11,18.11,0,0,0,.07,1.9H68.86V66.73h0a3.62,3.62,0,0,1-3,1.48c-2.08,0-3.54-.92-3.54-3,0-2.43,2.65-3.18,4.49-3.18.7,0,1.19,0,1.9,0,0-1.66-.61-2.52-2.39-2.52a4.53,4.53,0,0,0-2.81,1Zm5.29,4.38c-.38,0-.76,0-1.14,0-1,0-3.36.15-3.36,1.86A1.71,1.71,0,0,0,66,66.76a2.44,2.44,0,0,0,2.7-2.54Z" transform="translate(-28.6 -20.34)"/><path d="M73.47,53.76h1.78v5.88h0a3.44,3.44,0,0,1,3.2-1.56c2.8,0,4.17,2.3,4.17,4.89s-1.23,5.24-4.15,5.24a3.88,3.88,0,0,1-3.3-1.6h0V68h-1.7Zm4.64,5.76c-1.93,0-2.86,1.84-2.86,3.64,0,1.61.83,3.6,2.84,3.6s2.71-2.14,2.67-3.65C80.8,61.36,80,59.52,78.11,59.52Z" transform="translate(-28.6 -20.34)"/><path d="M89.33,58.08a4.77,4.77,0,0,1,4.91,5.06,4.92,4.92,0,1,1-9.84,0A4.78,4.78,0,0,1,89.33,58.08Zm0,8.68c2.08,0,3-1.89,3-3.62s-1.12-3.62-3-3.62-3,1.78-3,3.62S87.22,66.76,89.33,66.76Z" transform="translate(-28.6 -20.34)"/><path d="M96.62,58.31h1.67v1.5h0a2.94,2.94,0,0,1,2.52-1.73,5.34,5.34,0,0,1,1.17.13v1.6a2.47,2.47,0,0,0-1-.17c-1.6,0-2.64,1.51-2.64,3.94V68H96.62Z" transform="translate(-28.6 -20.34)"/><path d="M109.53,54.75h7.4v1.67h-5.51v3.86h5V62h-5v4.36h5.51V68h-7.4Z" transform="translate(-28.6 -20.34)"/><path d="M125.94,59.94a5.31,5.31,0,0,0-1.94-.42c-2,0-3.11,1.78-3.11,3.62s.93,3.62,3.23,3.62a3.63,3.63,0,0,0,1.91-.55l.13,1.6a5.44,5.44,0,0,1-2.23.4A4.9,4.9,0,0,1,119,63.14a4.78,4.78,0,0,1,4.93-5.06,6.62,6.62,0,0,1,2.16.38Z" transform="translate(-28.6 -20.34)"/><path d="M132.49,58.08a4.77,4.77,0,0,1,4.91,5.06,4.92,4.92,0,1,1-9.84,0A4.78,4.78,0,0,1,132.49,58.08Zm0,8.68c2.09,0,3-1.89,3-3.62s-1.11-3.62-3-3.62-3,1.78-3,3.62S130.39,66.76,132.49,66.76Z" transform="translate(-28.6 -20.34)"/><path d="M139.79,58.31h1.72v1.54h0a3.48,3.48,0,0,1,3.16-1.77c2.5,0,3.62,1.56,3.62,4.15V68h-1.78V63c0-2.25-.49-3.35-2.05-3.45-2,0-2.93,1.63-2.93,4V68h-1.78Z" transform="translate(-28.6 -20.34)"/><path d="M155.65,58.08a4.78,4.78,0,0,1,4.91,5.06,4.92,4.92,0,1,1-9.84,0A4.78,4.78,0,0,1,155.65,58.08Zm0,8.68c2.08,0,3-1.89,3-3.62s-1.12-3.62-3-3.62-3,1.78-3,3.62S153.54,66.76,155.65,66.76Z" transform="translate(-28.6 -20.34)"/><path d="M162.92,58.31h1.67v1.4h0a3.28,3.28,0,0,1,3.07-1.63A2.87,2.87,0,0,1,170.45,60a3.45,3.45,0,0,1,3-1.88c2.46,0,3.35,1.59,3.35,3.7V68H175V62.21c0-1.19-.28-2.69-1.72-2.69-1.82,0-2.54,1.78-2.54,3.59V68H169V62.21c0-1.19-.29-2.69-1.73-2.69-1.82,0-2.54,1.78-2.54,3.59V68h-1.78Z" transform="translate(-28.6 -20.34)"/><path d="M181.91,56.15h-2v-2h2ZM180,58.31h1.78V68H180Z" transform="translate(-28.6 -20.34)"/><path d="M191.19,59.94a5.22,5.22,0,0,0-1.93-.42c-2,0-3.11,1.78-3.11,3.62s.93,3.62,3.22,3.62a3.64,3.64,0,0,0,1.92-.55l.13,1.6a5.46,5.46,0,0,1-2.24.4,4.9,4.9,0,0,1-4.93-5.07,4.78,4.78,0,0,1,4.93-5.06,6.62,6.62,0,0,1,2.16.38Z" transform="translate(-28.6 -20.34)"/><path d="M192.74,66.08a4.73,4.73,0,0,0,2.22.68c.82,0,1.82-.34,1.82-1.38,0-1.76-4.19-1.61-4.19-4.32,0-2,1.5-3,3.41-3a7.37,7.37,0,0,1,2.22.38L198.07,60a5.16,5.16,0,0,0-1.88-.5c-.9,0-1.7.38-1.7,1.18,0,2,4.19,1.4,4.19,4.49,0,2.07-1.65,3-3.38,3a5.49,5.49,0,0,1-2.65-.54Z" transform="translate(-28.6 -20.34)"/><path d="M128.08,29.71H130V42.83h-1.88Z" transform="translate(-28.6 -20.34)"/><path d="M133.14,33.24h1.71v1.53h0A3.45,3.45,0,0,1,138,33c2.48,0,3.59,1.54,3.59,4.11v5.7h-1.77v-5c0-2.24-.49-3.33-2-3.42-2,0-2.91,1.61-2.91,3.94v4.44h-1.77Z" transform="translate(-28.6 -20.34)"/><path d="M143.91,41a4.76,4.76,0,0,0,2.2.67c.81,0,1.81-.33,1.81-1.37,0-1.74-4.16-1.59-4.16-4.28,0-2,1.49-2.95,3.39-2.95a7.22,7.22,0,0,1,2.19.38l-.15,1.54a5,5,0,0,0-1.86-.49c-.9,0-1.69.37-1.69,1.16,0,2,4.15,1.39,4.15,4.46,0,2-1.63,3-3.34,3a5.54,5.54,0,0,1-2.63-.52Z" transform="translate(-28.6 -20.34)"/><path d="M157,34.67H154.5v5.24A1.52,1.52,0,0,0,156,41.62a2.23,2.23,0,0,0,1.2-.33v1.5a5.55,5.55,0,0,1-1.5.26c-1.82,0-3-.86-3-2.78v-5.6h-2.16V33.24h2.16V31l1.77-.57v2.78H157Z" transform="translate(-28.6 -20.34)"/><path d="M161.36,31.1h-2v-2h2Zm-1.88,2.14h1.77v9.59h-1.77Z" transform="translate(-28.6 -20.34)"/><path d="M169.57,34.67H167v5.24a1.52,1.52,0,0,0,1.48,1.71,2.23,2.23,0,0,0,1.2-.33v1.5a5.62,5.62,0,0,1-1.5.26c-1.82,0-2.95-.86-2.95-2.78v-5.6h-2.16V33.24h2.16V31l1.77-.57v2.78h2.53Z" transform="translate(-28.6 -20.34)"/><path d="M180.27,42.83h-1.71V41.31h0a3.43,3.43,0,0,1-3.14,1.74c-2.47,0-3.58-1.54-3.58-4.11v-5.7h1.76v5c0,2.23.49,3.32,2,3.41,2,0,2.92-1.61,2.92-3.94V33.24h1.76Z" transform="translate(-28.6 -20.34)"/><path d="M188.38,34.67h-2.54v5.24a1.52,1.52,0,0,0,1.48,1.71,2.3,2.3,0,0,0,1.21-.33v1.5a5.7,5.7,0,0,1-1.51.26c-1.82,0-3-.86-3-2.78v-5.6h-2.16V33.24h2.16V31l1.77-.57v2.78h2.54Z" transform="translate(-28.6 -20.34)"/><path d="M197.94,42.43a7.18,7.18,0,0,1-3,.62c-3.4,0-5-2.07-5-5.18C190,35,191.74,33,194.45,33c3.19,0,4.23,2.33,4.23,5.41h-6.84A3.13,3.13,0,0,0,195,41.62a5.71,5.71,0,0,0,2.95-.95Zm-1.14-5.31a2.42,2.42,0,0,0-2.39-2.67,2.66,2.66,0,0,0-2.57,2.67Z" transform="translate(-28.6 -20.34)"/></svg>
