<?xml version="1.0" encoding="utf-8"?>
<!-- Generator: Adobe Illustrator 25.1.0, SVG Export Plug-In . SVG Version: 6.00 Build 0)  -->
<svg version="1.1" id="logo" xmlns="http://www.w3.org/2000/svg" xmlns:xlink="http://www.w3.org/1999/xlink" x="0px" y="0px"
	 viewBox="0 0 210 90" style="enable-background:new 0 0 210 90;" xml:space="preserve">
<style type="text/css">
	.st0{fill:none;}
	.st1{fill:#00538B;}
	.st2{fill:#FFFFFF;}
</style>
<g>
	<g>
		<g>
			<g>
				<g>
					<g>
						<g>
							<g>
								<g>
									<g>
										<rect x="-179.51" y="-73.7" class="st0" width="425.2" height="184.25"/>
									</g>
								</g>
							</g>
						</g>
					</g>
				</g>
			</g>
		</g>
	</g>
	<g>
		<path d="M64.9,47.54c-0.22,0.1-0.49,0.2-0.83,0.26c-0.35,0.06-0.74,0.09-1.17,0.09c-0.41,0-0.82-0.08-1.19-0.23
			c-0.38-0.15-0.7-0.38-0.99-0.69c-0.28-0.3-0.51-0.68-0.67-1.14c-0.17-0.45-0.25-0.98-0.25-1.58c0-0.4,0.05-0.78,0.13-1.13
			c0.09-0.36,0.21-0.69,0.37-0.98c0.15-0.3,0.35-0.56,0.55-0.81c0.22-0.23,0.45-0.42,0.71-0.59c0.25-0.16,0.53-0.29,0.82-0.38
			c0.29-0.08,0.59-0.13,0.89-0.13c0.39,0,0.73,0.02,0.99,0.08c0.28,0.05,0.51,0.13,0.71,0.23l-0.09,1.6h-0.31l-0.05-0.21
			c-0.03-0.18-0.1-0.33-0.17-0.46c-0.07-0.13-0.16-0.23-0.26-0.31c-0.1-0.08-0.23-0.14-0.38-0.17c-0.15-0.04-0.32-0.06-0.53-0.06
			c-0.29,0-0.56,0.07-0.84,0.21c-0.26,0.15-0.51,0.34-0.71,0.62c-0.21,0.26-0.37,0.6-0.49,0.99c-0.14,0.39-0.2,0.84-0.2,1.33
			c0,0.53,0.06,0.99,0.18,1.38c0.12,0.39,0.28,0.7,0.48,0.96c0.2,0.25,0.43,0.44,0.68,0.55c0.26,0.13,0.53,0.18,0.79,0.18
			c0.43,0,0.75-0.07,0.99-0.21c0.23-0.15,0.4-0.38,0.53-0.68l0.11-0.28h0.31L64.9,47.54z"/>
		<path d="M70.99,43.52c-0.15,0.31-0.36,0.59-0.61,0.82c-0.26,0.24-0.55,0.41-0.89,0.55c-0.33,0.13-0.68,0.2-1.04,0.2
			c-0.14,0-0.26-0.01-0.39-0.05c-0.12-0.03-0.23-0.08-0.33-0.13v2.27l0.84,0.18v0.25c-0.18,0.06-0.39,0.1-0.63,0.14
			c-0.24,0.03-0.5,0.06-0.76,0.06c-0.08,0-0.18,0-0.28-0.01c-0.1,0-0.2-0.01-0.3-0.01c-0.1-0.01-0.2-0.02-0.29-0.05
			c-0.09-0.01-0.18-0.02-0.25-0.05v-0.22c0.22-0.07,0.39-0.16,0.51-0.29c0.1-0.13,0.16-0.31,0.16-0.55v-5.67l-0.73-0.24v-0.25
			c0.18-0.04,0.37-0.06,0.54-0.08c0.17-0.02,0.36-0.04,0.54-0.05c0.18-0.01,0.39-0.02,0.6-0.02c0.21-0.01,0.44-0.01,0.69-0.01
			c0.93,0,1.63,0.18,2.12,0.56c0.48,0.37,0.72,0.91,0.72,1.61C71.22,42.86,71.14,43.2,70.99,43.52z M70.02,41.91
			c-0.09-0.21-0.22-0.38-0.38-0.53c-0.16-0.14-0.35-0.25-0.58-0.32c-0.23-0.08-0.48-0.11-0.77-0.11c-0.18,0-0.38,0.01-0.58,0.03
			v3.34c0.12,0.03,0.24,0.06,0.37,0.07c0.13,0.01,0.25,0.02,0.37,0.02c0.24,0,0.46-0.05,0.67-0.13c0.21-0.08,0.38-0.2,0.54-0.36
			c0.15-0.15,0.26-0.33,0.36-0.56c0.08-0.22,0.13-0.47,0.13-0.75C70.15,42.35,70.1,42.12,70.02,41.91z"/>
		<path d="M76.9,46.49c-0.15,0.28-0.35,0.51-0.6,0.71c-0.26,0.21-0.58,0.36-0.94,0.47c-0.36,0.12-0.76,0.17-1.21,0.17
			c-0.4,0-0.78-0.01-1.12-0.02c-0.33-0.02-0.66-0.06-0.97-0.13v-0.22c0.2-0.04,0.36-0.14,0.48-0.26c0.13-0.13,0.18-0.32,0.18-0.59
			v-5.66l-0.73-0.24v-0.25c0.18-0.04,0.35-0.06,0.51-0.08c0.16-0.02,0.33-0.05,0.51-0.06c0.17-0.01,0.37-0.01,0.58-0.02
			c0.21,0,0.44,0,0.71,0c0.84,0,1.46,0.15,1.86,0.44c0.4,0.3,0.61,0.73,0.61,1.27c0,0.22-0.05,0.44-0.14,0.63
			c-0.09,0.21-0.21,0.39-0.37,0.55c-0.15,0.17-0.33,0.31-0.53,0.43c-0.21,0.12-0.41,0.2-0.64,0.24v0.01c0.3,0,0.58,0.03,0.83,0.12
			c0.24,0.08,0.45,0.2,0.62,0.34c0.17,0.16,0.31,0.33,0.4,0.55c0.1,0.22,0.15,0.46,0.15,0.72C77.11,45.93,77.04,46.23,76.9,46.49z
			 M75.36,41.25c-0.24-0.21-0.62-0.31-1.13-0.31c-0.15,0-0.32,0.01-0.52,0.03v2.74c0.31,0,0.6-0.03,0.84-0.1
			c0.25-0.08,0.47-0.18,0.64-0.31c0.17-0.14,0.31-0.3,0.4-0.51c0.09-0.2,0.14-0.41,0.14-0.67C75.74,41.75,75.61,41.46,75.36,41.25z
			 M75.53,44.63c-0.33-0.24-0.82-0.37-1.45-0.37h-0.37v2.91c0.12,0.02,0.22,0.04,0.31,0.04c0.09,0.01,0.2,0.01,0.3,0.01
			c0.23,0,0.45-0.04,0.66-0.12c0.21-0.07,0.39-0.17,0.54-0.31c0.15-0.13,0.28-0.29,0.37-0.47c0.08-0.18,0.13-0.38,0.13-0.6
			C76.02,45.24,75.85,44.87,75.53,44.63z"/>
		<path d="M86.39,40.75c-0.09,0.05-0.15,0.12-0.21,0.2c-0.05,0.08-0.08,0.18-0.1,0.3c-0.02,0.12-0.03,0.26-0.03,0.45v6.03
			l-0.54,0.13l-3.64-5.99l-0.01,0.01v5.31l0.7,0.18v0.25c-0.17,0.07-0.33,0.12-0.51,0.15c-0.17,0.02-0.35,0.05-0.54,0.05
			c-0.23,0-0.43-0.01-0.6-0.02c-0.16-0.02-0.31-0.05-0.45-0.09v-0.22c0.13-0.03,0.23-0.08,0.31-0.13c0.09-0.06,0.16-0.13,0.21-0.2
			c0.06-0.08,0.09-0.17,0.12-0.29c0.02-0.12,0.03-0.25,0.03-0.4v-5.53l-0.73-0.2v-0.33c0.22-0.02,0.44-0.05,0.66-0.06
			c0.22-0.02,0.43-0.02,0.61-0.02h0.43l3.2,5.26l0.02-0.01V40.9l-0.74-0.18v-0.24c0.18-0.06,0.38-0.1,0.58-0.14
			c0.18-0.03,0.38-0.06,0.58-0.06c0.11,0,0.22,0,0.3,0c0.09,0.01,0.17,0.01,0.24,0.02c0.07,0.01,0.14,0.03,0.21,0.05
			c0.07,0.02,0.14,0.04,0.22,0.06v0.21C86.57,40.65,86.47,40.69,86.39,40.75z"/>
		<path d="M91.82,45.03h-3.39c0,0.32,0.05,0.61,0.13,0.86c0.09,0.25,0.22,0.46,0.37,0.63c0.15,0.17,0.33,0.31,0.54,0.4
			c0.21,0.09,0.43,0.14,0.67,0.14c0.14,0,0.28-0.01,0.43-0.03c0.15-0.02,0.29-0.06,0.43-0.1c0.15-0.03,0.28-0.09,0.41-0.15
			c0.13-0.07,0.25-0.14,0.36-0.21c0.01,0.02,0.02,0.07,0.03,0.13c0.01,0.06,0.01,0.12,0.01,0.17c0,0.14-0.05,0.26-0.14,0.38
			c-0.09,0.12-0.22,0.23-0.39,0.32c-0.17,0.09-0.38,0.16-0.62,0.22c-0.25,0.06-0.53,0.08-0.83,0.08c-0.33,0-0.63-0.06-0.92-0.18
			c-0.3-0.13-0.54-0.3-0.76-0.53c-0.22-0.23-0.39-0.51-0.52-0.83c-0.11-0.32-0.18-0.69-0.18-1.09c0-0.5,0.07-0.94,0.21-1.34
			c0.14-0.38,0.32-0.7,0.55-0.97c0.22-0.25,0.47-0.46,0.76-0.59c0.29-0.14,0.59-0.21,0.89-0.21c0.31,0,0.59,0.05,0.84,0.15
			c0.24,0.1,0.45,0.24,0.62,0.42c0.17,0.2,0.3,0.42,0.39,0.68c0.09,0.28,0.14,0.56,0.14,0.9c0,0.12,0,0.22,0,0.34
			C91.83,44.75,91.83,44.89,91.82,45.03z M90.82,43.7c-0.06-0.21-0.14-0.38-0.24-0.52c-0.1-0.14-0.22-0.24-0.37-0.31
			c-0.14-0.07-0.3-0.1-0.46-0.1c-0.16,0-0.31,0.05-0.47,0.14c-0.16,0.08-0.3,0.21-0.41,0.36c-0.13,0.15-0.22,0.33-0.3,0.53
			c-0.08,0.21-0.12,0.41-0.12,0.64h2.46C90.91,44.15,90.88,43.9,90.82,43.7z"/>
		<path d="M94.6,47.85c-0.46,0-0.81-0.13-1.04-0.38c-0.22-0.25-0.33-0.66-0.33-1.22c0-0.28,0-0.56,0.01-0.85
			c0.01-0.3,0.01-0.58,0.02-0.84l0.03-1.53h-0.63v-0.38l1.24-1.23l0.38-0.05l-0.05,1.04h1.52l-0.08,0.62h-1.47l-0.02,1.45
			c0,0.24-0.01,0.47-0.01,0.7c0,0.22,0,0.43,0,0.64c0,0.23,0.01,0.43,0.05,0.59c0.03,0.16,0.08,0.29,0.15,0.39
			c0.06,0.09,0.13,0.16,0.22,0.21c0.08,0.05,0.18,0.07,0.29,0.07c0.17,0,0.32-0.02,0.47-0.08c0.14-0.06,0.26-0.13,0.38-0.22
			l0.12,0.05C95.8,47.5,95.38,47.85,94.6,47.85z"/>
		<path d="M101.31,47.76c-0.21,0.02-0.43,0.04-0.68,0.04c-0.12,0-0.24-0.01-0.37-0.02c-0.14-0.01-0.25-0.03-0.37-0.08v-0.2
			c0.14-0.07,0.24-0.15,0.31-0.28c0.07-0.12,0.1-0.28,0.1-0.48v-2.2c0-0.28-0.02-0.52-0.08-0.71c-0.06-0.21-0.14-0.37-0.23-0.48
			c-0.1-0.13-0.23-0.22-0.37-0.28c-0.15-0.06-0.31-0.08-0.5-0.08c-0.1,0-0.22,0.01-0.33,0.02c-0.1,0.02-0.22,0.04-0.31,0.08
			c-0.1,0.04-0.2,0.07-0.29,0.12c-0.08,0.05-0.16,0.09-0.23,0.14v3.87l0.64,0.17v0.22c-0.1,0.04-0.2,0.07-0.29,0.09
			c-0.1,0.02-0.2,0.05-0.31,0.06c-0.1,0.01-0.22,0.02-0.33,0.03c-0.13,0-0.25,0.01-0.4,0.01c-0.13,0-0.28-0.01-0.43-0.02
			c-0.16-0.01-0.31-0.03-0.44-0.08v-0.2c0.08-0.02,0.15-0.06,0.23-0.1c0.07-0.05,0.14-0.09,0.2-0.15c0.06-0.05,0.1-0.1,0.14-0.17
			c0.03-0.06,0.05-0.13,0.05-0.2v-6.67l-0.75-0.31v-0.25c0.26-0.08,0.51-0.13,0.74-0.16c0.23-0.02,0.45-0.04,0.64-0.04h0.37
			l-0.06,0.64v2.75c0.21-0.2,0.45-0.36,0.72-0.47c0.26-0.1,0.59-0.16,0.94-0.16c0.24,0,0.47,0.03,0.67,0.12
			c0.2,0.08,0.37,0.2,0.51,0.34c0.14,0.15,0.25,0.33,0.32,0.55c0.08,0.23,0.12,0.49,0.12,0.78v3.22l0.6,0.17v0.22
			C101.69,47.68,101.5,47.72,101.31,47.76z"/>
		<path d="M106.99,45.03h-3.39c0,0.32,0.05,0.61,0.13,0.86c0.09,0.25,0.22,0.46,0.37,0.63c0.15,0.17,0.33,0.31,0.54,0.4
			c0.21,0.09,0.43,0.14,0.67,0.14c0.14,0,0.28-0.01,0.43-0.03c0.15-0.02,0.29-0.06,0.43-0.1c0.15-0.03,0.28-0.09,0.41-0.15
			c0.13-0.07,0.25-0.14,0.36-0.21c0.01,0.02,0.02,0.07,0.03,0.13c0.01,0.06,0.01,0.12,0.01,0.17c0,0.14-0.05,0.26-0.14,0.38
			c-0.09,0.12-0.22,0.23-0.39,0.32c-0.17,0.09-0.38,0.16-0.62,0.22c-0.25,0.06-0.53,0.08-0.83,0.08c-0.33,0-0.63-0.06-0.92-0.18
			c-0.3-0.13-0.54-0.3-0.76-0.53c-0.22-0.23-0.39-0.51-0.52-0.83c-0.11-0.32-0.18-0.69-0.18-1.09c0-0.5,0.07-0.94,0.21-1.34
			c0.14-0.38,0.32-0.7,0.55-0.97c0.22-0.25,0.47-0.46,0.76-0.59c0.29-0.14,0.59-0.21,0.89-0.21c0.31,0,0.59,0.05,0.84,0.15
			c0.24,0.1,0.45,0.24,0.62,0.42c0.17,0.2,0.3,0.42,0.39,0.68c0.09,0.28,0.14,0.56,0.14,0.9c0,0.12,0,0.22,0,0.34
			C107,44.75,107,44.89,106.99,45.03z M105.99,43.7c-0.06-0.21-0.14-0.38-0.24-0.52c-0.1-0.14-0.22-0.24-0.37-0.31
			c-0.14-0.07-0.3-0.1-0.46-0.1c-0.16,0-0.31,0.05-0.47,0.14c-0.16,0.08-0.3,0.21-0.41,0.36c-0.13,0.15-0.22,0.33-0.3,0.53
			c-0.08,0.21-0.12,0.41-0.12,0.64h2.46C106.08,44.15,106.05,43.9,105.99,43.7z"/>
		<path d="M111.32,43.01c-0.03,0.13-0.08,0.24-0.14,0.34c-0.1-0.08-0.22-0.15-0.35-0.2c-0.13-0.05-0.24-0.07-0.37-0.07
			c-0.36,0-0.69,0.16-1.01,0.47v3.66l0.79,0.17v0.22c-0.09,0.04-0.2,0.07-0.3,0.09c-0.09,0.02-0.2,0.05-0.31,0.06
			c-0.12,0.01-0.24,0.02-0.37,0.03c-0.14,0-0.29,0.01-0.45,0.01c-0.17,0-0.33-0.01-0.48-0.02c-0.16-0.01-0.31-0.03-0.44-0.08v-0.2
			c0.08-0.02,0.15-0.06,0.22-0.1c0.08-0.05,0.14-0.09,0.2-0.15c0.06-0.05,0.1-0.1,0.15-0.17c0.03-0.06,0.05-0.13,0.05-0.2v-3.89
			l-0.75-0.31v-0.25c0.26-0.08,0.52-0.13,0.76-0.16c0.24-0.04,0.45-0.05,0.62-0.05h0.28v0.81h0.01l0.32-0.36
			c0.15-0.17,0.32-0.3,0.48-0.38c0.16-0.08,0.33-0.13,0.53-0.13c0.4,0,0.6,0.16,0.6,0.49C111.37,42.76,111.36,42.88,111.32,43.01z"
			/>
		<path d="M113.89,47.7c-0.1,0.02-0.21,0.05-0.31,0.06c-0.1,0.01-0.22,0.02-0.35,0.03c-0.12,0-0.24,0.01-0.39,0.01
			c-0.14,0-0.29-0.01-0.44-0.02c-0.15-0.01-0.3-0.03-0.43-0.08v-0.2c0.08-0.02,0.15-0.06,0.22-0.1c0.08-0.05,0.14-0.09,0.2-0.15
			c0.06-0.05,0.1-0.1,0.15-0.17c0.03-0.06,0.05-0.13,0.05-0.2v-6.67l-0.75-0.31v-0.25c0.13-0.04,0.26-0.07,0.39-0.09
			c0.13-0.02,0.25-0.05,0.38-0.07c0.11-0.01,0.23-0.02,0.33-0.03c0.1,0,0.2-0.01,0.28-0.01h0.37l-0.06,0.64v7.13l0.64,0.17v0.22
			C114.07,47.64,113.98,47.68,113.89,47.7z"/>
		<path d="M118.88,47.61c-0.14,0.12-0.29,0.21-0.44,0.28c-0.12-0.07-0.21-0.15-0.3-0.24c-0.08-0.1-0.16-0.21-0.23-0.32
			c-0.08,0.08-0.17,0.15-0.29,0.22c-0.13,0.07-0.24,0.13-0.38,0.17c-0.14,0.06-0.28,0.09-0.44,0.12c-0.15,0.04-0.3,0.05-0.45,0.05
			c-0.22,0-0.41-0.03-0.59-0.09c-0.18-0.07-0.33-0.15-0.46-0.26c-0.14-0.12-0.23-0.25-0.31-0.41c-0.07-0.15-0.1-0.32-0.1-0.51
			c0-0.25,0.07-0.5,0.21-0.71c0.13-0.23,0.32-0.43,0.59-0.6c0.25-0.17,0.56-0.31,0.93-0.41c0.37-0.09,0.79-0.15,1.27-0.15v-0.31
			c0-0.31-0.02-0.56-0.06-0.76c-0.05-0.2-0.1-0.35-0.18-0.46c-0.08-0.1-0.18-0.18-0.32-0.23c-0.13-0.03-0.28-0.06-0.46-0.06
			c-0.32,0-0.62,0.07-0.92,0.2c-0.29,0.13-0.56,0.31-0.81,0.55c-0.02-0.1-0.03-0.22-0.03-0.35c0-0.18,0.03-0.35,0.1-0.49
			c0.07-0.14,0.18-0.27,0.33-0.36c0.15-0.1,0.35-0.18,0.59-0.23c0.24-0.06,0.53-0.08,0.86-0.08c0.29,0,0.55,0.04,0.78,0.1
			c0.23,0.08,0.41,0.17,0.58,0.31c0.16,0.14,0.29,0.3,0.37,0.48c0.08,0.18,0.13,0.4,0.13,0.64c0,0.06,0,0.14-0.01,0.24
			c0,0.09,0,0.2-0.01,0.31c0,0.1-0.01,0.22-0.01,0.32s-0.01,0.21-0.01,0.29l-0.03,1.86c0.05,0.1,0.1,0.21,0.18,0.31
			c0.08,0.1,0.17,0.2,0.28,0.28C119.14,47.4,119.03,47.5,118.88,47.61z M117.89,45.26c-0.32,0-0.61,0.03-0.86,0.09
			c-0.25,0.07-0.46,0.15-0.62,0.25c-0.17,0.1-0.3,0.23-0.39,0.37c-0.08,0.15-0.13,0.29-0.13,0.45c0,0.23,0.08,0.41,0.23,0.55
			c0.15,0.14,0.37,0.21,0.67,0.21c0.09,0,0.18-0.01,0.28-0.02c0.1-0.02,0.21-0.05,0.3-0.07c0.1-0.02,0.2-0.06,0.29-0.1
			c0.09-0.04,0.17-0.07,0.24-0.12V45.26z"/>
		<path d="M124.38,47.8c-0.12,0-0.24-0.01-0.38-0.02c-0.13-0.01-0.25-0.03-0.37-0.08v-0.2c0.15-0.07,0.25-0.15,0.31-0.28
			c0.07-0.12,0.1-0.28,0.1-0.48v-2.2c0-0.28-0.03-0.52-0.08-0.71c-0.06-0.21-0.14-0.37-0.24-0.48c-0.1-0.13-0.22-0.22-0.36-0.28
			c-0.15-0.06-0.3-0.08-0.47-0.08c-0.23,0-0.46,0.04-0.67,0.1c-0.22,0.07-0.39,0.16-0.52,0.25v3.87l0.64,0.17v0.22
			c-0.1,0.04-0.2,0.07-0.29,0.09c-0.1,0.02-0.21,0.05-0.31,0.06c-0.1,0.01-0.22,0.02-0.35,0.03c-0.12,0-0.24,0.01-0.39,0.01
			c-0.14,0-0.29-0.01-0.44-0.02c-0.15-0.01-0.3-0.03-0.43-0.08v-0.2c0.08-0.02,0.15-0.06,0.22-0.1c0.08-0.05,0.14-0.09,0.2-0.15
			c0.06-0.05,0.1-0.1,0.15-0.17c0.03-0.06,0.05-0.13,0.05-0.2v-3.89l-0.75-0.31v-0.25c0.26-0.08,0.52-0.13,0.76-0.16
			c0.24-0.04,0.45-0.05,0.62-0.05h0.28v0.62c0.2-0.2,0.45-0.36,0.75-0.47c0.3-0.12,0.62-0.17,0.96-0.17c0.24,0,0.46,0.03,0.66,0.12
			c0.2,0.08,0.37,0.2,0.51,0.34c0.14,0.15,0.25,0.33,0.33,0.55c0.07,0.23,0.12,0.49,0.12,0.78v3.22l0.6,0.17v0.22
			C125.26,47.73,124.86,47.8,124.38,47.8z"/>
		<path d="M130.93,47.63c-0.13,0.08-0.28,0.17-0.44,0.25c-0.12-0.09-0.22-0.2-0.32-0.32c-0.09-0.13-0.17-0.25-0.23-0.37
			c-0.09,0.09-0.2,0.18-0.32,0.26c-0.12,0.08-0.24,0.15-0.37,0.21c-0.14,0.06-0.26,0.1-0.4,0.14c-0.14,0.04-0.26,0.05-0.38,0.05
			c-0.29,0-0.56-0.06-0.82-0.17c-0.25-0.12-0.47-0.29-0.67-0.5c-0.18-0.22-0.33-0.48-0.45-0.79c-0.1-0.31-0.16-0.66-0.16-1.04
			c0-0.52,0.07-0.98,0.22-1.37c0.15-0.4,0.34-0.74,0.6-1c0.24-0.28,0.54-0.48,0.87-0.62c0.33-0.14,0.68-0.21,1.06-0.21
			c0.14,0,0.28,0.01,0.43,0.02c0.15,0.01,0.28,0.03,0.37,0.06v-2.02l-0.78-0.31v-0.25c0.26-0.08,0.53-0.13,0.78-0.16
			c0.27-0.02,0.47-0.04,0.64-0.04h0.37l-0.07,0.64v6.59c0.05,0.12,0.1,0.23,0.17,0.35c0.07,0.11,0.15,0.23,0.26,0.32
			C131.18,47.45,131.06,47.54,130.93,47.63z M129.93,42.93c-0.09-0.04-0.22-0.06-0.38-0.09c-0.15-0.02-0.3-0.03-0.46-0.03
			c-0.24,0-0.47,0.05-0.68,0.15c-0.21,0.09-0.39,0.24-0.55,0.44c-0.15,0.2-0.27,0.44-0.36,0.74c-0.08,0.3-0.13,0.64-0.13,1.05
			c0,0.31,0.04,0.59,0.12,0.83c0.08,0.24,0.18,0.45,0.31,0.61c0.13,0.16,0.27,0.29,0.44,0.37c0.16,0.09,0.33,0.13,0.52,0.13
			c0.12,0,0.22-0.01,0.33-0.02c0.12-0.02,0.22-0.05,0.32-0.08c0.1-0.04,0.2-0.07,0.29-0.12c0.09-0.05,0.16-0.09,0.23-0.15V42.93z"/>
		<path d="M135.56,46.83c-0.1,0.2-0.25,0.38-0.44,0.53c-0.18,0.16-0.41,0.29-0.68,0.38c-0.25,0.09-0.55,0.14-0.88,0.14
			c-0.51,0-0.87-0.08-1.1-0.24c-0.24-0.15-0.36-0.39-0.36-0.7c0-0.08,0.01-0.16,0.02-0.25c0.02-0.08,0.05-0.15,0.08-0.22
			c0.25,0.24,0.52,0.43,0.77,0.54c0.26,0.13,0.54,0.18,0.85,0.18c0.32,0,0.56-0.07,0.74-0.21c0.16-0.14,0.24-0.3,0.24-0.51
			c0-0.1-0.01-0.2-0.05-0.28c-0.03-0.08-0.09-0.16-0.16-0.24c-0.08-0.08-0.18-0.15-0.31-0.23c-0.11-0.07-0.28-0.15-0.47-0.23
			l-0.58-0.24c-0.33-0.14-0.59-0.33-0.77-0.58c-0.17-0.24-0.26-0.52-0.26-0.85c0-0.23,0.05-0.45,0.14-0.64
			c0.1-0.21,0.24-0.39,0.42-0.54c0.17-0.15,0.38-0.28,0.63-0.37c0.24-0.09,0.52-0.14,0.82-0.14c0.23,0,0.43,0.02,0.59,0.06
			c0.16,0.02,0.3,0.08,0.4,0.14c0.1,0.06,0.18,0.14,0.23,0.22c0.05,0.09,0.07,0.2,0.07,0.3c0,0.09,0,0.17-0.01,0.24
			c-0.01,0.08-0.04,0.16-0.05,0.24c-0.18-0.13-0.39-0.23-0.63-0.31c-0.23-0.08-0.46-0.13-0.68-0.13c-0.18,0-0.34,0.02-0.48,0.06
			c-0.14,0.03-0.24,0.09-0.33,0.15c-0.09,0.07-0.16,0.15-0.21,0.23c-0.03,0.09-0.06,0.18-0.06,0.28c0,0.1,0.01,0.2,0.03,0.28
			c0.04,0.09,0.08,0.16,0.15,0.23c0.07,0.08,0.16,0.15,0.28,0.21c0.12,0.07,0.26,0.13,0.44,0.2l0.62,0.24
			c0.21,0.08,0.38,0.17,0.53,0.27c0.14,0.09,0.26,0.2,0.36,0.31c0.08,0.13,0.15,0.25,0.2,0.39c0.03,0.14,0.06,0.3,0.06,0.46
			C135.72,46.4,135.67,46.62,135.56,46.83z"/>
		<path d="M143.65,46.49c-0.15,0.28-0.35,0.51-0.6,0.71c-0.26,0.21-0.58,0.36-0.94,0.47c-0.36,0.12-0.76,0.17-1.21,0.17
			c-0.4,0-0.78-0.01-1.12-0.02c-0.33-0.02-0.66-0.06-0.97-0.13v-0.22c0.2-0.04,0.36-0.14,0.48-0.26c0.13-0.13,0.18-0.32,0.18-0.59
			v-5.66l-0.72-0.24v-0.25c0.18-0.04,0.34-0.06,0.51-0.08c0.16-0.02,0.33-0.05,0.51-0.06c0.17-0.01,0.37-0.01,0.58-0.02
			c0.21,0,0.44,0,0.71,0c0.84,0,1.46,0.15,1.86,0.44c0.4,0.3,0.61,0.73,0.61,1.27c0,0.22-0.05,0.44-0.14,0.63
			c-0.09,0.21-0.21,0.39-0.37,0.55c-0.15,0.17-0.33,0.31-0.53,0.43c-0.21,0.12-0.41,0.2-0.64,0.24v0.01c0.3,0,0.58,0.03,0.83,0.12
			c0.24,0.08,0.45,0.2,0.62,0.34c0.17,0.16,0.31,0.33,0.4,0.55c0.1,0.22,0.15,0.46,0.15,0.72
			C143.86,45.93,143.79,46.23,143.65,46.49z M142.11,41.25c-0.24-0.21-0.62-0.31-1.13-0.31c-0.15,0-0.32,0.01-0.52,0.03v2.74
			c0.31,0,0.6-0.03,0.84-0.1c0.25-0.08,0.47-0.18,0.64-0.31c0.17-0.14,0.31-0.3,0.4-0.51c0.09-0.2,0.14-0.41,0.14-0.67
			C142.49,41.75,142.36,41.46,142.11,41.25z M142.28,44.63c-0.33-0.24-0.82-0.37-1.45-0.37h-0.37v2.91
			c0.12,0.02,0.22,0.04,0.31,0.04c0.09,0.01,0.2,0.01,0.3,0.01c0.23,0,0.45-0.04,0.66-0.12c0.21-0.07,0.39-0.17,0.54-0.31
			c0.15-0.13,0.28-0.29,0.37-0.47c0.08-0.18,0.13-0.38,0.13-0.6C142.76,45.24,142.6,44.87,142.28,44.63z"/>
		<path d="M149.8,47.48c-0.06,0.06-0.13,0.1-0.2,0.15c-0.07,0.05-0.14,0.09-0.22,0.14c-0.07,0.05-0.15,0.08-0.22,0.12
			c-0.11-0.08-0.22-0.18-0.32-0.3c-0.09-0.11-0.16-0.24-0.22-0.37c-0.07,0.07-0.16,0.14-0.28,0.21c-0.12,0.07-0.24,0.14-0.39,0.2
			c-0.15,0.06-0.3,0.12-0.47,0.15c-0.16,0.05-0.33,0.06-0.52,0.06c-0.24,0-0.46-0.03-0.66-0.1c-0.2-0.08-0.37-0.18-0.51-0.35
			c-0.14-0.15-0.24-0.34-0.32-0.59c-0.07-0.24-0.1-0.52-0.1-0.85v-2.95l-0.66-0.32v-0.24c0.26-0.08,0.51-0.13,0.72-0.16
			c0.22-0.05,0.4-0.06,0.56-0.06h0.38l-0.07,0.64v2.6c0,0.31,0.02,0.56,0.07,0.76c0.05,0.21,0.12,0.37,0.21,0.5
			c0.1,0.13,0.22,0.21,0.36,0.26c0.14,0.06,0.3,0.08,0.48,0.08c0.1,0,0.21-0.01,0.32-0.03c0.1-0.01,0.21-0.04,0.31-0.07
			c0.09-0.03,0.18-0.07,0.28-0.1c0.08-0.03,0.15-0.08,0.22-0.13v-3.73l-0.67-0.32v-0.24c0.26-0.08,0.51-0.13,0.72-0.16
			c0.22-0.05,0.41-0.06,0.58-0.06h0.38l-0.07,0.64v3.89c0.05,0.09,0.1,0.2,0.18,0.3c0.08,0.1,0.16,0.21,0.25,0.3
			C149.9,47.39,149.86,47.44,149.8,47.48z"/>
		<path d="M154.35,43.01c-0.04,0.13-0.08,0.24-0.14,0.34c-0.1-0.08-0.22-0.15-0.34-0.2c-0.13-0.05-0.24-0.07-0.37-0.07
			c-0.36,0-0.69,0.16-1.01,0.47v3.66l0.79,0.17v0.22c-0.09,0.04-0.2,0.07-0.3,0.09c-0.09,0.02-0.2,0.05-0.31,0.06
			c-0.12,0.01-0.24,0.02-0.37,0.03c-0.14,0-0.29,0.01-0.45,0.01c-0.17,0-0.33-0.01-0.48-0.02c-0.16-0.01-0.31-0.03-0.44-0.08v-0.2
			c0.08-0.02,0.15-0.06,0.22-0.1c0.08-0.05,0.14-0.09,0.2-0.15c0.06-0.05,0.1-0.1,0.15-0.17c0.03-0.06,0.05-0.13,0.05-0.2v-3.89
			l-0.75-0.31v-0.25c0.26-0.08,0.52-0.13,0.76-0.16c0.24-0.04,0.45-0.05,0.62-0.05h0.28v0.81h0.01l0.32-0.36
			c0.15-0.17,0.32-0.3,0.48-0.38c0.16-0.08,0.33-0.13,0.53-0.13c0.4,0,0.6,0.16,0.6,0.49C154.4,42.76,154.39,42.88,154.35,43.01z"/>
		<path d="M159.29,45.03h-3.39c0,0.32,0.05,0.61,0.13,0.86c0.09,0.25,0.22,0.46,0.37,0.63c0.15,0.17,0.33,0.31,0.54,0.4
			c0.21,0.09,0.43,0.14,0.67,0.14c0.14,0,0.28-0.01,0.43-0.03c0.15-0.02,0.29-0.06,0.43-0.1c0.15-0.03,0.28-0.09,0.41-0.15
			c0.13-0.07,0.25-0.14,0.36-0.21c0.01,0.02,0.02,0.07,0.03,0.13c0.01,0.06,0.01,0.12,0.01,0.17c0,0.14-0.05,0.26-0.14,0.38
			c-0.09,0.12-0.22,0.23-0.39,0.32c-0.17,0.09-0.38,0.16-0.62,0.22c-0.25,0.06-0.53,0.08-0.83,0.08c-0.33,0-0.63-0.06-0.92-0.18
			c-0.3-0.13-0.54-0.3-0.76-0.53c-0.22-0.23-0.39-0.51-0.52-0.83c-0.12-0.32-0.18-0.69-0.18-1.09c0-0.5,0.07-0.94,0.21-1.34
			c0.14-0.38,0.32-0.7,0.55-0.97c0.22-0.25,0.47-0.46,0.76-0.59c0.29-0.14,0.59-0.21,0.89-0.21c0.31,0,0.59,0.05,0.84,0.15
			c0.24,0.1,0.45,0.24,0.62,0.42c0.17,0.2,0.3,0.42,0.39,0.68c0.09,0.28,0.14,0.56,0.14,0.9c0,0.12,0,0.22,0,0.34
			C159.3,44.75,159.3,44.89,159.29,45.03z M158.29,43.7c-0.06-0.21-0.14-0.38-0.24-0.52c-0.1-0.14-0.22-0.24-0.37-0.31
			c-0.14-0.07-0.3-0.1-0.46-0.1c-0.16,0-0.31,0.05-0.47,0.14c-0.16,0.08-0.3,0.21-0.41,0.36c-0.13,0.15-0.22,0.33-0.3,0.53
			c-0.08,0.21-0.12,0.41-0.12,0.64h2.46C158.38,44.15,158.35,43.9,158.29,43.7z"/>
		<path d="M164.09,47.61c-0.14,0.12-0.29,0.21-0.44,0.28c-0.11-0.07-0.21-0.15-0.3-0.24c-0.08-0.1-0.16-0.21-0.23-0.32
			c-0.08,0.08-0.17,0.15-0.29,0.22c-0.13,0.07-0.24,0.13-0.38,0.17c-0.14,0.06-0.28,0.09-0.44,0.12c-0.15,0.04-0.3,0.05-0.45,0.05
			c-0.22,0-0.41-0.03-0.59-0.09c-0.18-0.07-0.33-0.15-0.46-0.26c-0.14-0.12-0.23-0.25-0.31-0.41c-0.07-0.15-0.1-0.32-0.1-0.51
			c0-0.25,0.07-0.5,0.21-0.71c0.13-0.23,0.32-0.43,0.59-0.6c0.25-0.17,0.56-0.31,0.93-0.41c0.37-0.09,0.79-0.15,1.27-0.15v-0.31
			c0-0.31-0.02-0.56-0.06-0.76c-0.05-0.2-0.1-0.35-0.18-0.46c-0.08-0.1-0.18-0.18-0.32-0.23c-0.13-0.03-0.28-0.06-0.46-0.06
			c-0.32,0-0.62,0.07-0.92,0.2c-0.29,0.13-0.56,0.31-0.81,0.55c-0.02-0.1-0.03-0.22-0.03-0.35c0-0.18,0.03-0.35,0.1-0.49
			c0.07-0.14,0.18-0.27,0.33-0.36c0.15-0.1,0.34-0.18,0.59-0.23c0.24-0.06,0.53-0.08,0.86-0.08c0.29,0,0.55,0.04,0.78,0.1
			c0.23,0.08,0.41,0.17,0.58,0.31c0.16,0.14,0.29,0.3,0.37,0.48c0.08,0.18,0.13,0.4,0.13,0.64c0,0.06,0,0.14-0.01,0.24
			c0,0.09,0,0.2-0.01,0.31c0,0.1-0.01,0.22-0.01,0.32s-0.01,0.21-0.01,0.29l-0.04,1.86c0.05,0.1,0.1,0.21,0.18,0.31
			c0.08,0.1,0.17,0.2,0.28,0.28C164.35,47.4,164.23,47.5,164.09,47.61z M163.1,45.26c-0.32,0-0.61,0.03-0.86,0.09
			c-0.25,0.07-0.46,0.15-0.62,0.25c-0.17,0.1-0.3,0.23-0.39,0.37c-0.08,0.15-0.13,0.29-0.13,0.45c0,0.23,0.08,0.41,0.23,0.55
			c0.15,0.14,0.37,0.21,0.67,0.21c0.09,0,0.18-0.01,0.28-0.02c0.1-0.02,0.21-0.05,0.3-0.07c0.1-0.02,0.2-0.06,0.29-0.1
			c0.09-0.04,0.17-0.07,0.24-0.12V45.26z"/>
		<path d="M170.27,47.48c-0.06,0.06-0.13,0.1-0.2,0.15c-0.07,0.05-0.14,0.09-0.22,0.14c-0.07,0.05-0.15,0.08-0.22,0.12
			c-0.11-0.08-0.22-0.18-0.32-0.3c-0.09-0.11-0.16-0.24-0.22-0.37c-0.07,0.07-0.16,0.14-0.28,0.21c-0.12,0.07-0.24,0.14-0.39,0.2
			c-0.15,0.06-0.3,0.12-0.47,0.15c-0.16,0.05-0.33,0.06-0.52,0.06c-0.24,0-0.46-0.03-0.66-0.1c-0.2-0.08-0.37-0.18-0.51-0.35
			c-0.14-0.15-0.24-0.34-0.32-0.59c-0.07-0.24-0.1-0.52-0.1-0.85v-2.95l-0.66-0.32v-0.24c0.26-0.08,0.51-0.13,0.72-0.16
			c0.22-0.05,0.4-0.06,0.56-0.06h0.38l-0.07,0.64v2.6c0,0.31,0.02,0.56,0.07,0.76c0.05,0.21,0.12,0.37,0.21,0.5
			c0.1,0.13,0.22,0.21,0.36,0.26c0.14,0.06,0.3,0.08,0.48,0.08c0.1,0,0.21-0.01,0.32-0.03c0.1-0.01,0.21-0.04,0.31-0.07
			c0.09-0.03,0.18-0.07,0.28-0.1c0.08-0.03,0.15-0.08,0.22-0.13v-3.73l-0.67-0.32v-0.24c0.26-0.08,0.51-0.13,0.73-0.16
			c0.22-0.05,0.41-0.06,0.58-0.06h0.38l-0.07,0.64v3.89c0.05,0.09,0.1,0.2,0.18,0.3c0.08,0.1,0.16,0.21,0.25,0.3
			C170.38,47.39,170.33,47.44,170.27,47.48z"/>
		<path d="M177.6,40.18c-0.01,0.07-0.02,0.14-0.05,0.2c-0.1-0.04-0.22-0.07-0.36-0.1c-0.13-0.04-0.25-0.06-0.39-0.08
			c-0.14-0.01-0.28-0.04-0.4-0.05c-0.14-0.01-0.26-0.01-0.38-0.01s-0.23,0.02-0.33,0.08c-0.1,0.06-0.2,0.14-0.26,0.24
			c-0.08,0.1-0.14,0.24-0.18,0.39c-0.05,0.16-0.07,0.33-0.07,0.54c0,0.05,0,0.1,0.01,0.2c0,0.09,0,0.18,0.01,0.29
			c0,0.1,0,0.21,0.01,0.31c0,0.09,0.01,0.17,0.01,0.24h1.46l-0.14,0.62h-1.33v4.18l0.73,0.17v0.22c-0.09,0.04-0.2,0.07-0.3,0.09
			c-0.09,0.02-0.21,0.05-0.31,0.06c-0.12,0.01-0.24,0.02-0.37,0.03c-0.14,0-0.28,0.01-0.44,0.01c-0.14,0-0.29-0.01-0.44-0.02
			c-0.15-0.01-0.3-0.03-0.43-0.08v-0.2c0.08-0.02,0.15-0.06,0.22-0.1c0.08-0.05,0.14-0.09,0.2-0.15c0.06-0.05,0.12-0.1,0.15-0.17
			c0.04-0.06,0.05-0.13,0.05-0.2v-3.84h-0.63v-0.4l0.63-0.25v-0.85c0-0.31,0.05-0.59,0.14-0.84c0.1-0.25,0.24-0.48,0.44-0.67
			c0.18-0.18,0.41-0.32,0.69-0.43c0.28-0.1,0.59-0.16,0.94-0.16c0.42,0,0.7,0.06,0.88,0.15c0.18,0.1,0.26,0.23,0.26,0.4
			C177.61,40.05,177.61,40.11,177.6,40.18z"/>
		<path d="M182.04,46.08c-0.15,0.38-0.34,0.7-0.6,0.98c-0.25,0.26-0.54,0.47-0.86,0.61c-0.33,0.15-0.67,0.22-1,0.22
			c-0.35,0-0.68-0.06-0.98-0.18c-0.31-0.12-0.58-0.29-0.8-0.52c-0.22-0.22-0.4-0.51-0.54-0.83c-0.13-0.33-0.2-0.7-0.2-1.13
			c0-0.47,0.08-0.9,0.22-1.28c0.15-0.38,0.36-0.71,0.6-0.98c0.25-0.26,0.54-0.47,0.86-0.62c0.32-0.15,0.67-0.22,1.02-0.22
			c0.36,0,0.68,0.07,0.99,0.2c0.31,0.13,0.58,0.3,0.79,0.54c0.23,0.23,0.4,0.51,0.53,0.83c0.14,0.33,0.2,0.69,0.2,1.09
			C182.27,45.26,182.2,45.7,182.04,46.08z M181.09,44c-0.08-0.25-0.2-0.47-0.33-0.66c-0.15-0.17-0.31-0.31-0.49-0.4
			c-0.18-0.09-0.38-0.14-0.59-0.14c-0.2,0-0.39,0.06-0.58,0.15c-0.2,0.1-0.37,0.24-0.51,0.44c-0.15,0.2-0.28,0.44-0.36,0.73
			c-0.09,0.29-0.14,0.62-0.14,1c0,0.34,0.05,0.66,0.13,0.91c0.08,0.27,0.2,0.48,0.33,0.67c0.15,0.17,0.31,0.31,0.5,0.4
			c0.18,0.08,0.38,0.13,0.59,0.13c0.2,0,0.38-0.05,0.58-0.14c0.18-0.09,0.36-0.24,0.51-0.44c0.15-0.18,0.26-0.43,0.36-0.72
			c0.09-0.29,0.14-0.63,0.14-1.02C181.22,44.56,181.17,44.26,181.09,44z"/>
		<path d="M186.59,43.01c-0.04,0.13-0.08,0.24-0.14,0.34c-0.1-0.08-0.22-0.15-0.34-0.2c-0.13-0.05-0.24-0.07-0.37-0.07
			c-0.36,0-0.69,0.16-1.01,0.47v3.66l0.79,0.17v0.22c-0.09,0.04-0.2,0.07-0.3,0.09c-0.09,0.02-0.2,0.05-0.31,0.06
			c-0.12,0.01-0.24,0.02-0.37,0.03c-0.14,0-0.29,0.01-0.45,0.01c-0.17,0-0.33-0.01-0.48-0.02c-0.16-0.01-0.31-0.03-0.44-0.08v-0.2
			c0.08-0.02,0.15-0.06,0.22-0.1c0.08-0.05,0.14-0.09,0.2-0.15c0.06-0.05,0.1-0.1,0.15-0.17c0.03-0.06,0.05-0.13,0.05-0.2v-3.89
			l-0.75-0.31v-0.25c0.26-0.08,0.52-0.13,0.76-0.16c0.24-0.04,0.45-0.05,0.62-0.05h0.28v0.81h0.01l0.32-0.36
			c0.15-0.17,0.32-0.3,0.48-0.38c0.16-0.08,0.33-0.13,0.53-0.13c0.4,0,0.6,0.16,0.6,0.49C186.63,42.76,186.62,42.88,186.59,43.01z"
			/>
		<path d="M64.37,60.7h-4.36v-0.26c0.12-0.03,0.22-0.07,0.3-0.12c0.09-0.05,0.16-0.1,0.21-0.17c0.06-0.07,0.09-0.15,0.13-0.24
			c0.02-0.09,0.03-0.2,0.03-0.32v-5.63l-0.73-0.31v-0.26h4.34l-0.09,1.69h-0.33l-0.03-0.21c-0.02-0.15-0.06-0.26-0.09-0.37
			c-0.05-0.1-0.1-0.18-0.17-0.25c-0.08-0.06-0.17-0.11-0.29-0.14c-0.12-0.04-0.26-0.05-0.45-0.05h-1.15v2.65h1.17
			c0.23,0,0.41-0.04,0.54-0.1c0.12-0.07,0.21-0.17,0.25-0.32l0.08-0.28h0.31v2.17h-0.31l-0.06-0.26c-0.08-0.39-0.28-0.59-0.59-0.59
			h-1.4v2.69h1.37c0.16,0,0.3-0.01,0.41-0.05c0.13-0.02,0.23-0.07,0.31-0.12c0.09-0.06,0.16-0.12,0.23-0.2
			c0.07-0.08,0.13-0.16,0.17-0.27l0.11-0.22h0.32L64.37,60.7z"/>
		<path d="M69.27,60.29c-0.07,0.12-0.17,0.22-0.32,0.31c-0.14,0.08-0.31,0.15-0.52,0.21c-0.21,0.05-0.45,0.07-0.73,0.07
			c-0.32,0-0.61-0.06-0.9-0.18c-0.28-0.13-0.52-0.31-0.73-0.54c-0.22-0.23-0.38-0.51-0.51-0.83c-0.13-0.33-0.18-0.69-0.18-1.09
			c0-0.47,0.07-0.9,0.21-1.28c0.14-0.38,0.33-0.7,0.58-0.97c0.24-0.27,0.53-0.47,0.86-0.61c0.32-0.15,0.68-0.22,1.06-0.22
			c0.23,0,0.43,0.02,0.59,0.06c0.16,0.04,0.29,0.08,0.38,0.14c0.1,0.06,0.17,0.14,0.21,0.22c0.05,0.08,0.07,0.17,0.07,0.26
			c0,0.12-0.01,0.22-0.03,0.31c-0.02,0.09-0.06,0.2-0.1,0.29c-0.22-0.17-0.44-0.3-0.64-0.39c-0.22-0.09-0.45-0.14-0.69-0.14
			c-0.2,0-0.39,0.05-0.56,0.14c-0.18,0.1-0.33,0.24-0.47,0.43c-0.14,0.17-0.24,0.4-0.32,0.66c-0.08,0.26-0.12,0.56-0.12,0.9
			c0,0.34,0.05,0.64,0.13,0.9c0.08,0.26,0.2,0.47,0.35,0.64c0.15,0.17,0.32,0.3,0.52,0.39c0.2,0.08,0.41,0.13,0.63,0.13
			c0.11,0,0.23-0.01,0.34-0.04c0.12-0.02,0.23-0.06,0.35-0.09c0.12-0.05,0.22-0.09,0.32-0.15c0.12-0.06,0.21-0.12,0.3-0.18
			c0.03,0.08,0.06,0.17,0.06,0.29C69.39,60.04,69.35,60.17,69.27,60.29z"/>
		<path d="M75.17,59.08c-0.15,0.38-0.35,0.7-0.6,0.98c-0.25,0.26-0.54,0.47-0.86,0.61c-0.33,0.15-0.67,0.22-1,0.22
			c-0.35,0-0.68-0.06-0.98-0.18c-0.31-0.12-0.58-0.29-0.81-0.52c-0.22-0.22-0.4-0.51-0.54-0.83c-0.13-0.33-0.2-0.7-0.2-1.13
			c0-0.47,0.08-0.9,0.22-1.28c0.15-0.38,0.36-0.71,0.6-0.98c0.25-0.26,0.54-0.47,0.86-0.62c0.32-0.15,0.67-0.22,1.02-0.22
			c0.36,0,0.68,0.07,0.99,0.2c0.31,0.13,0.58,0.3,0.79,0.54c0.23,0.23,0.4,0.51,0.53,0.83c0.14,0.33,0.2,0.69,0.2,1.09
			C75.4,58.26,75.33,58.7,75.17,59.08z M74.23,56.99c-0.08-0.25-0.2-0.47-0.33-0.66c-0.15-0.17-0.31-0.31-0.5-0.4
			c-0.18-0.09-0.38-0.14-0.59-0.14c-0.2,0-0.39,0.06-0.58,0.15c-0.2,0.1-0.37,0.24-0.51,0.44c-0.15,0.2-0.28,0.44-0.36,0.72
			c-0.09,0.29-0.14,0.62-0.14,1c0,0.34,0.05,0.66,0.13,0.91c0.08,0.26,0.2,0.48,0.33,0.67c0.15,0.17,0.31,0.31,0.49,0.4
			c0.18,0.08,0.38,0.13,0.59,0.13c0.2,0,0.38-0.05,0.58-0.14c0.18-0.09,0.36-0.24,0.51-0.44c0.15-0.18,0.26-0.43,0.36-0.72
			c0.09-0.29,0.14-0.63,0.14-1.02C74.36,57.56,74.31,57.26,74.23,56.99z"/>
		<path d="M80.5,60.8c-0.12,0-0.24-0.01-0.38-0.02c-0.13-0.01-0.25-0.03-0.37-0.08v-0.2c0.15-0.07,0.25-0.15,0.31-0.28
			c0.07-0.12,0.1-0.28,0.1-0.48v-2.2c0-0.28-0.03-0.52-0.08-0.71c-0.06-0.21-0.14-0.37-0.24-0.48c-0.1-0.13-0.22-0.22-0.36-0.28
			c-0.15-0.06-0.3-0.08-0.47-0.08c-0.23,0-0.46,0.03-0.67,0.1c-0.22,0.07-0.39,0.16-0.52,0.25v3.87l0.64,0.17v0.22
			c-0.1,0.03-0.2,0.07-0.29,0.09c-0.1,0.02-0.21,0.05-0.31,0.06s-0.22,0.02-0.35,0.03c-0.12,0-0.24,0.01-0.39,0.01
			c-0.14,0-0.29-0.01-0.44-0.02c-0.15-0.01-0.3-0.03-0.43-0.08v-0.2c0.08-0.02,0.15-0.06,0.22-0.1c0.08-0.05,0.14-0.09,0.2-0.15
			c0.06-0.04,0.1-0.1,0.15-0.17c0.03-0.06,0.05-0.13,0.05-0.2v-3.89l-0.75-0.31v-0.25c0.26-0.08,0.52-0.13,0.76-0.16
			c0.24-0.03,0.45-0.05,0.62-0.05h0.28v0.62c0.2-0.2,0.45-0.36,0.75-0.47c0.3-0.12,0.62-0.17,0.96-0.17c0.24,0,0.46,0.04,0.66,0.12
			c0.2,0.08,0.37,0.2,0.51,0.35c0.14,0.15,0.25,0.33,0.33,0.55c0.07,0.23,0.12,0.49,0.12,0.78v3.22l0.6,0.17v0.22
			C81.38,60.73,80.98,60.8,80.5,60.8z"/>
		<path d="M87.48,59.08c-0.15,0.38-0.35,0.7-0.6,0.98c-0.25,0.26-0.54,0.47-0.86,0.61c-0.33,0.15-0.67,0.22-1,0.22
			c-0.35,0-0.68-0.06-0.98-0.18c-0.31-0.12-0.58-0.29-0.81-0.52c-0.22-0.22-0.4-0.51-0.54-0.83c-0.13-0.33-0.2-0.7-0.2-1.13
			c0-0.47,0.08-0.9,0.22-1.28c0.15-0.38,0.36-0.71,0.6-0.98c0.25-0.26,0.54-0.47,0.86-0.62c0.32-0.15,0.67-0.22,1.02-0.22
			c0.36,0,0.68,0.07,0.99,0.2c0.31,0.13,0.58,0.3,0.79,0.54c0.23,0.23,0.4,0.51,0.53,0.83c0.14,0.33,0.2,0.69,0.2,1.09
			C87.71,58.26,87.64,58.7,87.48,59.08z M86.54,56.99c-0.08-0.25-0.2-0.47-0.33-0.66c-0.15-0.17-0.31-0.31-0.49-0.4
			c-0.18-0.09-0.38-0.14-0.59-0.14c-0.2,0-0.39,0.06-0.58,0.15c-0.2,0.1-0.37,0.24-0.51,0.44c-0.15,0.2-0.28,0.44-0.36,0.72
			c-0.09,0.29-0.14,0.62-0.14,1c0,0.34,0.05,0.66,0.13,0.91c0.08,0.26,0.2,0.48,0.33,0.67c0.15,0.17,0.31,0.31,0.49,0.4
			c0.18,0.08,0.38,0.13,0.59,0.13c0.2,0,0.38-0.05,0.58-0.14c0.18-0.09,0.36-0.24,0.51-0.44c0.15-0.18,0.26-0.43,0.36-0.72
			c0.09-0.29,0.14-0.63,0.14-1.02C86.66,57.56,86.62,57.26,86.54,56.99z"/>
		<path d="M96.52,60.76c-0.21,0.02-0.43,0.05-0.68,0.05c-0.12,0-0.24-0.01-0.37-0.02c-0.14-0.01-0.26-0.03-0.37-0.08v-0.2
			c0.15-0.07,0.25-0.15,0.31-0.28c0.07-0.12,0.1-0.28,0.1-0.48V57.5c0-0.26-0.02-0.48-0.08-0.68c-0.06-0.2-0.14-0.35-0.24-0.47
			c-0.1-0.13-0.22-0.22-0.37-0.28c-0.14-0.06-0.3-0.08-0.48-0.08c-0.21,0-0.4,0.02-0.6,0.07c-0.18,0.05-0.36,0.12-0.51,0.2
			c0.02,0.12,0.05,0.25,0.06,0.4c0.01,0.16,0.01,0.31,0.01,0.46v3.09l0.6,0.17v0.22c-0.16,0.07-0.35,0.12-0.54,0.15
			c-0.2,0.02-0.41,0.05-0.67,0.05c-0.13,0-0.24-0.01-0.38-0.02c-0.13-0.01-0.25-0.03-0.37-0.08v-0.2c0.15-0.07,0.25-0.15,0.32-0.28
			c0.06-0.12,0.09-0.28,0.09-0.48v-2.12c0-0.32-0.02-0.59-0.07-0.79c-0.05-0.21-0.11-0.38-0.21-0.51c-0.09-0.13-0.21-0.21-0.35-0.26
			c-0.14-0.05-0.29-0.07-0.47-0.07c-0.11,0-0.23,0.01-0.33,0.02c-0.12,0.02-0.22,0.05-0.32,0.08c-0.09,0.03-0.18,0.07-0.26,0.12
			c-0.08,0.04-0.16,0.09-0.22,0.14v3.87l0.64,0.17v0.22c-0.2,0.07-0.4,0.12-0.6,0.15c-0.21,0.02-0.45,0.05-0.74,0.05
			c-0.14,0-0.29-0.01-0.44-0.02c-0.15-0.01-0.3-0.03-0.43-0.08v-0.2c0.08-0.02,0.15-0.06,0.22-0.1c0.08-0.05,0.14-0.09,0.2-0.15
			c0.06-0.04,0.1-0.1,0.15-0.17c0.03-0.06,0.05-0.13,0.05-0.2v-3.89l-0.75-0.31v-0.25c0.26-0.08,0.52-0.13,0.76-0.16
			c0.24-0.03,0.45-0.05,0.62-0.05h0.28v0.62c0.21-0.2,0.45-0.36,0.75-0.47c0.29-0.12,0.61-0.17,0.94-0.17c0.14,0,0.28,0.01,0.4,0.05
			c0.13,0.03,0.25,0.08,0.37,0.15c0.12,0.06,0.22,0.14,0.31,0.22c0.09,0.09,0.16,0.18,0.22,0.29c0.09-0.09,0.21-0.17,0.33-0.26
			c0.14-0.08,0.29-0.16,0.45-0.22c0.16-0.07,0.32-0.12,0.5-0.16c0.16-0.04,0.33-0.06,0.49-0.06c0.24,0,0.46,0.04,0.66,0.12
			c0.2,0.07,0.37,0.18,0.51,0.33c0.14,0.15,0.24,0.35,0.32,0.58c0.08,0.23,0.12,0.5,0.12,0.81v3.19l0.6,0.17v0.22
			C96.9,60.68,96.72,60.72,96.52,60.76z"/>
		<path d="M99.84,60.7c-0.1,0.02-0.2,0.05-0.31,0.06c-0.1,0.01-0.22,0.02-0.33,0.03c-0.13,0-0.25,0.01-0.4,0.01
			c-0.13,0-0.28-0.01-0.43-0.02c-0.16-0.01-0.31-0.03-0.44-0.08v-0.2c0.08-0.02,0.15-0.06,0.23-0.1c0.07-0.05,0.14-0.09,0.2-0.15
			c0.06-0.04,0.1-0.1,0.14-0.17c0.03-0.06,0.05-0.13,0.05-0.2v-3.89l-0.74-0.31v-0.24c0.26-0.08,0.52-0.13,0.76-0.16
			c0.24-0.05,0.45-0.06,0.61-0.06h0.37l-0.06,0.62v4.37l0.64,0.17v0.22C100.02,60.64,99.93,60.68,99.84,60.7z M99.62,53.74
			c-0.03,0.08-0.08,0.16-0.14,0.22c-0.06,0.07-0.13,0.12-0.21,0.15c-0.08,0.04-0.16,0.06-0.25,0.06c-0.08,0-0.16-0.01-0.24-0.05
			c-0.07-0.03-0.14-0.08-0.2-0.14c-0.05-0.06-0.09-0.13-0.13-0.21c-0.03-0.08-0.05-0.17-0.05-0.27c0-0.09,0.01-0.17,0.05-0.25
			c0.02-0.08,0.07-0.15,0.13-0.22c0.06-0.07,0.13-0.12,0.21-0.15c0.08-0.03,0.17-0.06,0.28-0.06c0.08,0,0.16,0.01,0.23,0.05
			c0.07,0.02,0.14,0.07,0.2,0.13c0.06,0.05,0.09,0.12,0.13,0.2c0.03,0.07,0.05,0.16,0.05,0.25C99.66,53.56,99.65,53.65,99.62,53.74z
			"/>
		<path d="M104.77,60.29c-0.07,0.12-0.17,0.22-0.32,0.31c-0.14,0.08-0.31,0.15-0.52,0.21c-0.21,0.05-0.45,0.07-0.73,0.07
			c-0.32,0-0.61-0.06-0.9-0.18c-0.28-0.13-0.52-0.31-0.73-0.54c-0.22-0.23-0.38-0.51-0.51-0.83c-0.13-0.33-0.18-0.69-0.18-1.09
			c0-0.47,0.07-0.9,0.21-1.28c0.14-0.38,0.33-0.7,0.58-0.97c0.24-0.27,0.53-0.47,0.86-0.61c0.32-0.15,0.68-0.22,1.06-0.22
			c0.23,0,0.43,0.02,0.59,0.06c0.16,0.04,0.29,0.08,0.38,0.14c0.1,0.06,0.17,0.14,0.21,0.22c0.05,0.08,0.07,0.17,0.07,0.26
			c0,0.12-0.01,0.22-0.03,0.31c-0.02,0.09-0.06,0.2-0.1,0.29c-0.22-0.17-0.44-0.3-0.64-0.39c-0.22-0.09-0.45-0.14-0.69-0.14
			c-0.2,0-0.39,0.05-0.56,0.14c-0.18,0.1-0.33,0.24-0.47,0.43c-0.14,0.17-0.24,0.4-0.32,0.66c-0.08,0.26-0.12,0.56-0.12,0.9
			c0,0.34,0.05,0.64,0.13,0.9c0.08,0.26,0.2,0.47,0.35,0.64c0.15,0.17,0.32,0.3,0.52,0.39c0.2,0.08,0.41,0.13,0.63,0.13
			c0.11,0,0.23-0.01,0.34-0.04c0.12-0.02,0.23-0.06,0.35-0.09c0.12-0.05,0.22-0.09,0.32-0.15c0.12-0.06,0.21-0.12,0.3-0.18
			c0.03,0.08,0.06,0.17,0.06,0.29C104.89,60.04,104.85,60.17,104.77,60.29z"/>
		<path d="M112.98,56.52c-0.15,0.31-0.36,0.59-0.61,0.82c-0.26,0.24-0.55,0.41-0.89,0.55c-0.33,0.13-0.68,0.2-1.04,0.2
			c-0.14,0-0.26-0.01-0.39-0.05c-0.12-0.03-0.23-0.08-0.33-0.13v2.27l0.84,0.18v0.25c-0.18,0.06-0.39,0.1-0.63,0.14
			c-0.24,0.03-0.5,0.06-0.76,0.06c-0.08,0-0.18,0-0.28-0.01c-0.1,0-0.2-0.01-0.3-0.01c-0.1-0.01-0.2-0.02-0.29-0.05
			c-0.09-0.01-0.18-0.02-0.25-0.05v-0.22c0.22-0.07,0.39-0.16,0.51-0.29c0.1-0.13,0.16-0.31,0.16-0.55v-5.67L108,53.73v-0.25
			c0.18-0.04,0.37-0.06,0.54-0.08c0.17-0.02,0.36-0.03,0.54-0.05s0.39-0.02,0.6-0.02c0.21-0.01,0.44-0.01,0.69-0.01
			c0.93,0,1.63,0.18,2.12,0.56c0.48,0.37,0.72,0.91,0.72,1.61C113.21,55.86,113.13,56.2,112.98,56.52z M112.01,54.91
			c-0.09-0.21-0.22-0.38-0.38-0.53c-0.16-0.14-0.35-0.25-0.58-0.32c-0.23-0.08-0.48-0.12-0.77-0.12c-0.18,0-0.38,0.01-0.58,0.04
			v3.34c0.12,0.04,0.24,0.06,0.37,0.07c0.13,0.01,0.25,0.02,0.37,0.02c0.24,0,0.46-0.04,0.67-0.13c0.21-0.08,0.38-0.2,0.54-0.36
			c0.15-0.15,0.26-0.33,0.36-0.56c0.08-0.22,0.13-0.47,0.13-0.75C112.14,55.35,112.09,55.12,112.01,54.91z"/>
		<path d="M118.73,59.08c-0.15,0.38-0.35,0.7-0.6,0.98c-0.25,0.26-0.54,0.47-0.86,0.61c-0.33,0.15-0.67,0.22-1,0.22
			c-0.35,0-0.68-0.06-0.98-0.18c-0.31-0.12-0.58-0.29-0.81-0.52c-0.22-0.22-0.4-0.51-0.54-0.83c-0.13-0.33-0.2-0.7-0.2-1.13
			c0-0.47,0.08-0.9,0.22-1.28c0.15-0.38,0.36-0.71,0.6-0.98c0.25-0.26,0.54-0.47,0.86-0.62c0.32-0.15,0.67-0.22,1.02-0.22
			c0.36,0,0.68,0.07,0.99,0.2c0.31,0.13,0.58,0.3,0.79,0.54c0.23,0.23,0.4,0.51,0.53,0.83c0.14,0.33,0.2,0.69,0.2,1.09
			C118.96,58.26,118.89,58.7,118.73,59.08z M117.79,56.99c-0.08-0.25-0.2-0.47-0.33-0.66c-0.15-0.17-0.31-0.31-0.49-0.4
			c-0.18-0.09-0.38-0.14-0.59-0.14c-0.2,0-0.39,0.06-0.58,0.15c-0.2,0.1-0.37,0.24-0.51,0.44c-0.15,0.2-0.28,0.44-0.36,0.72
			c-0.09,0.29-0.14,0.62-0.14,1c0,0.34,0.05,0.66,0.13,0.91c0.08,0.26,0.2,0.48,0.33,0.67c0.15,0.17,0.31,0.31,0.49,0.4
			c0.18,0.08,0.38,0.13,0.59,0.13c0.2,0,0.38-0.05,0.58-0.14c0.18-0.09,0.36-0.24,0.51-0.44c0.15-0.18,0.26-0.43,0.36-0.72
			c0.09-0.29,0.14-0.63,0.14-1.02C117.91,57.56,117.87,57.26,117.79,56.99z"/>
		<path d="M121.76,60.7c-0.1,0.02-0.21,0.05-0.31,0.06c-0.1,0.01-0.22,0.02-0.35,0.03c-0.12,0-0.24,0.01-0.39,0.01
			c-0.14,0-0.29-0.01-0.44-0.02c-0.15-0.01-0.3-0.03-0.43-0.08v-0.2c0.08-0.02,0.15-0.06,0.22-0.1c0.08-0.05,0.14-0.09,0.2-0.15
			c0.06-0.04,0.1-0.1,0.15-0.17c0.03-0.06,0.05-0.13,0.05-0.2v-6.67l-0.75-0.31v-0.25c0.13-0.03,0.26-0.07,0.39-0.09
			c0.13-0.02,0.25-0.05,0.38-0.07c0.11-0.01,0.23-0.02,0.33-0.03c0.1,0,0.2-0.01,0.28-0.01h0.37l-0.06,0.64v7.13l0.64,0.17v0.22
			C121.94,60.64,121.85,60.68,121.76,60.7z"/>
		<path d="M124.78,60.7c-0.1,0.02-0.2,0.05-0.31,0.06c-0.1,0.01-0.22,0.02-0.33,0.03c-0.13,0-0.25,0.01-0.4,0.01
			c-0.13,0-0.28-0.01-0.43-0.02c-0.16-0.01-0.31-0.03-0.44-0.08v-0.2c0.08-0.02,0.15-0.06,0.23-0.1c0.07-0.05,0.14-0.09,0.2-0.15
			c0.06-0.04,0.1-0.1,0.14-0.17c0.04-0.06,0.05-0.13,0.05-0.2v-3.89l-0.74-0.31v-0.24c0.26-0.08,0.52-0.13,0.76-0.16
			c0.24-0.05,0.45-0.06,0.61-0.06h0.37l-0.06,0.62v4.37l0.64,0.17v0.22C124.97,60.64,124.88,60.68,124.78,60.7z M124.56,53.74
			c-0.03,0.08-0.08,0.16-0.14,0.22c-0.06,0.07-0.13,0.12-0.21,0.15c-0.08,0.04-0.16,0.06-0.25,0.06c-0.08,0-0.16-0.01-0.24-0.05
			c-0.07-0.03-0.14-0.08-0.2-0.14c-0.05-0.06-0.09-0.13-0.13-0.21c-0.03-0.08-0.05-0.17-0.05-0.27c0-0.09,0.01-0.17,0.05-0.25
			c0.02-0.08,0.07-0.15,0.13-0.22c0.06-0.07,0.13-0.12,0.21-0.15c0.08-0.03,0.17-0.06,0.28-0.06c0.08,0,0.16,0.01,0.23,0.05
			c0.07,0.02,0.14,0.07,0.2,0.13c0.06,0.05,0.09,0.12,0.13,0.2c0.04,0.07,0.05,0.16,0.05,0.25
			C124.61,53.56,124.6,53.65,124.56,53.74z"/>
		<path d="M129.72,60.29c-0.07,0.12-0.17,0.22-0.32,0.31c-0.14,0.08-0.31,0.15-0.52,0.21c-0.21,0.05-0.45,0.07-0.73,0.07
			c-0.32,0-0.61-0.06-0.9-0.18c-0.28-0.13-0.52-0.31-0.72-0.54c-0.22-0.23-0.38-0.51-0.51-0.83c-0.13-0.33-0.18-0.69-0.18-1.09
			c0-0.47,0.07-0.9,0.21-1.28c0.14-0.38,0.33-0.7,0.58-0.97c0.24-0.27,0.53-0.47,0.86-0.61c0.32-0.15,0.68-0.22,1.06-0.22
			c0.23,0,0.42,0.02,0.59,0.06c0.16,0.04,0.29,0.08,0.38,0.14c0.1,0.06,0.17,0.14,0.21,0.22c0.05,0.08,0.07,0.17,0.07,0.26
			c0,0.12-0.01,0.22-0.04,0.31c-0.02,0.09-0.06,0.2-0.1,0.29c-0.22-0.17-0.44-0.3-0.64-0.39c-0.22-0.09-0.45-0.14-0.69-0.14
			c-0.2,0-0.39,0.05-0.56,0.14c-0.18,0.1-0.33,0.24-0.47,0.43c-0.14,0.17-0.24,0.4-0.32,0.66c-0.08,0.26-0.12,0.56-0.12,0.9
			c0,0.34,0.05,0.64,0.13,0.9c0.08,0.26,0.2,0.47,0.34,0.64c0.15,0.17,0.32,0.3,0.52,0.39c0.2,0.08,0.41,0.13,0.63,0.13
			c0.11,0,0.23-0.01,0.34-0.04c0.12-0.02,0.23-0.06,0.35-0.09c0.12-0.05,0.22-0.09,0.32-0.15c0.12-0.06,0.21-0.12,0.3-0.18
			c0.03,0.08,0.06,0.17,0.06,0.29C129.83,60.04,129.8,60.17,129.72,60.29z"/>
		<path d="M134.78,55.75l-1.61,4.49c-0.23,0.63-0.46,1.16-0.68,1.58c-0.22,0.43-0.44,0.76-0.64,1.01c-0.21,0.25-0.4,0.42-0.59,0.53
			c-0.18,0.12-0.34,0.16-0.5,0.16c-0.12,0-0.22-0.01-0.31-0.05c-0.08-0.02-0.16-0.07-0.22-0.14c-0.06-0.07-0.1-0.16-0.13-0.28
			c-0.03-0.13-0.05-0.26-0.05-0.44c0.08,0.02,0.16,0.04,0.24,0.04c0.08,0.01,0.17,0.01,0.28,0.01c0.12,0,0.25-0.04,0.39-0.1
			c0.15-0.08,0.29-0.18,0.44-0.33c0.15-0.14,0.3-0.33,0.44-0.55c0.14-0.23,0.26-0.49,0.39-0.8l0.2-0.52l-1.82-4.52l-0.44-0.33v-0.28
			h2.12v0.28l-0.63,0.28l1.22,3.51h0.02l1.09-3.47l-0.66-0.31v-0.28h1.74v0.28L134.78,55.75z"/>
		<path d="M143.09,60.77c-0.18,0.02-0.38,0.05-0.59,0.05c-0.22,0-0.41-0.01-0.61-0.02c-0.18-0.01-0.38-0.05-0.59-0.09v-0.22
			c0.22-0.06,0.38-0.14,0.46-0.25c0.08-0.1,0.1-0.24,0.07-0.38l-0.4-1.43h-2.32l-0.53,1.79l0.68,0.15v0.25
			c-0.1,0.03-0.21,0.07-0.3,0.09c-0.1,0.02-0.2,0.05-0.3,0.06c-0.1,0.01-0.21,0.02-0.31,0.03c-0.1,0-0.22,0.01-0.35,0.01
			c-0.14,0-0.26-0.01-0.41-0.02c-0.14-0.02-0.29-0.05-0.44-0.09v-0.22c0.09-0.03,0.17-0.07,0.24-0.1c0.07-0.03,0.13-0.09,0.17-0.15
			c0.06-0.05,0.1-0.12,0.15-0.2c0.03-0.08,0.08-0.17,0.12-0.29l2.29-6.37l0.79-0.1l2.13,6.91l0.59,0.2v0.24
			C143.47,60.69,143.29,60.73,143.09,60.77z M140.39,54.49h-0.01l-1.07,3.31h1.99L140.39,54.49z"/>
		<path d="M148.28,60.8c-0.12,0-0.24-0.01-0.38-0.02c-0.13-0.01-0.25-0.03-0.37-0.08v-0.2c0.15-0.07,0.25-0.15,0.31-0.28
			c0.07-0.12,0.1-0.28,0.1-0.48v-2.2c0-0.28-0.03-0.52-0.08-0.71c-0.06-0.21-0.14-0.37-0.24-0.48c-0.1-0.13-0.22-0.22-0.36-0.28
			c-0.15-0.06-0.3-0.08-0.47-0.08c-0.23,0-0.46,0.03-0.67,0.1c-0.22,0.07-0.39,0.16-0.52,0.25v3.87l0.64,0.17v0.22
			c-0.1,0.03-0.2,0.07-0.29,0.09c-0.1,0.02-0.21,0.05-0.31,0.06s-0.22,0.02-0.34,0.03c-0.12,0-0.24,0.01-0.39,0.01
			c-0.14,0-0.29-0.01-0.44-0.02c-0.15-0.01-0.3-0.03-0.43-0.08v-0.2c0.08-0.02,0.15-0.06,0.22-0.1c0.08-0.05,0.14-0.09,0.2-0.15
			c0.06-0.04,0.1-0.1,0.15-0.17c0.03-0.06,0.05-0.13,0.05-0.2v-3.89l-0.75-0.31v-0.25c0.26-0.08,0.52-0.13,0.76-0.16
			c0.24-0.03,0.45-0.05,0.62-0.05h0.28v0.62c0.2-0.2,0.45-0.36,0.75-0.47c0.3-0.12,0.62-0.17,0.95-0.17c0.24,0,0.46,0.04,0.66,0.12
			c0.2,0.08,0.37,0.2,0.51,0.35c0.14,0.15,0.25,0.33,0.33,0.55c0.07,0.23,0.12,0.49,0.12,0.78v3.22l0.6,0.17v0.22
			C149.17,60.73,148.76,60.8,148.28,60.8z"/>
		<path d="M154.2,60.61c-0.14,0.12-0.29,0.21-0.44,0.28c-0.11-0.07-0.21-0.15-0.3-0.24c-0.08-0.1-0.16-0.21-0.23-0.32
			c-0.08,0.08-0.17,0.15-0.29,0.22c-0.13,0.07-0.24,0.13-0.38,0.17c-0.14,0.06-0.28,0.09-0.44,0.12c-0.15,0.03-0.3,0.05-0.45,0.05
			c-0.22,0-0.41-0.04-0.59-0.09c-0.18-0.07-0.33-0.15-0.46-0.26c-0.14-0.12-0.23-0.25-0.31-0.41c-0.07-0.15-0.1-0.32-0.1-0.51
			c0-0.25,0.07-0.5,0.21-0.71c0.13-0.23,0.32-0.43,0.59-0.6c0.25-0.17,0.56-0.31,0.93-0.41c0.37-0.09,0.79-0.15,1.27-0.15v-0.31
			c0-0.31-0.02-0.56-0.06-0.76c-0.05-0.2-0.1-0.34-0.18-0.46c-0.08-0.1-0.18-0.18-0.32-0.23c-0.13-0.03-0.28-0.06-0.46-0.06
			c-0.32,0-0.62,0.07-0.92,0.2c-0.29,0.13-0.56,0.31-0.81,0.55c-0.02-0.1-0.03-0.22-0.03-0.34c0-0.18,0.03-0.35,0.1-0.5
			c0.07-0.14,0.18-0.26,0.33-0.36c0.15-0.1,0.34-0.18,0.59-0.23c0.24-0.06,0.53-0.08,0.86-0.08c0.29,0,0.55,0.03,0.78,0.1
			c0.23,0.08,0.41,0.17,0.58,0.31c0.16,0.14,0.29,0.3,0.37,0.48c0.08,0.18,0.13,0.4,0.13,0.64c0,0.06,0,0.14-0.01,0.24
			c0,0.09,0,0.2-0.01,0.31c0,0.1-0.01,0.22-0.01,0.32s-0.01,0.21-0.01,0.29l-0.04,1.86c0.05,0.1,0.1,0.21,0.18,0.31
			c0.08,0.1,0.17,0.2,0.28,0.28C154.47,60.4,154.35,60.5,154.2,60.61z M153.21,58.26c-0.32,0-0.61,0.04-0.86,0.09
			c-0.25,0.07-0.46,0.15-0.62,0.25c-0.17,0.1-0.3,0.23-0.39,0.37c-0.08,0.15-0.13,0.29-0.13,0.45c0,0.23,0.08,0.41,0.23,0.55
			c0.15,0.14,0.37,0.21,0.67,0.21c0.09,0,0.18-0.01,0.28-0.02c0.1-0.02,0.21-0.05,0.3-0.07c0.1-0.02,0.2-0.06,0.29-0.1
			c0.09-0.04,0.17-0.07,0.24-0.12V58.26z"/>
		<path d="M157.39,60.7c-0.1,0.02-0.21,0.05-0.31,0.06c-0.1,0.01-0.22,0.02-0.34,0.03c-0.12,0-0.24,0.01-0.39,0.01
			c-0.14,0-0.29-0.01-0.44-0.02c-0.15-0.01-0.3-0.03-0.43-0.08v-0.2c0.08-0.02,0.15-0.06,0.22-0.1c0.08-0.05,0.14-0.09,0.2-0.15
			c0.06-0.04,0.1-0.1,0.15-0.17c0.03-0.06,0.05-0.13,0.05-0.2v-6.67l-0.75-0.31v-0.25c0.13-0.03,0.26-0.07,0.39-0.09
			c0.13-0.02,0.25-0.05,0.38-0.07c0.12-0.01,0.23-0.02,0.33-0.03c0.1,0,0.2-0.01,0.28-0.01h0.37l-0.06,0.64v7.13l0.64,0.17v0.22
			C157.57,60.64,157.48,60.68,157.39,60.7z"/>
		<path d="M162.6,55.75l-1.61,4.49c-0.23,0.63-0.46,1.16-0.68,1.58c-0.22,0.43-0.44,0.76-0.64,1.01c-0.21,0.25-0.4,0.42-0.59,0.53
			c-0.18,0.12-0.35,0.16-0.5,0.16c-0.12,0-0.22-0.01-0.31-0.05c-0.08-0.02-0.16-0.07-0.22-0.14c-0.06-0.07-0.1-0.16-0.13-0.28
			c-0.04-0.13-0.05-0.26-0.05-0.44c0.08,0.02,0.16,0.04,0.24,0.04c0.08,0.01,0.17,0.01,0.28,0.01c0.12,0,0.25-0.04,0.39-0.1
			c0.15-0.08,0.29-0.18,0.44-0.33c0.15-0.14,0.3-0.33,0.44-0.55c0.14-0.23,0.26-0.49,0.39-0.8l0.2-0.52l-1.82-4.52l-0.44-0.33v-0.28
			h2.12v0.28l-0.63,0.28l1.22,3.51h0.02l1.09-3.47l-0.66-0.31v-0.28h1.74v0.28L162.6,55.75z"/>
		<path d="M166.68,59.82c-0.1,0.2-0.25,0.38-0.44,0.53c-0.18,0.16-0.41,0.29-0.68,0.38c-0.25,0.09-0.55,0.14-0.88,0.14
			c-0.51,0-0.87-0.08-1.1-0.24c-0.24-0.15-0.36-0.39-0.36-0.7c0-0.08,0.01-0.16,0.02-0.25c0.02-0.08,0.05-0.15,0.08-0.22
			c0.25,0.24,0.52,0.43,0.77,0.54c0.26,0.13,0.54,0.18,0.85,0.18c0.32,0,0.56-0.07,0.74-0.21c0.16-0.14,0.24-0.3,0.24-0.51
			c0-0.1-0.01-0.2-0.05-0.28c-0.03-0.08-0.09-0.16-0.16-0.24c-0.08-0.08-0.18-0.15-0.31-0.23c-0.11-0.07-0.28-0.15-0.47-0.23
			l-0.58-0.24c-0.33-0.14-0.59-0.33-0.77-0.57c-0.17-0.24-0.26-0.52-0.26-0.85c0-0.23,0.05-0.45,0.14-0.64
			c0.1-0.21,0.24-0.39,0.41-0.54c0.17-0.15,0.38-0.28,0.63-0.37c0.24-0.09,0.52-0.14,0.82-0.14c0.23,0,0.43,0.02,0.59,0.06
			c0.16,0.02,0.3,0.08,0.4,0.14c0.1,0.06,0.18,0.14,0.23,0.22c0.05,0.09,0.07,0.2,0.07,0.3c0,0.09,0,0.17-0.01,0.24
			c-0.01,0.08-0.04,0.16-0.05,0.24c-0.18-0.13-0.39-0.23-0.63-0.31c-0.23-0.08-0.46-0.13-0.68-0.13c-0.18,0-0.35,0.02-0.48,0.06
			c-0.14,0.04-0.24,0.09-0.33,0.15c-0.09,0.07-0.16,0.15-0.21,0.23c-0.03,0.09-0.06,0.18-0.06,0.28c0,0.1,0.01,0.2,0.03,0.28
			c0.04,0.09,0.08,0.16,0.15,0.23c0.07,0.08,0.16,0.15,0.28,0.21c0.12,0.07,0.26,0.13,0.44,0.2l0.62,0.24
			c0.21,0.08,0.38,0.17,0.53,0.26c0.14,0.09,0.26,0.2,0.36,0.31c0.08,0.13,0.15,0.25,0.2,0.39c0.03,0.14,0.06,0.3,0.06,0.46
			C166.83,59.4,166.78,59.62,166.68,59.82z"/>
		<path d="M169.52,60.7c-0.1,0.02-0.2,0.05-0.31,0.06c-0.1,0.01-0.22,0.02-0.33,0.03c-0.13,0-0.25,0.01-0.4,0.01
			c-0.13,0-0.28-0.01-0.43-0.02c-0.16-0.01-0.31-0.03-0.44-0.08v-0.2c0.08-0.02,0.15-0.06,0.23-0.1c0.07-0.05,0.14-0.09,0.2-0.15
			c0.06-0.04,0.1-0.1,0.14-0.17c0.03-0.06,0.05-0.13,0.05-0.2v-3.89l-0.74-0.31v-0.24c0.26-0.08,0.52-0.13,0.76-0.16
			c0.24-0.05,0.45-0.06,0.61-0.06h0.37l-0.06,0.62v4.37l0.64,0.17v0.22C169.7,60.64,169.61,60.68,169.52,60.7z M169.3,53.74
			c-0.04,0.08-0.08,0.16-0.14,0.22c-0.06,0.07-0.13,0.12-0.21,0.15c-0.08,0.04-0.16,0.06-0.25,0.06c-0.08,0-0.16-0.01-0.24-0.05
			c-0.07-0.03-0.14-0.08-0.2-0.14c-0.05-0.06-0.09-0.13-0.13-0.21c-0.04-0.08-0.05-0.17-0.05-0.27c0-0.09,0.01-0.17,0.05-0.25
			c0.02-0.08,0.07-0.15,0.13-0.22c0.06-0.07,0.13-0.12,0.21-0.15c0.08-0.03,0.17-0.06,0.28-0.06c0.08,0,0.16,0.01,0.23,0.05
			c0.07,0.02,0.14,0.07,0.2,0.13c0.06,0.05,0.09,0.12,0.13,0.2c0.03,0.07,0.05,0.16,0.05,0.25
			C169.35,53.56,169.34,53.65,169.3,53.74z"/>
		<path d="M173.96,59.82c-0.1,0.2-0.25,0.38-0.44,0.53c-0.18,0.16-0.41,0.29-0.68,0.38c-0.25,0.09-0.55,0.14-0.88,0.14
			c-0.51,0-0.87-0.08-1.1-0.24c-0.24-0.15-0.36-0.39-0.36-0.7c0-0.08,0.01-0.16,0.02-0.25c0.02-0.08,0.05-0.15,0.08-0.22
			c0.25,0.24,0.52,0.43,0.77,0.54c0.26,0.13,0.54,0.18,0.85,0.18c0.32,0,0.56-0.07,0.74-0.21c0.16-0.14,0.24-0.3,0.24-0.51
			c0-0.1-0.01-0.2-0.05-0.28c-0.03-0.08-0.09-0.16-0.16-0.24c-0.08-0.08-0.18-0.15-0.31-0.23c-0.11-0.07-0.28-0.15-0.47-0.23
			l-0.58-0.24c-0.33-0.14-0.59-0.33-0.77-0.57c-0.17-0.24-0.26-0.52-0.26-0.85c0-0.23,0.05-0.45,0.14-0.64
			c0.1-0.21,0.24-0.39,0.42-0.54c0.17-0.15,0.38-0.28,0.63-0.37c0.24-0.09,0.52-0.14,0.82-0.14c0.23,0,0.43,0.02,0.59,0.06
			c0.16,0.02,0.3,0.08,0.4,0.14c0.1,0.06,0.18,0.14,0.23,0.22c0.05,0.09,0.07,0.2,0.07,0.3c0,0.09,0,0.17-0.01,0.24
			c-0.01,0.08-0.04,0.16-0.05,0.24c-0.18-0.13-0.39-0.23-0.63-0.31c-0.23-0.08-0.46-0.13-0.68-0.13c-0.18,0-0.35,0.02-0.48,0.06
			c-0.14,0.04-0.24,0.09-0.33,0.15c-0.09,0.07-0.16,0.15-0.21,0.23c-0.03,0.09-0.06,0.18-0.06,0.28c0,0.1,0.01,0.2,0.03,0.28
			c0.04,0.09,0.08,0.16,0.15,0.23c0.07,0.08,0.16,0.15,0.28,0.21c0.12,0.07,0.26,0.13,0.44,0.2l0.62,0.24
			c0.21,0.08,0.38,0.17,0.53,0.26c0.14,0.09,0.26,0.2,0.36,0.31c0.08,0.13,0.15,0.25,0.2,0.39c0.03,0.14,0.06,0.3,0.06,0.46
			C174.11,59.4,174.06,59.62,173.96,59.82z"/>
	</g>
</g>
<rect x="14.67" class="st1" width="36.85" height="73.7"/>
<path class="st2" d="M33.73,56.96h-0.64v-1.78h0.64V56.96z M36.62,49.13h-0.64v-1.78h0.64V49.13z M24.76,46.07
	c-0.05,0-0.38,0-0.38,0.07c0,0.07,0.15,0.03,0.38,0.07c0.51,0.09,0.71,0.35,1.07,0.35c0.33,0,0.66-0.22,0.53-0.69
	c-0.02-0.08-0.07-0.06-0.08-0.01c-0.05,0.21-0.31,0.33-0.58,0.33C25.36,46.18,25.29,46.07,24.76,46.07z M21.23,47.84
	c0.06,0.08,0.66,0.86-0.27,1.16c-0.04,0.01-0.06,0.05,0.01,0.08c0.69,0.29,1.02-0.24,1.02-0.24c0.34,0.79-0.18,1.23-0.18,1.23
	c0.07,0.14,0.4,0.38,0.9,0.49c0.19-0.1,0.45-0.29,0.56-0.59c0,0,0.13,0.34,0.01,0.67c1.4,0.13,1.9-0.99,2.97-0.79
	c0.03,0.01,0.05-0.01,0.05-0.05c0-0.69-0.42-1.95-1.76-2.21c-1.33-0.26-0.97-0.8-0.97-0.8c0.56-0.03,0.89,0.22,0.89,0.22
	c0.1-0.17-0.04-0.35-0.04-0.35c0.05-0.06,0.08-0.29,0.08-0.29c-0.63,0-0.8-0.14-0.8-0.14c-0.1-0.38,0.16-0.91,1.1-0.34
	c0.23-0.21,0.22-0.53,0.22-0.53c0.07-0.03,0.11-0.14,0.11-0.19c0-0.16-0.75-0.58-0.94-0.63c-0.05-0.23-0.34-0.56-1.22-0.44
	c-0.42,0.05-0.72-0.06-0.58-0.3c0.02-0.04-0.05-0.05-0.09-0.01c-0.1,0.1-0.23,0.37,0.14,0.55c0.4,0.21,0.43,0.61,0.43,0.67
	c0.01,0.09-0.1,0.09-0.12,0.01c-0.19-0.69-1.12-0.83-1.68-0.47c0.03,0.37,0.43,0.61,0.64,0.61c0.12,0,0.3-0.12,0.3-0.29
	c0-0.08,0.04-0.07,0.07-0.01c0.09,0.24-0.27,0.75-0.81,0.44c-0.55,0.55-0.33,1.22-0.27,1.47c0.1,0.45-0.12,0.88-0.52,0.68
	c-0.02-0.01-0.04-0.02-0.04,0.03C20.43,47.77,20.8,48.08,21.23,47.84z M24.23,45.09c-0.25,0.28-0.67,0.22-0.77-0.25
	C23.99,44.81,24.21,44.86,24.23,45.09z M40.48,46.18c-0.27,0-0.53-0.12-0.58-0.33c-0.01-0.05-0.06-0.07-0.08,0.01
	c-0.13,0.47,0.2,0.69,0.53,0.69c0.36,0,0.56-0.26,1.07-0.35c0.23-0.04,0.38,0,0.38-0.07c0-0.07-0.33-0.07-0.38-0.07
	C40.89,46.07,40.82,46.18,40.48,46.18z M45.75,47.48c0-0.05-0.02-0.04-0.04-0.03c-0.4,0.2-0.62-0.23-0.52-0.68
	c0.05-0.25,0.27-0.92-0.27-1.47c-0.54,0.31-0.9-0.2-0.81-0.44c0.02-0.06,0.07-0.08,0.07,0.01c0,0.17,0.17,0.29,0.3,0.29
	c0.22,0,0.61-0.24,0.64-0.61c-0.55-0.36-1.49-0.22-1.68,0.47c-0.02,0.09-0.13,0.08-0.12-0.01c0-0.06,0.03-0.46,0.43-0.67
	c0.37-0.18,0.23-0.46,0.14-0.55c-0.04-0.04-0.11-0.03-0.09,0.01c0.14,0.24-0.16,0.35-0.58,0.3c-0.88-0.12-1.17,0.21-1.22,0.44
	c-0.19,0.05-0.94,0.47-0.94,0.63c0,0.05,0.04,0.16,0.11,0.19c0,0-0.02,0.32,0.22,0.53c0.94-0.57,1.2-0.04,1.1,0.34
	c0,0-0.17,0.14-0.8,0.14c0,0,0.03,0.23,0.08,0.29c0,0-0.14,0.18-0.04,0.35c0,0,0.32-0.24,0.89-0.22c0,0,0.36,0.55-0.97,0.8
	c-1.33,0.26-1.76,1.52-1.76,2.21c0,0.03,0.01,0.05,0.05,0.05c1.08-0.2,1.57,0.92,2.97,0.79c-0.12-0.33,0.01-0.67,0.01-0.67
	c0.11,0.3,0.38,0.49,0.56,0.59c0.5-0.11,0.82-0.35,0.9-0.49c0,0-0.53-0.44-0.18-1.23c0,0,0.33,0.53,1.02,0.24
	c0.06-0.03,0.05-0.07,0.01-0.08c-0.93-0.3-0.32-1.08-0.27-1.16C45.38,48.08,45.75,47.77,45.75,47.48z M42.72,44.84
	c-0.1,0.47-0.52,0.53-0.77,0.25C41.97,44.86,42.19,44.81,42.72,44.84z M32.84,36.97c0,0.12,0.05,0.22,0.09,0.28
	c0.08,0.12,0.07,0.18,0.03,0.22c-0.04,0.04-0.1,0.05-0.22-0.03c-0.06-0.04-0.16-0.09-0.28-0.09c-0.2,0-0.3,0.13-0.3,0.25
	c0,0.11,0.1,0.25,0.3,0.25c0.12,0,0.22-0.05,0.28-0.09c0.12-0.08,0.18-0.07,0.22-0.03c0.04,0.04-0.02,0.44-0.06,0.76
	c-0.33,0.07-0.5,0.34-0.5,0.49c0,0.4,0.43,0.63,0.68,0.77c0.25-0.13,0.68-0.37,0.68-0.77c0-0.16-0.16-0.42-0.5-0.49
	c-0.05-0.32-0.1-0.73-0.06-0.76c0.04-0.04,0.1-0.05,0.22,0.03c0.06,0.04,0.16,0.09,0.28,0.09c0.2,0,0.3-0.13,0.3-0.25
	c0-0.11-0.1-0.25-0.3-0.25c-0.12,0-0.22,0.05-0.28,0.09c-0.12,0.08-0.18,0.07-0.22,0.03c-0.04-0.04-0.05-0.1,0.03-0.22
	c0.04-0.06,0.09-0.16,0.09-0.28c0-0.2-0.13-0.3-0.25-0.3C32.98,36.67,32.84,36.77,32.84,36.97z M33.09,39.96
	c-0.27,0-0.49,0.22-0.49,0.49c0,0.27,0.22,0.49,0.49,0.49c0.27,0,0.49-0.22,0.49-0.49C33.58,40.18,33.36,39.96,33.09,39.96z
	 M33.09,44.68c1.96,0,3.07,0.38,3.07,0.38c0.01-0.99,0-1.55,0.57-1.46c-0.31-0.83,1.03-1.16,1.03-2.25c0-0.72-0.51-0.8-0.66-0.8
	c-0.44,0-0.38,0.29-0.75,0.29c-0.05,0-0.1-0.01-0.1,0.02c0,0.12,0.11,0.34,0.28,0.34c0.23,0,0.24-0.23,0.41-0.23
	c0.07,0,0.18,0.06,0.18,0.3c0,0.46-0.3,0.97-0.66,1.37c-0.08-0.11-0.19-0.18-0.33-0.18c-0.21,0-0.4,0.22-0.4,0.49
	c0,0.1,0.02,0.17,0.05,0.26c-0.12,0.07-0.23,0.1-0.3,0.1c-0.16,0-0.4-0.07-0.4-0.42c0-0.79,1.06-1.48,1.06-2.48
	c0-0.48-0.32-0.95-0.98-0.95c-0.71,0-0.58,0.65-1.2,0.65c-0.03,0-0.05,0.01-0.05,0.03c0,0.04,0.11,0.4,0.43,0.4
	c0.34,0,0.44-0.59,0.74-0.59c0.11,0,0.28,0.07,0.28,0.47c0,0.31-0.15,0.81-0.38,1.3c-0.08-0.08-0.19-0.14-0.31-0.14
	c-0.26,0-0.45,0.26-0.45,0.56c0,0.19,0.08,0.38,0.21,0.5c-0.16,0.2-0.31,0.36-0.53,0.36c-0.43,0-0.61-0.24-0.61-0.51
	c0-0.29,0.52-0.39,0.52-0.83c0-0.3-0.2-0.47-0.39-0.47c-0.2,0-0.31,0.13-0.33,0.13c-0.02,0-0.13-0.13-0.33-0.13
	c-0.19,0-0.39,0.17-0.39,0.47c0,0.45,0.52,0.55,0.52,0.83c0,0.26-0.19,0.51-0.61,0.51c-0.22,0-0.38-0.16-0.53-0.36
	c0.13-0.12,0.21-0.31,0.21-0.5c0-0.31-0.19-0.56-0.45-0.56c-0.12,0-0.23,0.06-0.31,0.14c-0.22-0.48-0.38-0.99-0.38-1.3
	c0-0.4,0.17-0.47,0.28-0.47c0.3,0,0.4,0.59,0.74,0.59c0.32,0,0.43-0.36,0.43-0.4c0-0.03-0.02-0.03-0.05-0.03
	c-0.62,0-0.48-0.65-1.2-0.65c-0.67,0-0.98,0.47-0.98,0.95c0,1,1.06,1.69,1.06,2.48c0,0.35-0.24,0.42-0.4,0.42
	c-0.08,0-0.19-0.04-0.31-0.1c0.04-0.08,0.05-0.16,0.05-0.26c0-0.27-0.19-0.49-0.4-0.49c-0.13,0-0.25,0.07-0.33,0.18
	c-0.36-0.4-0.66-0.91-0.66-1.37c0-0.24,0.11-0.3,0.18-0.3c0.17,0,0.18,0.23,0.41,0.23c0.17,0,0.28-0.21,0.28-0.34
	c0-0.03-0.05-0.02-0.1-0.02c-0.38,0-0.31-0.29-0.75-0.29c-0.15,0-0.66,0.08-0.66,0.8c0,1.09,1.34,1.41,1.03,2.25
	c0.57-0.08,0.56,0.47,0.57,1.46C30.02,45.06,31.13,44.68,33.09,44.68z M29.49,46.15c-0.53,0.12-0.92,0.23-1.09,0.28
	c0.01-0.24,0.1-0.46,0.31-0.5c0.03-0.01,0.03-0.04,0.01-0.06c-0.48-0.32-0.73,0.29-0.74,0.31c-0.17-0.01-0.43,0.04-0.43,0.27
	c0,0.68-1.56,1.06-1.92,1.12c0.64,0.25,0.9,1.05,0.9,1.05c0.46-0.46,1-0.87,1.12-0.87c0.12,0,0.17,0.15,0.18,0.25
	c0,0.03,0.03,0.04,0.05,0.01c0.24-0.36,0.13-0.44,0.11-0.55c-0.02-0.08,0.01-0.4,0.36-0.36v4.56l-0.18,0.04
	c-0.08,0.01-0.75-0.55-1.51-1.08c-0.76-0.53-1.17-0.21-2.04,0.26c-1.14,0.62-2.29,0.06-2.29,0.06c-0.98,0.7-1.32,2.73-1.32,2.73
	c-0.2,0.08-0.52,0.17-0.83,0.17c-0.75,0-0.89-0.45-0.89-0.72c0-1.16,1.45-1.65,1.45-2.79c0-0.28-0.13-1.4-1.52-1.4
	c-0.18,0-1.24,0-1.25,0c-0.52,0-0.65-0.38-0.72-0.52c-0.03-0.06-0.08-0.02-0.06,0.02c0.04,0.1-0.06,0.24-0.06,0.53
	c0,0.46,0.27,0.74,0.78,0.74c0.23,0,0.45-0.07,0.52-0.11c0.05-0.03,0.07,0.02,0.05,0.04c-0.22,0.26-0.24,0.74-0.15,0.86
	c0.02,0.03,0.05,0.02,0.05,0c0.12-0.49,0.58-0.95,1.2-0.95c0.75,0,0.75,0.64,0.75,0.8c0,0.93-1.63,1.61-1.63,2.88
	c0,1.29,1.37,1.57,2.16,1.37c-0.05,1.29-1.53,1.74-1.57,0.81c0-0.04-0.04-0.05-0.06,0c-0.19,0.46-0.11,0.86,0.46,0.99
	c0.04,0.01,0.02,0.03-0.02,0.06c-0.57,0.36-0.26,1.79-0.23,2.21c0.04,0.61-0.56,0.53-0.61,0.52c-0.02-0.01-0.05,0-0.01,0.05
	c0.43,0.52,0.95,0.04,0.95,0.04c0.4,0.12,0.15,0.46-0.11,0.64c-0.04,0.03-0.04,0.06,0.01,0.06c0.06,0,0.68,0.06,0.79-0.44
	c0.27,0.33,0.67,0.21,0.76,0.16c0.12-0.06,0.7-0.27,0.75,0.38c0,0.05,0.03,0.02,0.05-0.01c0.44-0.55-0.03-0.89-0.29-0.93
	c0.02-0.03,0.37-0.32,0.69,0.08c0.02,0.03,0.04,0.03,0.04-0.02c0.04-0.7-0.53-0.76-0.9-0.46c-0.02-0.07-0.14-0.46,0.41-0.45
	c0.01,0,0.04-0.02,0.01-0.05c-0.43-0.45-0.78-0.04-0.87,0.06c-0.19,0.23-0.67,0.14-0.71,0.13c0.15-2.42,2.28-1.56,2.57-2.74
	c0.01-0.06,0.04-0.04,0.05-0.02c0.08,0.29,0.8,0.33,0.94-0.24c0.01-0.04,0-0.06-0.02-0.04c-0.62,0.62-2.01-1.31-0.11-2.88
	c1.62-1.33,3.07-0.59,3.62-0.15c0.03,0.19-0.09,0.26-0.16,0.28c-0.03,0.01-0.03,0.03,0.01,0.05c0.15,0.06,0.37,0.04,0.47-0.1
	c0.35,0.24,0.05,0.55-0.09,0.63c-0.04,0.02-0.02,0.05,0.01,0.05c0.32,0.06,0.58-0.27,0.59-0.46l0.05,0.03v1.38
	c0,1.96,2.26,2.23,4.74,3.89c2.48-1.66,4.74-1.93,4.74-3.89v-1.38l0.05-0.03c0.01,0.19,0.28,0.51,0.59,0.46
	c0.03-0.01,0.04-0.03,0.01-0.05c-0.14-0.09-0.44-0.39-0.09-0.63c0.1,0.14,0.32,0.16,0.47,0.1c0.04-0.02,0.03-0.04,0.01-0.05
	c-0.07-0.02-0.19-0.09-0.16-0.28c0.55-0.44,2-1.18,3.62,0.15c1.9,1.57,0.51,3.49-0.11,2.88c-0.03-0.03-0.03,0-0.02,0.04
	c0.13,0.57,0.86,0.53,0.94,0.24c0.01-0.02,0.03-0.05,0.05,0.02c0.29,1.18,2.42,0.32,2.57,2.74c-0.04,0.01-0.52,0.1-0.71-0.13
	c-0.08-0.1-0.44-0.51-0.87-0.06c-0.03,0.03,0,0.05,0.01,0.05c0.55-0.01,0.43,0.38,0.41,0.45c-0.37-0.3-0.93-0.24-0.9,0.46
	c0,0.05,0.02,0.05,0.04,0.02c0.31-0.4,0.66-0.11,0.69-0.08c-0.26,0.04-0.73,0.38-0.29,0.93c0.02,0.02,0.05,0.05,0.05,0.01
	c0.06-0.65,0.63-0.44,0.75-0.38c0.08,0.04,0.49,0.16,0.76-0.16c0.11,0.49,0.73,0.44,0.79,0.44c0.04,0,0.05-0.03,0.01-0.06
	c-0.27-0.18-0.51-0.52-0.11-0.64c0,0,0.53,0.48,0.95-0.04c0.04-0.05,0.01-0.06-0.01-0.05c-0.05,0.02-0.65,0.09-0.61-0.52
	c0.03-0.42,0.34-1.85-0.23-2.21c-0.04-0.02-0.06-0.05-0.02-0.06c0.58-0.13,0.65-0.53,0.46-0.99c-0.02-0.06-0.06-0.05-0.06,0
	c-0.04,0.93-1.53,0.49-1.57-0.81c0.79,0.21,2.16-0.07,2.16-1.37c0-1.28-1.63-1.96-1.63-2.88c0-0.16,0-0.8,0.75-0.8
	c0.62,0,1.07,0.46,1.2,0.95c0,0.02,0.03,0.03,0.05,0c0.09-0.12,0.07-0.6-0.15-0.86c-0.02-0.03,0-0.07,0.05-0.04
	c0.07,0.04,0.29,0.11,0.52,0.11c0.51,0,0.78-0.28,0.78-0.74c0-0.29-0.1-0.43-0.06-0.53c0.02-0.04-0.03-0.08-0.06-0.02
	c-0.07,0.14-0.2,0.52-0.72,0.52c0,0-1.07,0-1.25,0c-1.39,0-1.52,1.12-1.52,1.4c0,1.14,1.45,1.64,1.45,2.79
	c0,0.27-0.14,0.72-0.89,0.72c-0.31,0-0.63-0.09-0.83-0.17c0,0-0.33-2.03-1.32-2.73c0,0-1.15,0.56-2.29-0.06
	c-0.87-0.47-1.28-0.79-2.04-0.26c-0.76,0.53-1.43,1.09-1.51,1.08l-0.18-0.04v-4.56c0.35-0.04,0.38,0.28,0.36,0.36
	c-0.02,0.11-0.14,0.19,0.11,0.55c0.02,0.03,0.05,0.02,0.05-0.01c0.01-0.09,0.06-0.25,0.18-0.25c0.12,0,0.66,0.41,1.12,0.87
	c0,0,0.27-0.8,0.9-1.05c-0.36-0.06-1.92-0.43-1.92-1.12c0-0.23-0.26-0.28-0.43-0.27c-0.01-0.02-0.26-0.63-0.74-0.31
	c-0.03,0.02-0.02,0.05,0.01,0.06c0.21,0.05,0.3,0.27,0.31,0.5c-0.46-0.14-2.39-0.68-4.69-0.68c-1.12,0-2.14,0.13-2.96,0.28v1.58
	h-0.64V46.15L29.49,46.15 M25.25,62.33c-0.17-0.07-0.28-0.18-0.28-0.4v-0.98c-0.28-0.1-1.05-0.39-2.58-0.39
	c-1.27,0-1.67,0.29-1.69,0.39l-0.34,1.87c0,0,0.52-0.47,2.36-0.35c2.22,0.14,4.53,1.45,4.53,0.05v-0.82
	C25.5,61.69,25.25,62.24,25.25,62.33z M38.94,61.69v0.82c0,1.4,2.3,0.09,4.53-0.05c1.85-0.12,2.36,0.35,2.36,0.35l-0.34-1.87
	c-0.02-0.1-0.42-0.39-1.69-0.39c-1.53,0-2.3,0.29-2.58,0.39v0.98c0,0.22-0.11,0.33-0.28,0.4C40.93,62.24,40.68,61.69,38.94,61.69z
	 M33.09,60.84c3.58,0,7.22,0.19,7.69,0.73c0.04,0.04,0.05,0,0.05-0.03l0-1.9c0-0.55-3.75-0.88-7.75-0.88c-4,0-7.75,0.32-7.75,0.88
	l0,1.9c0,0.03,0.02,0.08,0.05,0.03C25.87,61.03,29.51,60.84,33.09,60.84z M29.9,51.89l-0.36-0.09l-0.03,0.04l-0.42-0.18
	c0,0,0.31,0,0.38,0c0.04,0,0.04-0.02,0.02-0.04c-0.17-0.17-0.32-0.31-0.32-0.31s0.17,0.06,0.41,0.15c0.03,0.01,0.04-0.01,0.02-0.03
	c-0.12-0.17-0.28-0.41-0.28-0.41s0.34,0.23,0.41,0.27c0.02,0.02,0.04,0,0.03-0.02c-0.09-0.22-0.19-0.48-0.19-0.48l0.37,0.35
	c0.02,0.02,0.04,0.01,0.03-0.02c-0.04-0.17-0.1-0.48-0.1-0.48l0.27,0.4c0.02,0.02,0.04,0.02,0.04-0.01c0-0.08,0.01-0.44,0.01-0.44
	s0.11,0.26,0.17,0.4c0.01,0.03,0.03,0.03,0.05-0.01c0.02-0.04,0.14-0.34,0.14-0.34l0.02,0.45l-0.06,0.01l-0.08,0.55
	c0.54-0.13,1.21-1.05,1.73-1.05c0.62,0,0.84,0.72,1.98,0.36c0.29,0.42,0.39,0.79,0.5,1.3c0.44,0.41,1.06,0.28,1.06-0.16
	c0-0.59-0.64-0.7-0.64-1.32c0-0.27,0.19-0.67,0.72-0.67c0.28,0,0.68,0.12,0.92,0.12c0.28,0,0.34-0.2,0.37-0.28
	c0.03-0.06,0.1-0.04,0.09,0.01c-0.01,0.06,0.03,0.14,0.03,0.27c0,0.39-0.57,0.44-0.64,0.39c-0.03-0.02-0.05,0.01-0.03,0.03
	c0.09,0.07,0.07,0.3-0.04,0.45c-0.01,0.02-0.03,0.01-0.03,0c-0.06-0.28-0.39-0.62-0.67-0.62c-0.11,0-0.32,0.06-0.32,0.31
	c0,0.35,0.7,0.67,0.7,1.39c0,0.75-0.75,0.93-1.5,0.75c0.03,0.71,1.09,1.14,1.12,0.63c0-0.04,0.02-0.01,0.03,0
	c0.16,0.22,0.09,0.38-0.12,0.47c0.19,0.08,0.22,0.46,0.27,0.68c0.08,0.33,0.44,0.15,0.45,0.14c0.02-0.01,0.03,0,0.02,0.02
	c-0.13,0.35-0.49,0.22-0.49,0.22c-0.19,0.13,0.04,0.25,0.21,0.3c0.03,0.01,0.02,0.03,0,0.03c-0.13,0.05-0.39,0.13-0.52-0.09
	c-0.1,0.23-0.29,0.23-0.37,0.23c-0.14,0-0.23,0.14-0.2,0.33c0,0.02-0.01,0.02-0.02,0.01c-0.33-0.22-0.14-0.47-0.01-0.54
	c-0.02-0.01-0.25-0.11-0.34,0.16c-0.01,0.02-0.02,0.02-0.03,0c-0.14-0.38,0.17-0.49,0.39-0.39c-0.02-0.05-0.13-0.24-0.43-0.18
	c-0.01,0-0.02,0-0.01-0.02c0.05-0.12,0.19-0.29,0.46-0.11c0.14,0.08,0.37-0.04,0.39-0.05c-0.48-0.95-1.4-0.15-1.61-0.9
	c0-0.02-0.02-0.03-0.04,0.01c-0.05,0.16-0.45,0.17-0.53-0.14c-0.01-0.02,0-0.03,0.02-0.01c0.06,0.06,0.19,0.11,0.35-0.13
	c0.11-0.16,0.13-0.37,0.13-0.52c0-0.58-0.58-1.55-1.47-1.55c-0.57,0-1.18,0.22-1.63,0.55l0.42,0.1c-0.04,0.43-0.45,0.67-0.83,0.57
	l0.07-0.49c-0.07,0.02-0.23,0.08-0.32,0.21c-0.01,0.01-0.02,0.01-0.02,0c-0.08-0.28,0.15-0.42,0.22-0.45c0.01,0,0.01-0.01-0.01-0.01
	c-0.2-0.01-0.32,0.14-0.35,0.19c-0.01,0.01-0.01,0.01-0.02,0C29.84,52.13,29.8,51.99,29.9,51.89z M31.15,55.19
	c-0.16,0.2-0.3,0.01-0.52,0.01c-0.2,0-0.23,0.17-0.24,0.23c0,0.01-0.01,0.02-0.02,0c-0.23-0.31,0.03-0.48,0.17-0.5
	c-0.02-0.02-0.24-0.17-0.39,0.03c-0.01,0.01-0.02,0.01-0.02-0.01c-0.01-0.38,0.3-0.41,0.5-0.24c0.04-0.14-0.06-0.24-0.22-0.25
	c-0.02,0-0.02-0.01-0.01-0.02c0.07-0.07,0.13-0.11,0.2-0.11c0.21,0,0.24,0.27,0.38,0.27c0.21,0,0.5-0.28,0.53-0.31
	c-0.01-0.02-0.21-0.56-0.17-0.88c0-0.01-0.01-0.02-0.01-0.01c-0.1,0.06-0.36,0.05-0.36-0.26c0-0.03,0.01-0.03,0.02-0.01
	c0.11,0.16,0.29-0.02,0.39-0.12c0.1-0.11,0.62-0.88,1.33-0.88c0.15,0,0.35,0.08,0.51,0.2c-0.24,0.29,0,0.58,0.18,0.54
	c0.02,0,0.02,0.02,0,0.02c-0.93,0.35-1.34,0.49-1.34,1.26c0,0.41,0.14,0.63,0.38,0.58c0.02,0,0.02,0,0.01,0.02
	c-0.09,0.1-0.19,0.14-0.27,0.14c-0.19,0-0.23-0.11-0.33-0.11c-0.11,0-0.45,0.2-0.45,0.37c0,0.06,0.04,0.15,0.16,0.23
	c0.01,0,0,0.01,0,0.01C31.49,55.42,31.21,55.45,31.15,55.19z M33.59,47.64c-0.29-0.02-0.48,0.05-0.47,0.14
	C33.27,47.93,33.45,47.91,33.59,47.64z M32.52,48.35c0.2-0.05,0.43-0.03,0.45-0.02c0.03,0.01,0.03,0.06-0.01,0.06
	c-0.43,0.05-0.45,0.25-0.72,0.25c-0.18,0-0.37-0.18-0.3-0.45c0.01-0.03,0.04-0.04,0.04,0C32.02,48.32,32.19,48.44,32.52,48.35z
	 M26.98,57.82c0.28,0.36,0.55,0.02,0.93,0.02c0.18,0,0.4,0.06,0.44,0.42c0,0.02,0.02,0.02,0.04,0c0.4-0.55-0.06-0.86-0.32-0.9
	c0.06-0.05,0.45-0.29,0.7,0.06c0.01,0.02,0.04,0.01,0.04-0.01c0-0.7-0.52-0.75-0.9-0.45c-0.07-0.27,0.13-0.45,0.4-0.45
	c0.03,0,0.04-0.02,0.03-0.04c-0.47-0.5-0.82,0.13-0.9,0.23c-0.19,0.25-0.86-0.22-1.12-0.5c0,0,0.59-0.62,0.59-1.19
	c0-0.03,0-0.08,0-0.1c0-0.02,0.01-0.02,0.02-0.01c0.06,0.03,0.14,0.06,0.22,0.06c0.14,0,0.39-0.04,0.39-0.52
	c0-0.04-0.02-0.03-0.03-0.01c-0.07,0.1-0.15,0.12-0.21,0.12c-0.48,0-1.47-1.59-2.65-1.59c-0.31,0-0.89,0.22-1.18,0.54
	c0.14,0.08,0.17,0.26,0.15,0.38c-0.02,0.2-0.18,0.3-0.35,0.35c-0.03,0.01-0.03,0.03,0,0.04c0.59,0.23,1.67,0.64,1.92,0.85
	c0.29,0.25,0.23,0.72,0.07,1.38c-0.16,0.63-0.51,0.54-0.64,0.52c-0.02,0-0.02,0.01-0.01,0.02c0.15,0.19,0.34,0.26,0.5,0.26
	c0.31,0,0.42-0.19,0.58-0.19c0.27,0,0.83,0.38,0.83,0.68c0,0.16-0.13,0.31-0.29,0.42c-0.01,0.01-0.01,0.02,0.01,0.02
	C26.35,58.25,26.88,58.29,26.98,57.82z M39.96,58.23c0.02,0,0.02-0.02,0.01-0.02c-0.17-0.11-0.29-0.26-0.29-0.42
	c0-0.29,0.56-0.68,0.83-0.68c0.16,0,0.27,0.19,0.58,0.19c0.16,0,0.35-0.06,0.5-0.26c0.01-0.01,0-0.03-0.01-0.02
	c-0.13,0.02-0.48,0.11-0.64-0.52c-0.17-0.65-0.22-1.13,0.07-1.38c0.25-0.21,1.32-0.62,1.92-0.85c0.03-0.01,0.03-0.03,0-0.04
	c-0.16-0.05-0.32-0.15-0.35-0.35c-0.01-0.13,0.01-0.3,0.15-0.38c-0.29-0.32-0.88-0.54-1.18-0.54c-1.17,0-2.17,1.59-2.65,1.59
	c-0.06,0-0.14-0.02-0.21-0.12c-0.02-0.02-0.03-0.02-0.03,0.01c0,0.48,0.25,0.52,0.39,0.52c0.08,0,0.16-0.02,0.22-0.06
	c0.02-0.01,0.02,0,0.02,0.01c0,0.02,0,0.07,0,0.1c0,0.57,0.59,1.19,0.59,1.19c-0.27,0.28-0.94,0.75-1.12,0.5
	c-0.08-0.1-0.43-0.73-0.9-0.23c-0.02,0.02-0.01,0.04,0.03,0.04c0.26,0,0.47,0.18,0.4,0.45c-0.38-0.3-0.9-0.25-0.9,0.45
	c0,0.03,0.03,0.03,0.04,0.01c0.25-0.36,0.65-0.12,0.7-0.06c-0.27,0.04-0.73,0.35-0.32,0.9c0.02,0.02,0.03,0.02,0.04,0
	c0.04-0.36,0.26-0.42,0.44-0.42c0.37,0,0.64,0.34,0.93-0.02C39.31,58.29,39.83,58.25,39.96,58.23z M30.45,49.04
	c-0.04,0.05-0.16,0-0.21-0.02c-0.01,0-0.01,0-0.01,0.01c0.03,0.07,0.15,0.27,0.33,0.27c0.08,0,0.2-0.05,0.23-0.1
	c0,0,0.69,0.22,1.03,0.32c-0.13,0.18-0.22,0.39-0.23,0.62c-0.28-0.17-1.38-0.76-1.38-0.76l-0.34,0.47c-0.06,0.08-0.33-0.12-0.27-0.2
	l0.26-0.36c-0.09-0.09-0.29-0.03-0.35-0.02c-0.01,0-0.02,0-0.01-0.02c0.03-0.07,0.16-0.29,0.49-0.19c0-0.2-0.29-0.13-0.37-0.11
	c-0.01,0-0.01,0,0-0.01c0.08-0.09,0.32-0.28,0.59-0.12l0.12-0.16l-0.24-0.25l0.15-0.2l0.17,0.22l1.27-1.75
	c0.03-0.04,0.28-0.12,0.38-0.14c0.01,0.1,0.02,0.36-0.01,0.4l-1.25,1.76l0.26,0.09L30.9,49l-0.31-0.15L30.45,49.04z M34.92,48.76
	c0,0.16,0.1,0.39,0.31,0.33c0.01,0,0.02,0,0.02,0.01c-0.03,0.18-0.35,0.34-0.5,0.13c-0.13,0.27-0.1,0.53,0.18,0.68
	c0.02,0.01,0.02,0.03,0,0.04c-0.17,0.12-0.42,0.09-0.55-0.14c-0.23,0.17-0.2,0.54-0.06,0.66c0,0-0.63,0.38-1.21,0.11
	c-0.38-0.18-0.69-0.42-1.18-0.38c0.07-0.69,0.41-0.87,1.05-0.97c0.51-0.08,0.57-0.31,0.5-0.49C33.32,48.7,33,48.85,33,48.85
	c-0.06-0.09,0.03-0.19,0.03-0.19c-0.03-0.04-0.05-0.16-0.05-0.16c0.35,0,0.42-0.08,0.42-0.08c0.06-0.37-0.31-0.41-0.6-0.21
	c-0.13-0.12-0.11-0.27-0.11-0.27c-0.04-0.02-0.06-0.08-0.06-0.11c0-0.09,0.42-0.32,0.53-0.35c0.03-0.12,0.18-0.29,0.62-0.25
	c0.05-0.12-0.03-0.55-0.09-0.67c-0.02-0.04,0.01-0.05,0.05-0.03c0.16,0.1,0.31,0.46,0.42,0.47c0,0,0.5-0.26,0.53-0.25
	c0.02,0.01,0.09,0.57,0.09,0.57c0.07,0.08,0.45,0,0.62,0.07c0.04,0.02,0.04,0.05,0,0.06c-0.13,0.02-0.53,0.2-0.6,0.31
	C35.03,48.11,34.92,48.62,34.92,48.76z"/>
</svg>
