<svg id="Ebene_1" data-name="Ebene 1" xmlns="http://www.w3.org/2000/svg" viewBox="0 0 170.08 53.62"><defs><style>.cls-1{fill:#0056a4;}.cls-2{fill:#1d1d1b;}</style></defs><title>sun-footer</title><path class="cls-1" d="M35.94,45.47a26.65,26.65,0,0,1-6.08-.77c-.58-.13-.79-.1-.92-.74a15.09,15.09,0,0,1-.34-2.77c0-.23,1.09-.74,1.33-.84a.23.23,0,0,1,.2.1,11.94,11.94,0,0,0,6.25,2.09c2,0,4.08-.84,4.08-3.1a2.3,2.3,0,0,0-.85-1.86A14.2,14.2,0,0,0,36,35.73c-3.26-1.42-7-2.87-7-7,0-4.82,5.07-6.58,9.15-6.58a18.07,18.07,0,0,1,5.06.68c.48.16.48.2.54.67a13.55,13.55,0,0,1,.27,2.36c0,.21-1.15.81-1.36.81s-.5-.27-.64-.37a9.3,9.3,0,0,0-4.62-1.35c-1.8,0-3.88.71-3.88,2.83a2.38,2.38,0,0,0,1,2,18,18,0,0,0,3.84,1.95C41.52,33.13,45,34.44,45,38.46c0,4.72-4.89,7-9,7" transform="translate(-28.6 -22.1)"/><path class="cls-1" d="M77.72,34.24c-.07,2.33,0,5.06-1.29,7.12-2,3.24-6.05,4.11-9.62,4.11-3.3,0-7.18-.8-8.6-4.14a11.59,11.59,0,0,1-.65-4.46V22.54h5V36c0,.63,0,1.28,0,1.92C62.76,41.12,65,42.1,68,42.1A7.91,7.91,0,0,0,72.35,41c2.31-1.56,2-4.15,2-6.58V22.54H78Z" transform="translate(-28.6 -22.1)"/><polygon class="cls-1" points="81.17 0.44 81.48 16.26 66.97 0.44 63.36 0.44 63.26 22.93 66.83 22.93 66.56 6.85 81.82 23.44 84.75 22.66 84.78 0.44 81.17 0.44"/><path class="cls-2" d="M192.94,69.22l.34.06a3,3,0,0,0,.48,0,1.91,1.91,0,0,0,1-.24,2.09,2.09,0,0,0,.69-.63,4,4,0,0,0,.47-.87c.13-.32.25-.63.36-.94L198.68,60h-1.22l-1.79,5.37h0L193.89,60h-1.32l2.21,6c.05.11.09.24.15.38a1.07,1.07,0,0,1,.08.31,1.47,1.47,0,0,1-.07.3,2.79,2.79,0,0,1-.24.55,2.44,2.44,0,0,1-.45.52,1,1,0,0,1-.67.23,1.45,1.45,0,0,1-.3,0,1.38,1.38,0,0,1-.26-.07ZM192,60h-1.73V58.12l-1.2.38V60h-1.48v1h1.48v3.79a1.79,1.79,0,0,0,.53,1.43,2.25,2.25,0,0,0,1.48.45,2.6,2.6,0,0,0,.56-.06l.46-.12v-1a1.2,1.2,0,0,1-.34.16,1.35,1.35,0,0,1-.48.07,1,1,0,0,1-.71-.29,1.15,1.15,0,0,1-.3-.86V61H192Zm-6.88,6.49h1.2V60h-1.2Zm1.28-9.28H185v1.34h1.35Zm-4.84,9.28h1.21V57h-1.21Zm-3.56,0h1.2V60H178Zm1.28-9.28h-1.36v1.34h1.36ZM170,66.49h1.15v-.92h0a2.43,2.43,0,0,0,.31.37,2.17,2.17,0,0,0,.48.34,3.72,3.72,0,0,0,.64.26,3.3,3.3,0,0,0,.8.1,2.54,2.54,0,0,0,1.27-.3,2.45,2.45,0,0,0,.87-.79,3.17,3.17,0,0,0,.5-1.12,5.09,5.09,0,0,0,.16-1.3,4.71,4.71,0,0,0-.17-1.25,2.93,2.93,0,0,0-.53-1,2.58,2.58,0,0,0-.88-.72,2.7,2.7,0,0,0-1.24-.27,2.66,2.66,0,0,0-1.36.3,2.3,2.3,0,0,0-.8.74h0V57H170ZM174.85,64a2.44,2.44,0,0,1-.32.8,1.89,1.89,0,0,1-.56.6,1.42,1.42,0,0,1-.83.24,1.62,1.62,0,0,1-.88-.22,2,2,0,0,1-.6-.58,3,3,0,0,1-.34-.78,3.31,3.31,0,0,1,0-1.73,2.53,2.53,0,0,1,.36-.78,1.79,1.79,0,0,1,.61-.55,1.65,1.65,0,0,1,.85-.21A1.57,1.57,0,0,1,174,61a1.64,1.64,0,0,1,.56.55,2.46,2.46,0,0,1,.32.78,3.53,3.53,0,0,1,.08.86,2.92,2.92,0,0,1-.09.81m-11.59-2.55a3.15,3.15,0,0,1,1.9-.66,1.59,1.59,0,0,1,1.26.42,2,2,0,0,1,.35,1.27l-.64,0h-.64a5.26,5.26,0,0,0-1,.11,3.25,3.25,0,0,0-1,.36,2.45,2.45,0,0,0-.75.65,1.66,1.66,0,0,0-.29,1,2.11,2.11,0,0,0,.17.91,1.54,1.54,0,0,0,.49.63,1.91,1.91,0,0,0,.76.36,3.74,3.74,0,0,0,1,.12,2.82,2.82,0,0,0,.74-.1,2.72,2.72,0,0,0,.57-.25,2.53,2.53,0,0,0,.43-.32,1.94,1.94,0,0,0,.28-.32h0v.84H168a3.32,3.32,0,0,1,0-.43c0-.19,0-.47,0-.84V62.53a2.9,2.9,0,0,0-.6-2,2.62,2.62,0,0,0-2-.68,4,4,0,0,0-1.17.17,4.86,4.86,0,0,0-1,.44ZM166.77,64a1.68,1.68,0,0,1-.46,1.21,1.77,1.77,0,0,1-1.36.49,1.28,1.28,0,0,1-.42-.07,1,1,0,0,1-.39-.2,1.15,1.15,0,0,1-.29-.33.84.84,0,0,1-.12-.45.87.87,0,0,1,.27-.68,1.7,1.7,0,0,1,.62-.38,3.32,3.32,0,0,1,.76-.16l.62,0,.39,0h.38Zm-11.71,2.52h1.21v-3a4.6,4.6,0,0,1,.11-1.08,2.54,2.54,0,0,1,.36-.85,1.83,1.83,0,0,1,.62-.55,1.91,1.91,0,0,1,.89-.19,1.19,1.19,0,0,1,1.09.61,3.74,3.74,0,0,1,.29,1.7v3.36h1.21V62.63a3.2,3.2,0,0,0-.59-2,2.24,2.24,0,0,0-1.86-.74,2.74,2.74,0,0,0-1.27.31,1.93,1.93,0,0,0-.87.87h0V60h-1.17Zm-3.41,0h1.21V60h-1.21Zm1.29-9.28h-1.36v1.34h1.36Zm-8.19,4.27a3,3,0,0,1,.88-.48,3,3,0,0,1,1-.18,1.58,1.58,0,0,1,1.26.42,1.94,1.94,0,0,1,.35,1.27l-.64,0H147a5.26,5.26,0,0,0-1,.11,3.1,3.1,0,0,0-1,.36,2.24,2.24,0,0,0-.75.65,1.67,1.67,0,0,0-.3,1,2.11,2.11,0,0,0,.17.91,1.54,1.54,0,0,0,.49.63,1.91,1.91,0,0,0,.76.36,3.74,3.74,0,0,0,1,.12,2.82,2.82,0,0,0,.74-.1,2.56,2.56,0,0,0,1-.57,1.56,1.56,0,0,0,.28-.32h0v.84h1.13a3.32,3.32,0,0,1,0-.43c0-.19,0-.47,0-.84V62.53a2.85,2.85,0,0,0-.61-2,2.62,2.62,0,0,0-2-.68,3.87,3.87,0,0,0-1.16.17,5,5,0,0,0-1,.44ZM148.26,64a1.68,1.68,0,0,1-.46,1.21,1.77,1.77,0,0,1-1.36.49,1.32,1.32,0,0,1-.42-.07,1,1,0,0,1-.39-.2,1.32,1.32,0,0,1-.29-.33.94.94,0,0,1-.11-.45.86.86,0,0,1,.26-.68,1.66,1.66,0,0,1,.63-.38,3.13,3.13,0,0,1,.75-.16l.62,0,.39,0h.38Zm-5.39-4h-1.73V58.12l-1.2.38V60h-1.48v1h1.48v3.79a1.79,1.79,0,0,0,.53,1.43,2.24,2.24,0,0,0,1.48.45,2.44,2.44,0,0,0,.55-.06l.47-.12v-1a1.2,1.2,0,0,1-.34.16,1.35,1.35,0,0,1-.48.07,1,1,0,0,1-.71-.29,1.15,1.15,0,0,1-.3-.86V61h1.73Zm-9,6.28a2.63,2.63,0,0,0,.87.29,5.62,5.62,0,0,0,.92.07,2.94,2.94,0,0,0,.84-.12,2,2,0,0,0,.73-.37,1.87,1.87,0,0,0,.52-.63,2,2,0,0,0,.19-.9,1.55,1.55,0,0,0-.21-.85,2,2,0,0,0-.53-.56,3.73,3.73,0,0,0-.68-.38,7,7,0,0,1-.67-.32,1.62,1.62,0,0,1-.53-.37.73.73,0,0,1-.21-.54.62.62,0,0,1,.34-.59,1.62,1.62,0,0,1,.81-.19l.28,0,.35.08.36.11a1.06,1.06,0,0,1,.28.12l.1-1q-.36-.11-.72-.18a3.74,3.74,0,0,0-.78-.08,3.34,3.34,0,0,0-.91.12,2.19,2.19,0,0,0-.73.37A1.85,1.85,0,0,0,134,61a2,2,0,0,0-.18.89,1.31,1.31,0,0,0,.21.76,2.18,2.18,0,0,0,.52.53,4.18,4.18,0,0,0,.68.4l.68.33a3.29,3.29,0,0,1,.53.38.65.65,0,0,1,.21.49.79.79,0,0,1-.12.45.86.86,0,0,1-.29.28,1.16,1.16,0,0,1-.4.16,2.06,2.06,0,0,1-.42,0l-.31,0-.4-.09a2.49,2.49,0,0,1-.41-.14l-.38-.2ZM132.37,60h-1.21v3a4.57,4.57,0,0,1-.11,1.09,2.48,2.48,0,0,1-.36.84,1.7,1.7,0,0,1-.62.54,1.8,1.8,0,0,1-.89.2,1.2,1.2,0,0,1-1.09-.61,3.72,3.72,0,0,1-.3-1.7V60h-1.2v3.86a3.2,3.2,0,0,0,.59,2,2.24,2.24,0,0,0,1.86.74,2.69,2.69,0,0,0,1.28-.31,2,2,0,0,0,.86-.87h0v1h1.17Zm-7.83-2.22a5.19,5.19,0,0,0-1-.24,6.41,6.41,0,0,0-1-.08,3.77,3.77,0,0,0-1.13.16,2.66,2.66,0,0,0-.9.47,2.13,2.13,0,0,0-.61.75,2.31,2.31,0,0,0-.23,1A2.17,2.17,0,0,0,120,61a2.67,2.67,0,0,0,.72.74,5.48,5.48,0,0,0,.92.52,8.06,8.06,0,0,1,.93.45,2.51,2.51,0,0,1,.71.54,1.16,1.16,0,0,1,.29.81,1.2,1.2,0,0,1-.18.67,1.39,1.39,0,0,1-.43.44,1.85,1.85,0,0,1-.57.26,2.45,2.45,0,0,1-.58.08,2.32,2.32,0,0,1-.51,0,4,4,0,0,1-.5-.1l-.46-.14-.39-.14-.13,1.18c.3.09.61.18.91.25a3.59,3.59,0,0,0,.93.12,5.18,5.18,0,0,0,1.26-.15,3.08,3.08,0,0,0,1-.46,2.25,2.25,0,0,0,.71-.82A2.65,2.65,0,0,0,125,64a2.32,2.32,0,0,0-.28-1.2A2.81,2.81,0,0,0,124,62a4.56,4.56,0,0,0-.93-.55l-.93-.45a3.3,3.3,0,0,1-.71-.5.93.93,0,0,1-.28-.71,1.09,1.09,0,0,1,.14-.57,1.16,1.16,0,0,1,.37-.36,1.84,1.84,0,0,1,.51-.19,2.51,2.51,0,0,1,.55-.06l.44,0a1.76,1.76,0,0,1,.4.07l.39.12.44.16Zm-11,4a6.87,6.87,0,0,1-.17,1.23,3.15,3.15,0,0,1-.37.88l-1.79-2a5.8,5.8,0,0,0,.69-.37,3.37,3.37,0,0,0,.62-.51,2.35,2.35,0,0,0,.44-.64,1.61,1.61,0,0,0,.18-.76,2,2,0,0,0-.18-.89,1.85,1.85,0,0,0-.48-.62,1.92,1.92,0,0,0-.7-.35,2.82,2.82,0,0,0-.83-.11,3.24,3.24,0,0,0-.89.12,2,2,0,0,0-.73.38,1.79,1.79,0,0,0-.49.64,2.11,2.11,0,0,0-.18.91,2,2,0,0,0,.28,1.09,6.65,6.65,0,0,0,.63.9,3.67,3.67,0,0,0-1.43,1,2.29,2.29,0,0,0-.54,1.59,2.51,2.51,0,0,0,.2,1,2.15,2.15,0,0,0,.57.77,2.47,2.47,0,0,0,.89.49,3.61,3.61,0,0,0,1.18.18,4.1,4.1,0,0,0,1.44-.23,2.87,2.87,0,0,0,1.08-.78l.72.86h1.57l-1.54-1.73c.13-.19.25-.39.36-.59a5.56,5.56,0,0,0,.3-.65,6.85,6.85,0,0,0,.22-.79,6.56,6.56,0,0,0,.13-1ZM109,63.54a1.79,1.79,0,0,1,.27-.44,2,2,0,0,1,.39-.37l.47-.35,2.12,2.47-.25.26a1.91,1.91,0,0,1-.35.27,2.17,2.17,0,0,1-.46.22,1.75,1.75,0,0,1-.57.09,1.82,1.82,0,0,1-.65-.12,1.59,1.59,0,0,1-.55-.32,1.54,1.54,0,0,1-.38-.49,1.51,1.51,0,0,1-.14-.65,1.42,1.42,0,0,1,.1-.57m1.11-4.7a1.08,1.08,0,0,1,.75-.28,1.17,1.17,0,0,1,.76.23,1.05,1.05,0,0,1,.29.84,1.14,1.14,0,0,1-.13.52,2.24,2.24,0,0,1-.33.43,3.37,3.37,0,0,1-.43.34,4,4,0,0,1-.43.24,6,6,0,0,1-.54-.68,1.42,1.42,0,0,1-.24-.8,1.09,1.09,0,0,1,.3-.84m-7.58,1.27h-1.7V58.26l-1.18.37v1.48H98.24v1h1.45v3.73a1.69,1.69,0,0,0,.53,1.4,2.15,2.15,0,0,0,1.45.45,2.35,2.35,0,0,0,.54-.06l.46-.12v-1a1.69,1.69,0,0,1-.33.16,1.61,1.61,0,0,1-.47.07,1,1,0,0,1-.7-.29,1.13,1.13,0,0,1-.3-.85V61.06h1.7ZM91.46,66.49h1.18v-3a5.07,5.07,0,0,1,.11-1.06,2.51,2.51,0,0,1,.36-.83,1.67,1.67,0,0,1,.61-.54,1.86,1.86,0,0,1,.87-.19,1.18,1.18,0,0,1,1.07.6,3.58,3.58,0,0,1,.3,1.67v3.31h1.18V62.7a3.13,3.13,0,0,0-.58-2A2.21,2.21,0,0,0,94.73,60a2.72,2.72,0,0,0-1.26.3,1.89,1.89,0,0,0-.84.86h0v-1H91.46Zm-2.08-1.44c-.08.06-.19.12-.32.2a3.66,3.66,0,0,1-.48.2,4.91,4.91,0,0,1-.58.17,3.26,3.26,0,0,1-.6.07,2.15,2.15,0,0,1-.8-.16,2.1,2.1,0,0,1-.68-.44,2,2,0,0,1-.47-.67,2.16,2.16,0,0,1-.17-.86h4.59a6.53,6.53,0,0,0-.15-1.43A3.08,3.08,0,0,0,89.25,61a2.38,2.38,0,0,0-.87-.76A3,3,0,0,0,87,60a3.25,3.25,0,0,0-1.23.23,2.82,2.82,0,0,0-1,.67,3.1,3.1,0,0,0-.62,1,3.9,3.9,0,0,0-.21,1.3,4.87,4.87,0,0,0,.2,1.42,3,3,0,0,0,.61,1.09,2.75,2.75,0,0,0,1,.69,3.84,3.84,0,0,0,1.48.26,4.9,4.9,0,0,0,.7,0c.2,0,.38-.06.54-.1l.42-.13.37-.14Zm-4.1-2.37a3.46,3.46,0,0,1,.14-.62,2,2,0,0,1,.32-.57,1.66,1.66,0,0,1,.52-.42,1.53,1.53,0,0,1,.74-.16,1.67,1.67,0,0,1,.69.14,1.26,1.26,0,0,1,.5.38,1.57,1.57,0,0,1,.31.57,2.15,2.15,0,0,1,.11.68Zm-12,3.81h1.19V63.27a4.31,4.31,0,0,1,.09-.88,2.27,2.27,0,0,1,.3-.75,1.47,1.47,0,0,1,.52-.53,1.36,1.36,0,0,1,.77-.2.89.89,0,0,1,.58.17,1.12,1.12,0,0,1,.36.42,2,2,0,0,1,.17.57,4.26,4.26,0,0,1,0,.61v3.81h1.19V63.27a4.31,4.31,0,0,1,.09-.88,2.27,2.27,0,0,1,.3-.75,1.47,1.47,0,0,1,.52-.53,1.36,1.36,0,0,1,.77-.2.89.89,0,0,1,.58.17,1.12,1.12,0,0,1,.36.42,2,2,0,0,1,.17.57,4.26,4.26,0,0,1,0,.61v3.81h1.19v-4.1a4.07,4.07,0,0,0-.12-1,2,2,0,0,0-.39-.77,1.68,1.68,0,0,0-.68-.51,2.53,2.53,0,0,0-1-.19,2.41,2.41,0,0,0-.49.06,2.07,2.07,0,0,0-.55.21,2.67,2.67,0,0,0-.53.39,1.92,1.92,0,0,0-.42.58,1.75,1.75,0,0,0-.76-1A2,2,0,0,0,76.41,60a2.58,2.58,0,0,0-1.21.25,2.27,2.27,0,0,0-.84.82h0v-.92H73.23Zm-7.69,0h1.19v-3a4.48,4.48,0,0,1,.11-1.06,2.31,2.31,0,0,1,.35-.83,1.75,1.75,0,0,1,.61-.54,1.87,1.87,0,0,1,.88-.19,1.18,1.18,0,0,1,1.07.6A3.73,3.73,0,0,1,70,63.18v3.31h1.19V62.7a3.19,3.19,0,0,0-.58-2A2.22,2.22,0,0,0,68.82,60a2.69,2.69,0,0,0-1.26.3,1.91,1.91,0,0,0-.85.86h0v-1H65.54Zm-7.89-1.9a3.31,3.31,0,0,0,.68,1.07,3.11,3.11,0,0,0,1,.71,3.39,3.39,0,0,0,2.65,0,3.05,3.05,0,0,0,1-.71,3.46,3.46,0,0,0,.67-1.07,3.87,3.87,0,0,0,0-2.63,3.28,3.28,0,0,0-.66-1.06,3.15,3.15,0,0,0-1-.69A3.39,3.39,0,0,0,60.69,60a3.34,3.34,0,0,0-1.34.25,3.26,3.26,0,0,0-1,.69A3,3,0,0,0,57.65,62a3.63,3.63,0,0,0-.24,1.34,3.44,3.44,0,0,0,.24,1.29m1.16-2.18a2.51,2.51,0,0,1,.4-.76,1.82,1.82,0,0,1,.63-.54,1.89,1.89,0,0,1,1.69,0,1.82,1.82,0,0,1,.63.54,2.49,2.49,0,0,1,.39.76,2.72,2.72,0,0,1,.14.89,3.17,3.17,0,0,1-.12.85,2.59,2.59,0,0,1-.36.77,1.86,1.86,0,0,1-.63.55,1.8,1.8,0,0,1-.89.22,1.83,1.83,0,0,1-1.53-.77,2.39,2.39,0,0,1-.37-.77,3.17,3.17,0,0,1-.12-.85,3,3,0,0,1,.14-.89m-5.87,4.08h1.18V63.58a3.32,3.32,0,0,1,.48-1.9,1.5,1.5,0,0,1,1.27-.7,1.73,1.73,0,0,1,.32,0,1.31,1.31,0,0,1,.34.09V60L56.17,60a2.43,2.43,0,0,0-.42,0,1.71,1.71,0,0,0-1,.32,2,2,0,0,0-.7.82h0v-1H52.94Zm-3.36,0h1.19V60.11H49.58Zm1.26-9.13H49.51v1.32h1.33Zm-2.55,2.75H47.1l-1.78,5.2h0l-1.74-5.2h-1.3l2.31,6.38H46ZM35.43,66.49h1.18v-3a4.47,4.47,0,0,1,.12-1.06,2.31,2.31,0,0,1,.35-.83,1.67,1.67,0,0,1,.61-.54,1.87,1.87,0,0,1,.88-.19,1.18,1.18,0,0,1,1.07.6,3.73,3.73,0,0,1,.29,1.67v3.31h1.18V62.7a3.13,3.13,0,0,0-.58-2A2.19,2.19,0,0,0,38.71,60a2.66,2.66,0,0,0-1.26.3,1.91,1.91,0,0,0-.85.86h0v-1H35.43Zm-6.83,0h4.93V65.38H29.86V62.51H33.2v-1.1H29.86V58.86h3.67v-1.1H28.6Z" transform="translate(-28.6 -22.1)"/><path class="cls-2" d="M128.07,32.15H130V45.27h-1.88Z" transform="translate(-28.6 -22.1)"/><path class="cls-2" d="M133.13,35.68h1.71V37.2h0A3.43,3.43,0,0,1,138,35.46c2.49,0,3.59,1.54,3.59,4.11v5.7h-1.76v-5c0-2.23-.49-3.32-2-3.41-2,0-2.92,1.61-2.92,3.94v4.44h-1.76Z" transform="translate(-28.6 -22.1)"/><path class="cls-2" d="M143.9,43.39a4.76,4.76,0,0,0,2.2.67c.81,0,1.8-.34,1.8-1.37,0-1.75-4.15-1.6-4.15-4.28,0-2,1.49-2.95,3.38-2.95a7.69,7.69,0,0,1,2.21.37l-.16,1.54a5.17,5.17,0,0,0-1.85-.48c-.91,0-1.7.37-1.7,1.16,0,2,4.16,1.39,4.16,4.45,0,2-1.64,3-3.35,3a5.43,5.43,0,0,1-2.63-.53Z" transform="translate(-28.6 -22.1)"/><path class="cls-2" d="M157,37.11h-2.54v5.24A1.52,1.52,0,0,0,156,44.06a2.21,2.21,0,0,0,1.21-.34v1.51a5.69,5.69,0,0,1-1.5.26c-1.83,0-3-.86-3-2.78v-5.6h-2.16V35.68h2.16V33.46l1.77-.56v2.78H157Z" transform="translate(-28.6 -22.1)"/><path class="cls-2" d="M161.35,33.54h-2v-2h2Zm-1.88,2.14h1.77v9.59h-1.77Z" transform="translate(-28.6 -22.1)"/><path class="cls-2" d="M169.57,37.11H167v5.24a1.52,1.52,0,0,0,1.49,1.71,2.17,2.17,0,0,0,1.2-.34v1.51a5.7,5.7,0,0,1-1.51.26c-1.82,0-2.94-.86-2.94-2.78v-5.6H163.1V35.68h2.17V33.46L167,32.9v2.78h2.54Z" transform="translate(-28.6 -22.1)"/><path class="cls-2" d="M180.27,45.27h-1.71V43.74h0a3.46,3.46,0,0,1-3.14,1.75c-2.48,0-3.59-1.54-3.59-4.11v-5.7h1.77v5c0,2.24.48,3.33,2,3.42,2,0,2.91-1.61,2.91-3.94V35.68h1.77Z" transform="translate(-28.6 -22.1)"/><path class="cls-2" d="M188.37,37.11h-2.54v5.24a1.52,1.52,0,0,0,1.49,1.71,2.14,2.14,0,0,0,1.2-.34v1.51a5.62,5.62,0,0,1-1.5.26c-1.82,0-3-.86-3-2.78v-5.6h-2.16V35.68h2.16V33.46l1.76-.56v2.78h2.54Z" transform="translate(-28.6 -22.1)"/><path class="cls-2" d="M197.94,44.87a7.18,7.18,0,0,1-3,.62c-3.4,0-5-2.07-5-5.19,0-2.83,1.78-4.84,4.49-4.84,3.19,0,4.23,2.33,4.23,5.41h-6.85A3.13,3.13,0,0,0,195,44.06a5.61,5.61,0,0,0,2.95-1Zm-1.14-5.32a2.42,2.42,0,0,0-2.39-2.66,2.66,2.66,0,0,0-2.58,2.66Z" transform="translate(-28.6 -22.1)"/><rect class="cls-2" y="52.62" width="170.08" height="1"/></svg>
