<svg xmlns="http://www.w3.org/2000/svg" viewBox="0 0 212 70">
  <path fill="#fff" fill-rule="evenodd" d="M11.95.797C6.868.797.555 2.99.555 9.02c0 5.226 4.66 7.038 8.726 8.81 1.32.55 3.43 1.39 4.45 2.317.73.636 1.06 1.352 1.06 2.32 0 2.827-2.63 3.88-5.09 3.88-2.45 0-5.8-1.138-7.79-2.613-.08-.083-.13-.13-.25-.13-.3.13-1.65.76-1.65 1.057 0 1.01.22 2.49.43 3.46.17.8.42.76 1.14.93 2.5.59 5.04.97 7.59.97 5.17 0 11.27-2.86 11.27-8.77 0-5.02-4.32-6.66-8.22-8.43-1.61-.71-3.39-1.34-4.78-2.44-.85-.67-1.24-1.43-1.24-2.53 0-2.65 2.59-3.54 4.83-3.54 1.83 0 4.24.68 5.76 1.69.18.13.6.47.81.47.26 0 1.7-.76 1.7-1.01 0-.97-.16-1.99-.33-2.95-.08-.59-.08-.63-.67-.84-1.57-.58-4.58-.84-6.31-.84zm24.15.548v17.92c0 1.815.086 3.88.81 5.567 1.775 4.174 6.607 5.182 10.716 5.182 4.448 0 9.49-1.097 11.99-5.143 1.567-2.57 1.527-5.98 1.61-8.89l.38-14.63H57.07v14.8c0 3.04.34 6.28-2.54 8.22-1.57 1.06-3.56 1.44-5.425 1.44-3.684 0-6.52-1.22-6.776-5.27-.05-.8-.05-1.6-.05-2.4V1.35H36.1zm42.88 0l-.127 28.123H83.3L82.964 9.36l19.02 20.74 3.65-.97.038-27.784h-4.49l.38 19.774-18.09-19.774H78.98zM0 68.747V70h211.994v-1.253H0zm171.27-13.784c.16 0 .32.008.48.018.158.01.32.02.476.02v.72c0 .61-.19 1.11-.577 1.52-.38.41-.95.61-1.69.61-.18 0-.35-.03-.53-.08-.18-.06-.35-.14-.49-.25-.15-.11-.26-.25-.36-.41-.1-.16-.15-.35-.15-.57 0-.35.11-.64.33-.85.21-.2.47-.36.78-.46.3-.11.62-.17.94-.2.31-.02.57-.04.78-.04zm-23.072 0c.16 0 .32.008.48.018.16.01.32.02.477.02v.72c0 .61-.19 1.11-.572 1.52-.385.41-.947.61-1.695.61-.168 0-.343-.03-.526-.08-.185-.06-.343-.14-.484-.25-.144-.11-.268-.25-.36-.41-.096-.16-.142-.35-.142-.57 0-.35.107-.64.324-.85.22-.2.477-.36.784-.46.304-.11.613-.17.932-.2.32-.02.583-.04.782-.04zm-46.516-1.236l2.64 3.084c-.084.1-.187.21-.315.33-.127.13-.273.24-.44.35-.168.11-.36.2-.575.27-.213.08-.446.11-.7.11-.28 0-.553-.05-.816-.14-.26-.09-.488-.22-.684-.4-.194-.17-.35-.37-.47-.62-.12-.23-.18-.51-.18-.81 0-.27.04-.51.126-.71.083-.2.195-.39.336-.56.142-.16.304-.32.487-.45.19-.14.39-.28.6-.43zm-28.88-1.843c.316 0 .6.06.85.173.25.112.46.272.628.475.168.202.296.44.387.713.086.27.134.556.134.858h-4.14c.03-.26.1-.523.18-.782.09-.26.22-.49.4-.7.17-.21.39-.39.65-.52s.57-.2.94-.2zm-32.802 0c.384 0 .74.082 1.052.248.313.17.575.394.787.674.2.282.37.603.48.96.11.36.17.728.17 1.103 0 .35-.05.71-.16 1.06-.1.35-.25.67-.46.96-.21.28-.46.51-.78.69-.32.17-.69.26-1.12.26-.44 0-.82-.09-1.14-.27-.31-.18-.57-.41-.78-.7-.21-.29-.36-.61-.46-.96-.1-.36-.15-.71-.15-1.07 0-.38.06-.75.17-1.11.11-.36.28-.68.49-.96.21-.28.48-.51.78-.68.31-.17.66-.25 1.06-.25zm140.177-.112c.406 0 .75.085 1.038.264.288.174.522.402.7.688.183.285.315.61.392.97.08.36.115.72.107 1.078.007.32-.026.66-.114 1.018-.082.36-.216.692-.396.992-.182.305-.417.554-.703.754-.29.202-.63.304-1.03.304-.42 0-.79-.093-1.09-.276-.3-.187-.55-.43-.74-.726-.19-.296-.33-.622-.43-.976-.08-.355-.13-.703-.13-1.04 0-.38.05-.754.15-1.12.09-.366.24-.693.44-.978.2-.286.46-.514.76-.688.3-.18.66-.264 1.06-.264zm-154.018-.89v7.975h1.47V50.88h-1.47zm-9.13 0l2.87 7.975h1.76l2.87-7.976h-1.47l-2.22 6.51h-.03l-2.17-6.5h-1.61zm187.35-.128l2.76 7.562.18.47c.07.175.11.302.11.388 0 .043-.04.17-.09.382-.06.21-.16.436-.31.676-.15.237-.34.455-.56.65-.23.196-.51.295-.84.295-.13 0-.25-.015-.37-.04-.13-.03-.24-.056-.33-.087l-.1 1.22c.14.022.28.048.43.076.15.024.34.037.59.037.48 0 .9-.1 1.24-.3.34-.2.63-.464.86-.787.22-.324.42-.684.58-1.08.15-.4.3-.792.44-1.184l3-8.278h-1.52l-2.24 6.706h-.04L206 50.754h-1.65zm-9.3 0v8.103h1.5v-8.103h-1.5zm-8.88 0v8.103h1.5v-8.103h-1.5zm-32.83 0v8.103h1.5v-8.103h-1.5zm-31.25 0v4.814c0 1.09.24 1.942.73 2.557.49.616 1.26.922 2.32.922.57 0 1.1-.126 1.59-.388.49-.26.85-.63 1.07-1.09h.03v1.28h1.46v-8.1h-1.5v3.75c0 .49-.05.95-.14 1.36-.1.4-.25.76-.45 1.05-.2.29-.46.51-.77.68-.32.16-.69.25-1.12.25-.66-.05-1.11-.3-1.36-.77-.25-.47-.37-1.18-.37-2.13v-4.19h-1.5zm-39.71-.06c-.57 0-1.1.127-1.58.384-.48.256-.83.614-1.06 1.07h-.03V50.88h-1.43v7.977h1.48v-3.69c0-.48.05-.922.14-1.33.1-.405.24-.752.44-1.038.2-.29.45-.52.76-.68.31-.17.67-.25 1.09-.25.65.04 1.09.29 1.33.75s.36 1.16.36 2.09v4.12h1.48V54.1c0-1.07-.24-1.913-.73-2.517-.48-.606-1.24-.906-2.28-.906zm-9.6 0c-.57 0-1.08.1-1.54.298-.46.2-.86.476-1.19.836-.33.36-.59.786-.77 1.274-.18.49-.27 1.033-.27 1.627 0 .64.08 1.23.25 1.76.17.53.42.98.76 1.36.33.37.76.66 1.29.87.51.21 1.13.31 1.84.31.32 0 .61-.02.87-.06.25-.03.48-.08.67-.13.19-.06.37-.11.53-.17l.45-.17v-1.47c-.1.07-.23.16-.4.25s-.37.18-.6.26c-.23.08-.47.15-.73.2-.26.06-.51.09-.75.09-.35 0-.68-.07-1-.2-.32-.13-.6-.32-.85-.55-.24-.24-.43-.52-.58-.84-.14-.33-.21-.69-.21-1.08h5.72c0-.64-.06-1.23-.18-1.79s-.32-1.03-.59-1.43c-.27-.4-.63-.72-1.08-.95-.45-.23-1.01-.35-1.68-.35zm-13.25 0c-.6 0-1.1.11-1.51.322-.41.214-.76.556-1.04 1.025H57v-1.16h-1.38v7.98h1.48v-4.02c0-.37.04-.74.118-1.1.08-.35.2-.66.366-.94.17-.28.387-.5.655-.66.26-.16.58-.25.96-.25.29 0 .53.07.72.21.19.14.33.32.44.53.1.22.18.45.21.71.03.26.05.52.05.77v4.76h1.48v-4.02c0-.37.04-.74.12-1.1.07-.35.2-.66.37-.94.17-.28.39-.5.66-.66.27-.16.59-.25.96-.25.29 0 .53.07.72.21.19.14.33.32.44.53.1.22.17.46.21.71.03.27.05.52.05.77v4.76h1.48v-5.12c0-.43-.05-.83-.15-1.2-.1-.37-.26-.69-.48-.96-.22-.27-.51-.48-.86-.64-.35-.16-.79-.23-1.3-.23-.18 0-.38.02-.61.08-.23.05-.46.14-.7.26-.23.12-.45.28-.66.48-.21.2-.38.44-.52.72-.21-.54-.53-.94-.95-1.18-.43-.25-.87-.37-1.33-.37zm-9.46 0c-.57 0-1.09.127-1.57.384-.48.256-.83.614-1.06 1.07h-.03V50.88h-1.43v7.977h1.48v-3.69c0-.48.05-.922.14-1.33.1-.405.24-.752.44-1.038.19-.29.45-.52.76-.68.31-.17.67-.25 1.09-.25.65.04 1.1.29 1.34.75.23.46.36 1.16.36 2.09v4.12h1.48V54.1c0-1.07-.24-1.913-.72-2.517-.49-.606-1.25-.906-2.28-.906zm-10.13 0c-.62 0-1.18.106-1.68.314-.5.21-.93.498-1.29.867-.37.37-.64.81-.84 1.32-.19.513-.29 1.072-.29 1.674 0 .57.1 1.11.3 1.61.19.51.47.95.84 1.33.36.38.79.68 1.29.89.49.22 1.05.33 1.65.33.6 0 1.15-.11 1.65-.33.5-.22.93-.52 1.29-.9.35-.39.63-.83.83-1.34.19-.51.29-1.05.29-1.62 0-.61-.1-1.17-.29-1.68-.2-.51-.47-.95-.83-1.32-.36-.37-.79-.66-1.29-.87-.51-.21-1.06-.31-1.67-.31zm-6.16 0c-.43 0-.84.136-1.22.398-.38.267-.68.608-.87 1.026h-.03V50.88h-1.38v7.977h1.48V55.23c0-1.004.2-1.793.59-2.377.4-.584.93-.873 1.58-.873.13 0 .26.007.4.03.14.02.28.056.41.108v-1.312c-.16-.032-.31-.057-.44-.082-.14-.02-.31-.03-.54-.03zm-21.24 0c-.57 0-1.09.127-1.57.384-.49.256-.84.614-1.06 1.07h-.03V50.88h-1.4v7.977h1.48v-3.69c0-.48.05-.922.14-1.33.09-.405.24-.752.44-1.038.2-.29.45-.52.76-.68.31-.17.67-.25 1.09-.25.65.04 1.09.29 1.33.75s.36 1.16.36 2.09v4.12h1.48V54.1c0-1.07-.24-1.913-.73-2.517-.49-.606-1.24-.906-2.28-.906zm157.85-.13c-.52 0-1.01.07-1.46.214-.45.14-.86.323-1.23.547l.08 1.272c.31-.254.67-.454 1.09-.603.42-.148.84-.222 1.27-.222.75 0 1.27.176 1.57.532.29.354.44.882.44 1.58-.3-.02-.56-.035-.8-.035h-.8c-.38 0-.79.04-1.24.13-.45.09-.85.24-1.23.44-.37.2-.68.48-.93.82-.25.34-.37.76-.37 1.27 0 .44.07.82.21 1.14.15.32.35.58.61.78.26.21.58.35.95.45.36.09.76.14 1.2.14.34 0 .64-.05.92-.13.27-.09.51-.19.71-.31.21-.12.39-.26.54-.4.15-.14.26-.28.35-.4h.03v1.05h1.4c-.02-.12-.04-.29-.05-.53-.02-.24-.02-.59-.02-1.06V53.9c0-1.113-.26-1.95-.76-2.51-.51-.56-1.34-.843-2.51-.843zm-8.67 0c-.57 0-1.1.13-1.59.39s-.85.623-1.07 1.087h-.04v-1.28h-1.45v8.11h1.5v-3.75c0-.49.04-.93.14-1.35.09-.41.24-.76.44-1.06.2-.29.45-.52.77-.68.31-.16.68-.24 1.11-.24.66.04 1.11.3 1.36.76.24.47.36 1.18.36 2.13v4.2h1.5v-4.82c0-1.09-.25-1.94-.74-2.55-.49-.61-1.26-.92-2.32-.92zm-14.4 0c-.52 0-1.01.07-1.45.214-.45.14-.86.323-1.23.547l.08 1.272c.31-.254.67-.454 1.09-.603.42-.148.84-.222 1.26-.222.76 0 1.28.176 1.57.532.29.354.44.882.44 1.58-.3-.02-.57-.035-.8-.035h-.8c-.39 0-.8.04-1.25.13-.45.09-.86.24-1.23.44s-.69.48-.93.82c-.25.34-.38.76-.38 1.27 0 .44.07.82.21 1.14.14.32.35.58.62.78.26.21.58.35.94.45.37.09.77.14 1.21.14.33 0 .64-.05.91-.13.27-.09.51-.19.72-.31.2-.12.38-.26.53-.4.15-.14.27-.28.35-.4h.04v1.05h1.4c-.02-.12-.04-.29-.05-.53-.01-.24-.01-.59-.01-1.06V53.9c0-1.113-.26-1.95-.76-2.51-.51-.56-1.35-.843-2.52-.843zm-13.35 0c-.41 0-.79.047-1.14.15-.36.1-.66.254-.91.46-.26.208-.46.466-.61.78-.15.31-.23.68-.23 1.104 0 .38.08.7.26.953.17.26.39.48.65.67.26.19.54.36.84.5.3.14.58.28.84.42.26.15.48.31.65.47.18.17.27.38.27.62 0 .23-.05.41-.14.56-.11.15-.23.27-.37.36-.15.09-.32.16-.5.2-.18.04-.36.06-.53.06-.11 0-.24-.01-.4-.03-.15-.02-.32-.05-.49-.1-.17-.05-.34-.11-.51-.18-.17-.07-.34-.15-.48-.25l-.08 1.33c.34.18.7.3 1.08.36.38.06.76.09 1.15.09.36 0 .71-.05 1.05-.15.34-.1.64-.25.91-.46.26-.2.48-.47.64-.78.16-.32.24-.69.24-1.13 0-.43-.09-.78-.27-1.06-.18-.27-.4-.51-.66-.69-.26-.18-.54-.34-.84-.47-.31-.13-.59-.26-.85-.4-.26-.13-.48-.28-.66-.46-.17-.17-.26-.4-.26-.67 0-.34.14-.59.43-.75.28-.16.62-.24 1-.24.08 0 .2.01.34.03.14.02.293.06.45.1.153.05.303.09.45.14.14.04.26.09.34.15l.13-1.3c-.3-.08-.6-.16-.9-.22-.29-.06-.62-.1-.97-.1zm-31.45-1.62c.38 0 .69.097.94.296.25.197.37.546.37 1.05 0 .228-.06.442-.16.642-.11.195-.25.376-.42.536-.17.163-.35.306-.54.43-.19.127-.37.227-.54.3-.24-.26-.46-.546-.67-.846-.21-.302-.31-.635-.31-1.003 0-.47.13-.82.38-1.06.25-.24.57-.35.93-.35zm-12.5-.374l-1.48.466v1.843h-1.8v1.19h1.81v4.66c0 .8.22 1.39.66 1.75.44.37 1.04.55 1.81.55.24 0 .46-.03.68-.07.21-.05.4-.1.57-.15v-1.25c-.11.07-.25.13-.41.19-.16.05-.36.08-.59.08-.34 0-.63-.12-.87-.36s-.37-.59-.37-1.07v-4.36h2.12v-1.19h-2.12v-2.31zm111.43-.17l-1.5.477v1.874h-1.84v1.21H200v4.73c0 .82.223 1.42.67 1.79.45.38 1.058.57 1.834.57.247 0 .48-.02.697-.07.22-.05.42-.1.58-.15v-1.28c-.11.08-.25.14-.42.2-.16.06-.36.09-.6.09-.33 0-.63-.12-.88-.36s-.37-.6-.37-1.08v-4.43h2.16v-1.21h-2.15v-2.35zm-61.23 0l-1.5.477v1.874h-1.84v1.21h1.83v4.73c0 .82.22 1.42.67 1.79.45.38 1.06.57 1.83.57.25 0 .48-.02.69-.07.22-.05.41-.1.58-.15v-1.28c-.12.08-.26.14-.42.2-.16.06-.36.09-.6.09-.35 0-.64-.12-.89-.36s-.38-.6-.38-1.08v-4.43h2.15v-1.21h-2.16v-2.35zM0 47.943v10.915h6.14V57.48H1.57v-3.596h4.165V52.51H1.57v-3.19h4.57v-1.376H0zm102.653-.187c-.397 0-.768.055-1.112.16-.34.1-.65.26-.9.465-.25.21-.46.48-.61.8-.15.32-.23.71-.23 1.14 0 .53.12.98.35 1.37.23.39.49.77.79 1.12-.74.3-1.34.71-1.78 1.21-.44.5-.66 1.17-.66 1.99 0 .46.08.88.24 1.25.16.38.4.7.71.97.31.27.68.47 1.11.62.44.15.93.22 1.48.22.7 0 1.3-.09 1.8-.28.5-.19.95-.51 1.35-.96l.9 1.07h1.97l-1.92-2.16c.16-.24.3-.48.44-.73s.26-.52.37-.82c.11-.3.2-.62.28-.98.08-.36.14-.76.17-1.2h-1.48c-.04.63-.11 1.14-.21 1.54-.1.41-.25.78-.46 1.11L103 53.12c.29-.128.58-.28.863-.46.28-.188.54-.398.77-.63.23-.24.414-.51.555-.8.144-.29.214-.61.214-.95 0-.43-.075-.8-.22-1.12-.146-.31-.35-.567-.6-.77-.253-.205-.543-.354-.872-.447-.33-.09-.67-.14-1.03-.14zm14.557-.18c-.503 0-.97.067-1.405.198-.434.136-.814.33-1.132.584-.32.253-.57.567-.758.943-.185.38-.28.81-.28 1.3 0 .57.114 1.04.35 1.42.234.37.53.68.89.93.352.25.74.47 1.153.65.416.18.8.37 1.154.57.36.2.658.42.888.68.237.26.353.6.353 1.01 0 .33-.07.61-.217.84-.143.23-.32.42-.532.56-.212.15-.454.25-.712.32-.258.07-.503.1-.727.1-.202 0-.412-.02-.63-.06-.217-.03-.426-.08-.628-.13-.205-.05-.393-.11-.577-.17l-.48-.17-.16 1.48c.372.12.752.22 1.126.32.378.1.768.15 1.16.15.554 0 1.075-.06 1.572-.18.496-.13.924-.32 1.302-.58.373-.27.663-.61.88-1.03.21-.42.316-.92.316-1.52s-.118-1.1-.352-1.51c-.233-.4-.53-.74-.884-1.02-.36-.27-.743-.5-1.16-.68-.41-.18-.8-.37-1.156-.56-.358-.19-.652-.4-.886-.63-.233-.23-.35-.52-.35-.88 0-.28.058-.52.172-.71.12-.19.275-.34.466-.45.194-.11.4-.19.63-.24.228-.05.455-.07.68-.07.2 0 .388.01.56.03.166.02.33.05.49.09.163.04.322.09.493.15.16.06.34.13.54.2l.22-1.46c-.39-.13-.79-.23-1.2-.3-.42-.06-.81-.09-1.18-.09zm-91.146-.13V49.1h1.663v-1.656h-1.663zm168.93-.187v1.68h1.69v-1.68h-1.69zm-8.876 0v1.68h1.69v-1.68h-1.69zm-32.825 0v1.68h1.692v-1.68h-1.692zm37.358-.32v11.92h1.51V46.94h-1.5zm-14.38 0v11.92h1.44v-1.15h.03c.1.15.23.3.4.46.17.16.37.3.6.43.24.12.51.23.8.32.3.08.63.12 1 .12.62 0 1.15-.12 1.59-.37.44-.25.8-.58 1.09-.99.29-.41.5-.88.63-1.4.14-.53.2-1.07.2-1.63 0-.54-.07-1.06-.21-1.56-.14-.5-.36-.94-.66-1.31-.29-.38-.65-.68-1.1-.9-.44-.22-.95-.34-1.54-.34-.7 0-1.28.12-1.7.37-.43.25-.76.56-.99.93h-.03v-4.92h-1.5zm30.41-27.67c1.9 0 2.98 1.5 2.98 3.33h-6.19c.17-1.55 1.06-3.34 3.22-3.34zm-28.19-1.51v7.11c0 3.22 1.38 5.14 4.47 5.14 1.66 0 3.26-.83 3.92-2.19h.05v1.9h2.13V17.78h-2.2v5.542c0 2.914-1.12 4.933-3.63 4.933-1.92-.116-2.53-1.48-2.53-4.273V17.78h-2.2zm-15.35 0v11.98h2.21V17.77h-2.2zm43.6-.29c-3.37 0-5.6 2.51-5.6 6.06 0 3.9 1.95 6.48 6.19 6.48 1.97 0 2.93-.47 3.77-.78v-2.21c-.53.44-2.22 1.2-3.67 1.2-2.08 0-3.93-1.62-3.93-4h8.5c0-3.86-1.29-6.77-5.27-6.77zm-58.97 0c-2.36 0-4.21 1.2-4.21 3.69 0 3.36 5.18 3.17 5.18 5.35 0 1.29-1.24 1.71-2.24 1.71-.63 0-1.87-.28-2.74-.85l-.11 1.97c1.01.54 2.16.66 3.28.66 2.13 0 4.18-1.18 4.18-3.73 0-3.83-5.18-3.13-5.18-5.57 0-.99.99-1.46 2.11-1.46.52 0 1.83.3 2.32.61l.19-1.93c-.87-.26-1.71-.47-2.74-.47zm-11.37 0c-1.66 0-3.25.82-3.91 2.19h-.04v-1.9h-2.13v11.98h2.2V24.2c0-2.913 1.13-4.933 3.64-4.933 1.92.117 2.53 1.48 2.53 4.274v6.21h2.2v-7.12c0-3.22-1.38-5.14-4.47-5.14zm59.6-3.18l-2.2.7v2.77h-2.69v1.78h2.69v7c0 2.39 1.41 3.47 3.68 3.47.71 0 1.39-.19 1.88-.33V27.8c-.32.21-.82.424-1.5.424-1 0-1.85-.75-1.85-2.14v-6.55h3.17v-1.78H196v-3.47zm-23.44 0l-2.2.7v2.77h-2.69v1.78h2.7v7c0 2.39 1.41 3.47 3.68 3.47.7 0 1.38-.19 1.88-.33V27.8c-.33.21-.82.424-1.5.424-1.01 0-1.85-.75-1.85-2.14v-6.55h3.17v-1.78h-3.16v-3.47zm-15.63 0l-2.2.7v2.77h-2.69v1.78h2.7v7c0 2.39 1.4 3.47 3.68 3.47.7 0 1.38-.19 1.87-.33V27.8c-.33.21-.82.424-1.5.424-1.01 0-1.85-.75-1.85-2.14v-6.55h3.16v-1.78h-3.16v-3.47zM124 13.35v16.4h2.34v-16.4H124zm39-.75v2.49h2.488V12.6H163z"/>
</svg>
