<?xml version="1.0" encoding="utf-8"?>
<!-- Generator: Adobe Illustrator 21.1.0, SVG Export Plug-In . SVG Version: 6.00 Build 0)  -->
<svg version="1.1" id="Ebene_1" xmlns="http://www.w3.org/2000/svg" xmlns:xlink="http://www.w3.org/1999/xlink" x="0px" y="0px"
	 viewBox="0 0 87.4 80.7" style="enable-background:new 0 0 87.4 80.7;" xml:space="preserve">
<style type="text/css">
	.st0{fill:#FFFFFF;}
</style>
<g>
	<g>
		<path class="st0" d="M48.4,80.7H0V32.3h48.4V80.7z M0.8,79.9h46.7V33.2H0.8V79.9z"/>
	</g>
	<g>
		<path class="st0" d="M15,0v22.1h3.9v2.7H7.7v-2.7h4V3.7L7.3,4V1.8c2-0.5,3.8-1.1,5.3-1.8H15z"/>
		<path class="st0" d="M26.8,21c1.4,0.9,2.9,1.4,4.3,1.4c3.9,0,6.5-3.3,6.7-9c-1.8,1.7-3.7,2.5-5.9,2.5c-4.3,0-7.5-3.2-7.5-7.8
			c0-4.8,3.3-8,8.2-8c5.6,0,8.7,3.9,8.7,11.4c0,8.7-4,13.9-10.1,13.9c-2.3,0-4.3-0.6-5.7-1.6L26.8,21z M32.5,2.9
			c-2.7,0-4.8,2.1-4.8,5.2c0,3.1,2,5.2,4.8,5.2c2.2,0,4.3-1.4,5.3-3.9C37.7,5.2,35.6,2.9,32.5,2.9z"/>
		<path class="st0" d="M49.6,21c1.4,0.9,2.9,1.4,4.3,1.4c3.9,0,6.5-3.3,6.7-9c-1.8,1.7-3.7,2.5-5.9,2.5c-4.3,0-7.5-3.2-7.5-7.8
			c0-4.8,3.3-8,8.2-8c5.6,0,8.7,3.9,8.7,11.4c0,8.7-4,13.9-10.1,13.9c-2.3,0-4.3-0.6-5.7-1.6L49.6,21z M55.4,2.9
			c-2.7,0-4.8,2.1-4.8,5.2c0,3.1,2,5.2,4.8,5.2c2.2,0,4.3-1.4,5.3-3.9C60.5,5.2,58.4,2.9,55.4,2.9z"/>
		<path class="st0" d="M87.4,18.3c0,4.4-3.1,6.9-8.9,6.9c-5.4,0-8.6-2.6-8.6-6.6c0-3.1,1.6-5.3,5.1-6.8c-2.8-1.2-4.1-3.1-4.1-5.7
			c0-3.7,2.9-6.1,7.8-6.1c5,0,7.8,2.5,7.8,6.1c0,2.6-1.4,4.6-4.1,5.7C85.7,13.4,87.4,15.4,87.4,18.3z M73.3,18.4c0,2.4,2,4,5.2,4
			c3.5,0,5.6-1.6,5.6-3.9c0-2.4-1.9-3.9-5.7-5.2C74.9,14.6,73.3,16.3,73.3,18.4z M83.2,6.1c0-2.1-1.7-3.4-4.4-3.4
			c-3.1,0-4.7,1.3-4.7,3.4c0,2,1.6,3.4,4.8,4.3C81.8,9.4,83.2,8.2,83.2,6.1z"/>
	</g>
	<g>
		<path class="st0" d="M20.7,58.5v3h-16v-3.2c1.2-2.4,3.1-4.6,5.5-6.5c4.1-3.3,7.1-5.2,7.1-8.4c0-2.4-1.6-4-4-4
			c-2.7,0-4.6,1.7-5.1,4.6l-3.2-0.7c0.9-4.4,3.9-6.9,8.2-6.9c4.8,0,7.6,2.7,7.6,7c0,3.7-2.4,5.9-6.5,8.9c-3.1,2.4-5.4,4.1-6.2,6
			C8,58.5,20.7,58.5,20.7,58.5z"/>
		<path class="st0" d="M44.7,49.2c0,8.4-3,12.7-8.6,12.7s-8.7-4.3-8.7-12.7s3-12.7,8.6-12.7S44.7,40.9,44.7,49.2z M30.7,49.2
			c0,6.5,1.8,9.7,5.3,9.7s5.2-3.3,5.2-9.7s-1.8-9.7-5.2-9.7C32.6,39.4,30.7,42.7,30.7,49.2z"/>
	</g>
	<path class="st0" d="M59.9,36.6v22.1h3.9v2.7H52.7v-2.7h4V40.2l-4.4,0.4v-2.2c2-0.5,3.8-1.1,5.3-1.8H59.9z"/>
	<path class="st0" d="M87.4,54.9c0,4.4-3.1,6.9-8.9,6.9c-5.4,0-8.6-2.6-8.6-6.6c0-3.1,1.6-5.3,5.1-6.8c-2.8-1.2-4.1-3.1-4.1-5.7
		c0-3.7,2.9-6.1,7.8-6.1c5,0,7.8,2.5,7.8,6.1c0,2.6-1.4,4.6-4.1,5.7C85.7,50,87.4,52,87.4,54.9z M73.3,55c0,2.4,2,4,5.2,4
		c3.5,0,5.6-1.6,5.6-3.9c0-2.4-1.9-3.9-5.7-5.2C74.9,51.1,73.3,52.8,73.3,55z M83.2,42.6c0-2.1-1.7-3.4-4.4-3.4
		c-3.1,0-4.7,1.3-4.7,3.4c0,2,1.6,3.4,4.8,4.3C81.8,46,83.2,44.8,83.2,42.6z"/>
	<g>
		<path class="st0" d="M7.4,76.8v-3.9L4,67.7h1l2.8,4.4l2.9-4.4h1l-3.4,5.2v3.9H7.4z"/>
		<path class="st0" d="M13.9,76.8v-9.1h4.4v0.8h-3.6v3.3h3.4v0.8h-3.4v3.5h3.7v0.8L13.9,76.8L13.9,76.8z"/>
		<path class="st0" d="M27.8,76.8l-1-2.4h-4.6l-1,2.4h-0.8l3.7-9.1h1l3.6,9.1H27.8z M24.5,68.6l-2,5h4L24.5,68.6z"/>
		<path class="st0" d="M35.7,76.8l-1.2-2.9c-0.5-1.2-0.8-1.4-1.7-1.4h-0.9v4.3h-0.9v-9.1h2.4c1.6,0,2.7,0.7,2.7,2.4
			c0,1.2-0.8,2-2,2.1l0,0c0.7,0.1,0.8,0.4,1.2,1.1l1.6,3.5L35.7,76.8L35.7,76.8z M32.8,71.7c0.9,0,2.2-0.3,2.2-1.7
			c0-1.2-0.7-1.6-2.1-1.6h-1.2v3.3H32.8z"/>
		<path class="st0" d="M38.8,75.6c0.5,0.3,1.2,0.5,2,0.5c1.2,0,2-0.7,2-1.8c0-0.8-0.7-1.2-1.8-1.8c-1.3-0.7-2.4-1.4-2.4-2.6
			c0-1.5,1.4-2.4,2.9-2.4c0.6,0,1.3,0.1,1.8,0.3l-0.1,0.8c-0.4-0.2-1-0.3-1.6-0.3c-1,0-2,0.5-2,1.6c0,0.8,0.7,1.2,1.8,1.8
			s2.4,1.2,2.4,2.7c0,1.8-1.4,2.5-3,2.5c-0.8,0-1.6-0.2-2-0.4L38.8,75.6z"/>
	</g>
</g>
</svg>
